solid Onshape
  facet normal 0 0 -1
    outer loop
      vertex 0.3 3.7 0
      vertex 0.3 2.7 0
      vertex 0.2 3.7 0
    endloop
  endfacet
  facet normal 0 0 -1
    outer loop
      vertex 0.3 2.7 0
      vertex 0.2 2.7 0
      vertex 0.2 3.7 0
    endloop
  endfacet
  facet normal 0 0 1
    outer loop
      vertex 0.3 2.7 3
      vertex 0.3 3.7 3
      vertex 0.2 2.7 3
    endloop
  endfacet
  facet normal 0 0 1
    outer loop
      vertex 0.3 3.7 3
      vertex 0.2 3.7 3
      vertex 0.2 2.7 3
    endloop
  endfacet
  facet normal 0 1 0
    outer loop
      vertex 0.2 3.7 3
      vertex 0.3 3.7 3
      vertex 0.2 3.7 0
    endloop
  endfacet
  facet normal 0 1 0
    outer loop
      vertex 0.3 3.7 3
      vertex 0.3 3.7 0
      vertex 0.2 3.7 0
    endloop
  endfacet
  facet normal 1 0 0
    outer loop
      vertex 0.3 3.7 3
      vertex 0.3 2.7 3
      vertex 0.3 3.7 0
    endloop
  endfacet
  facet normal 1 0 0
    outer loop
      vertex 0.3 2.7 3
      vertex 0.3 2.7 0
      vertex 0.3 3.7 0
    endloop
  endfacet
  facet normal -1 0 0
    outer loop
      vertex 0.2 2.7 3
      vertex 0.2 3.7 3
      vertex 0.2 2.7 0
    endloop
  endfacet
  facet normal -1 0 0
    outer loop
      vertex 0.2 3.7 3
      vertex 0.2 3.7 0
      vertex 0.2 2.7 0
    endloop
  endfacet
  facet normal 0 -1 0
    outer loop
      vertex 0.3 2.7 3
      vertex 0.2 2.7 3
      vertex 0.3 2.7 0
    endloop
  endfacet
  facet normal 0 -1 0
    outer loop
      vertex 0.2 2.7 3
      vertex 0.2 2.7 0
      vertex 0.3 2.7 0
    endloop
  endfacet
endsolid Onshape
