solid Onshape
  facet normal 0 0 -1
    outer loop
      vertex 8.8 0.3 0
      vertex 8.8 0.2 0
      vertex 7.3 0.3 0
    endloop
  endfacet
  facet normal 0 0 -1
    outer loop
      vertex 8.8 0.2 0
      vertex 7.3 0.2 0
      vertex 7.3 0.3 0
    endloop
  endfacet
  facet normal 0 1 0
    outer loop
      vertex 7.3 0.3 3
      vertex 8.8 0.3 3
      vertex 7.3 0.3 0
    endloop
  endfacet
  facet normal 0 1 0
    outer loop
      vertex 8.8 0.3 3
      vertex 8.8 0.3 0
      vertex 7.3 0.3 0
    endloop
  endfacet
  facet normal 0 0 1
    outer loop
      vertex 8.8 0.2 3
      vertex 8.8 0.3 3
      vertex 7.3 0.2 3
    endloop
  endfacet
  facet normal 0 0 1
    outer loop
      vertex 8.8 0.3 3
      vertex 7.3 0.3 3
      vertex 7.3 0.2 3
    endloop
  endfacet
  facet normal 1 0 0
    outer loop
      vertex 8.8 0.3 3
      vertex 8.8 0.2 3
      vertex 8.8 0.3 0
    endloop
  endfacet
  facet normal 1 0 0
    outer loop
      vertex 8.8 0.2 3
      vertex 8.8 0.2 0
      vertex 8.8 0.3 0
    endloop
  endfacet
  facet normal -1 0 0
    outer loop
      vertex 7.3 0.2 3
      vertex 7.3 0.3 3
      vertex 7.3 0.2 0
    endloop
  endfacet
  facet normal -1 0 0
    outer loop
      vertex 7.3 0.3 3
      vertex 7.3 0.3 0
      vertex 7.3 0.2 0
    endloop
  endfacet
  facet normal 0 -1 0
    outer loop
      vertex 8.8 0.2 3
      vertex 7.3 0.2 3
      vertex 8.8 0.2 0
    endloop
  endfacet
  facet normal 0 -1 0
    outer loop
      vertex 7.3 0.2 3
      vertex 7.3 0.2 0
      vertex 8.8 0.2 0
    endloop
  endfacet
endsolid Onshape
