solid Onshape
  facet normal 0 0 -1
    outer loop
      vertex 4.4388 9.7 0
      vertex 3.4388 9.7 0
      vertex 4.4388 9.8 0
    endloop
  endfacet
  facet normal 0 0 -1
    outer loop
      vertex 3.4388 9.7 0
      vertex 3.4388 9.8 0
      vertex 4.4388 9.8 0
    endloop
  endfacet
  facet normal 1 0 0
    outer loop
      vertex 4.4388 9.8 3
      vertex 4.4388 9.7 3
      vertex 4.4388 9.8 0
    endloop
  endfacet
  facet normal 1 0 0
    outer loop
      vertex 4.4388 9.7 3
      vertex 4.4388 9.7 0
      vertex 4.4388 9.8 0
    endloop
  endfacet
  facet normal 0 -1 0
    outer loop
      vertex 4.4388 9.7 3
      vertex 3.4388 9.7 3
      vertex 4.4388 9.7 0
    endloop
  endfacet
  facet normal 0 -1 0
    outer loop
      vertex 3.4388 9.7 3
      vertex 3.4388 9.7 0
      vertex 4.4388 9.7 0
    endloop
  endfacet
  facet normal 0 1 0
    outer loop
      vertex 3.4388 9.8 3
      vertex 4.4388 9.8 3
      vertex 3.4388 9.8 0
    endloop
  endfacet
  facet normal 0 1 0
    outer loop
      vertex 4.4388 9.8 3
      vertex 4.4388 9.8 0
      vertex 3.4388 9.8 0
    endloop
  endfacet
  facet normal 0 0 1
    outer loop
      vertex 3.4388 9.7 3
      vertex 4.4388 9.7 3
      vertex 3.4388 9.8 3
    endloop
  endfacet
  facet normal 0 0 1
    outer loop
      vertex 4.4388 9.7 3
      vertex 4.4388 9.8 3
      vertex 3.4388 9.8 3
    endloop
  endfacet
  facet normal -1 0 0
    outer loop
      vertex 3.4388 9.7 3
      vertex 3.4388 9.8 3
      vertex 3.4388 9.7 0
    endloop
  endfacet
  facet normal -1 0 0
    outer loop
      vertex 3.4388 9.8 3
      vertex 3.4388 9.8 0
      vertex 3.4388 9.7 0
    endloop
  endfacet
endsolid Onshape
