solid Onshape
  facet normal -1 0 0
    outer loop
      vertex 9.7 8.1 3
      vertex 9.7 9.2 3
      vertex 9.7 8.1 0
    endloop
  endfacet
  facet normal -1 0 0
    outer loop
      vertex 9.7 9.2 3
      vertex 9.7 9.2 0
      vertex 9.7 8.1 0
    endloop
  endfacet
  facet normal 0 0 -1
    outer loop
      vertex 9.7 9.2 0
      vertex 9.8 9.2 0
      vertex 9.7 8.1 0
    endloop
  endfacet
  facet normal 0 0 -1
    outer loop
      vertex 9.8 9.2 0
      vertex 9.8 8.1 0
      vertex 9.7 8.1 0
    endloop
  endfacet
  facet normal 0 1 0
    outer loop
      vertex 9.7 9.2 3
      vertex 9.8 9.2 3
      vertex 9.7 9.2 0
    endloop
  endfacet
  facet normal 0 1 0
    outer loop
      vertex 9.8 9.2 3
      vertex 9.8 9.2 0
      vertex 9.7 9.2 0
    endloop
  endfacet
  facet normal 0 0 1
    outer loop
      vertex 9.8 9.2 3
      vertex 9.7 9.2 3
      vertex 9.8 8.1 3
    endloop
  endfacet
  facet normal 0 0 1
    outer loop
      vertex 9.7 9.2 3
      vertex 9.7 8.1 3
      vertex 9.8 8.1 3
    endloop
  endfacet
  facet normal 0 -1 0
    outer loop
      vertex 9.8 8.1 3
      vertex 9.7 8.1 3
      vertex 9.8 8.1 0
    endloop
  endfacet
  facet normal 0 -1 0
    outer loop
      vertex 9.7 8.1 3
      vertex 9.7 8.1 0
      vertex 9.8 8.1 0
    endloop
  endfacet
  facet normal 1 0 0
    outer loop
      vertex 9.8 9.2 3
      vertex 9.8 8.1 3
      vertex 9.8 9.2 0
    endloop
  endfacet
  facet normal 1 0 0
    outer loop
      vertex 9.8 8.1 3
      vertex 9.8 8.1 0
      vertex 9.8 9.2 0
    endloop
  endfacet
endsolid Onshape
