solid Onshape
  facet normal 1 0 0
    outer loop
      vertex 3.3045 4.14256 3
      vertex 3.3045 -5.85744 3
      vertex 3.3045 4.14256 0
    endloop
  endfacet
  facet normal 1 0 0
    outer loop
      vertex 3.3045 -5.85744 3
      vertex 3.3045 -5.85744 0
      vertex 3.3045 4.14256 0
    endloop
  endfacet
  facet normal -1 0 0
    outer loop
      vertex 2.8045 3.64256 3
      vertex 2.8045 3.64256 0
      vertex 2.8045 -5.35744 3
    endloop
  endfacet
  facet normal -1 0 0
    outer loop
      vertex 2.8045 3.64256 0
      vertex 2.8045 -5.35744 0
      vertex 2.8045 -5.35744 3
    endloop
  endfacet
  facet normal 1 0 0
    outer loop
      vertex 1 3.64256 3
      vertex 1 -1.35744 3
      vertex 1 3.64256 0
    endloop
  endfacet
  facet normal 1 0 0
    outer loop
      vertex 1 -1.35744 3
      vertex 1 -1.35744 0
      vertex 1 3.64256 0
    endloop
  endfacet
  facet normal 0 -1 0
    outer loop
      vertex 1 -1.35744 3
      vertex 4.44089e-16 -1.35744 3
      vertex 1 -1.35744 0
    endloop
  endfacet
  facet normal 0 -1 0
    outer loop
      vertex 4.44089e-16 -1.35744 3
      vertex 4.44089e-16 -1.35744 0
      vertex 1 -1.35744 0
    endloop
  endfacet
  facet normal -1 -8.88178e-17 0
    outer loop
      vertex 4.44089e-16 -1.35744 3
      vertex 0 3.64256 3
      vertex 4.44089e-16 -1.35744 0
    endloop
  endfacet
  facet normal -1 -8.88178e-17 0
    outer loop
      vertex 0 3.64256 3
      vertex 0 3.64256 0
      vertex 4.44089e-16 -1.35744 0
    endloop
  endfacet
  facet normal -1 0 0
    outer loop
      vertex -2.67698 -5.35744 3
      vertex -2.67698 -0.357436 3
      vertex -2.67698 -5.35744 0
    endloop
  endfacet
  facet normal -1 0 0
    outer loop
      vertex -2.67698 -0.357436 3
      vertex -2.67698 -0.357436 0
      vertex -2.67698 -5.35744 0
    endloop
  endfacet
  facet normal 0 -1 0
    outer loop
      vertex 3.3045 -5.85744 3
      vertex -7.6955 -5.85744 3
      vertex 3.3045 -5.85744 0
    endloop
  endfacet
  facet normal 0 -1 0
    outer loop
      vertex -7.6955 -5.85744 3
      vertex -7.6955 -5.85744 0
      vertex 3.3045 -5.85744 0
    endloop
  endfacet
  facet normal 0 1 0
    outer loop
      vertex 2.8045 -5.35744 3
      vertex 2.8045 -5.35744 0
      vertex -1.67698 -5.35744 3
    endloop
  endfacet
  facet normal 0 1 0
    outer loop
      vertex 2.8045 -5.35744 0
      vertex -1.67698 -5.35744 0
      vertex -1.67698 -5.35744 3
    endloop
  endfacet
  facet normal 0 1 0
    outer loop
      vertex -2.67698 -5.35744 0
      vertex -7.1955 -5.35744 0
      vertex -2.67698 -5.35744 3
    endloop
  endfacet
  facet normal 0 1 0
    outer loop
      vertex -7.1955 -5.35744 0
      vertex -7.1955 -5.35744 3
      vertex -2.67698 -5.35744 3
    endloop
  endfacet
  facet normal 1 0 0
    outer loop
      vertex -1.67698 -0.357436 3
      vertex -1.67698 -5.35744 3
      vertex -1.67698 -0.357436 0
    endloop
  endfacet
  facet normal 1 0 0
    outer loop
      vertex -1.67698 -5.35744 3
      vertex -1.67698 -5.35744 0
      vertex -1.67698 -0.357436 0
    endloop
  endfacet
  facet normal 0 -1 0
    outer loop
      vertex 1 3.64256 0
      vertex 2.8045 3.64256 0
      vertex 1 3.64256 3
    endloop
  endfacet
  facet normal 0 -1 0
    outer loop
      vertex 2.8045 3.64256 0
      vertex 2.8045 3.64256 3
      vertex 1 3.64256 3
    endloop
  endfacet
  facet normal 0 1 0
    outer loop
      vertex -2.67698 -0.357436 3
      vertex -1.67698 -0.357436 3
      vertex -2.67698 -0.357436 0
    endloop
  endfacet
  facet normal 0 1 0
    outer loop
      vertex -1.67698 -0.357436 3
      vertex -1.67698 -0.357436 0
      vertex -2.67698 -0.357436 0
    endloop
  endfacet
  facet normal -1 0 0
    outer loop
      vertex -7.6955 -5.85744 3
      vertex -7.6955 4.14256 3
      vertex -7.6955 -5.85744 0
    endloop
  endfacet
  facet normal -1 0 0
    outer loop
      vertex -7.6955 4.14256 3
      vertex -7.6955 4.14256 0
      vertex -7.6955 -5.85744 0
    endloop
  endfacet
  facet normal 1 0 0
    outer loop
      vertex -4.08388 3.64256 3
      vertex -4.08388 -1.35744 3
      vertex -4.08388 3.64256 0
    endloop
  endfacet
  facet normal 1 0 0
    outer loop
      vertex -4.08388 -1.35744 3
      vertex -4.08388 -1.35744 0
      vertex -4.08388 3.64256 0
    endloop
  endfacet
  facet normal 1 0 0
    outer loop
      vertex -7.1955 -5.35744 0
      vertex -7.1955 3.64256 0
      vertex -7.1955 -5.35744 3
    endloop
  endfacet
  facet normal 1 0 0
    outer loop
      vertex -7.1955 3.64256 0
      vertex -7.1955 3.64256 3
      vertex -7.1955 -5.35744 3
    endloop
  endfacet
  facet normal 0 -1 0
    outer loop
      vertex -7.1955 3.64256 0
      vertex -5.08388 3.64256 0
      vertex -7.1955 3.64256 3
    endloop
  endfacet
  facet normal 0 -1 0
    outer loop
      vertex -5.08388 3.64256 0
      vertex -5.08388 3.64256 3
      vertex -7.1955 3.64256 3
    endloop
  endfacet
  facet normal 0 -1 0
    outer loop
      vertex -4.08388 3.64256 3
      vertex -4.08388 3.64256 0
      vertex 0 3.64256 3
    endloop
  endfacet
  facet normal 0 -1 0
    outer loop
      vertex -4.08388 3.64256 0
      vertex 0 3.64256 0
      vertex 0 3.64256 3
    endloop
  endfacet
  facet normal 0 1 0
    outer loop
      vertex -7.6955 4.14256 3
      vertex 3.3045 4.14256 3
      vertex -7.6955 4.14256 0
    endloop
  endfacet
  facet normal 0 1 0
    outer loop
      vertex 3.3045 4.14256 3
      vertex 3.3045 4.14256 0
      vertex -7.6955 4.14256 0
    endloop
  endfacet
  facet normal 0 0 1
    outer loop
      vertex -1.67698 -5.35744 3
      vertex -7.6955 -5.85744 3
      vertex 3.3045 -5.85744 3
    endloop
  endfacet
  facet normal 0 0 1
    outer loop
      vertex -1.67698 -0.357436 3
      vertex -2.67698 -0.357436 3
      vertex -1.67698 -5.35744 3
    endloop
  endfacet
  facet normal 0 0 1
    outer loop
      vertex -2.67698 -0.357436 3
      vertex -2.67698 -5.35744 3
      vertex -1.67698 -5.35744 3
    endloop
  endfacet
  facet normal 0 0 1
    outer loop
      vertex -1.67698 -5.35744 3
      vertex -2.67698 -5.35744 3
      vertex -7.6955 -5.85744 3
    endloop
  endfacet
  facet normal 0 0 1
    outer loop
      vertex -2.67698 -5.35744 3
      vertex -7.1955 -5.35744 3
      vertex -7.6955 -5.85744 3
    endloop
  endfacet
  facet normal 0 0 1
    outer loop
      vertex -7.6955 -5.85744 3
      vertex -7.1955 -5.35744 3
      vertex -7.6955 4.14256 3
    endloop
  endfacet
  facet normal 0 0 1
    outer loop
      vertex -5.08388 -1.35744 3
      vertex -4.08388 -1.35744 3
      vertex -5.08388 3.64256 3
    endloop
  endfacet
  facet normal 0 0 1
    outer loop
      vertex -4.08388 -1.35744 3
      vertex -4.08388 3.64256 3
      vertex -5.08388 3.64256 3
    endloop
  endfacet
  facet normal 0 0 1
    outer loop
      vertex -7.1955 -5.35744 3
      vertex -7.1955 3.64256 3
      vertex -7.6955 4.14256 3
    endloop
  endfacet
  facet normal 0 0 1
    outer loop
      vertex -7.1955 3.64256 3
      vertex -5.08388 3.64256 3
      vertex -7.6955 4.14256 3
    endloop
  endfacet
  facet normal 0 0 1
    outer loop
      vertex -7.6955 4.14256 3
      vertex -5.08388 3.64256 3
      vertex 3.3045 4.14256 3
    endloop
  endfacet
  facet normal 0 0 1
    outer loop
      vertex -5.08388 3.64256 3
      vertex -4.08388 3.64256 3
      vertex 3.3045 4.14256 3
    endloop
  endfacet
  facet normal 0 0 1
    outer loop
      vertex 3.3045 4.14256 3
      vertex -4.08388 3.64256 3
      vertex 0 3.64256 3
    endloop
  endfacet
  facet normal 0 0 1
    outer loop
      vertex 4.44089e-16 -1.35744 3
      vertex 1 -1.35744 3
      vertex 0 3.64256 3
    endloop
  endfacet
  facet normal 0 0 1
    outer loop
      vertex 1 -1.35744 3
      vertex 1 3.64256 3
      vertex 0 3.64256 3
    endloop
  endfacet
  facet normal 0 0 1
    outer loop
      vertex 0 3.64256 3
      vertex 1 3.64256 3
      vertex 3.3045 4.14256 3
    endloop
  endfacet
  facet normal 0 0 1
    outer loop
      vertex 1 3.64256 3
      vertex 2.8045 3.64256 3
      vertex 3.3045 4.14256 3
    endloop
  endfacet
  facet normal 0 0 1
    outer loop
      vertex 3.3045 4.14256 3
      vertex 2.8045 3.64256 3
      vertex 3.3045 -5.85744 3
    endloop
  endfacet
  facet normal 0 0 1
    outer loop
      vertex 2.8045 3.64256 3
      vertex 2.8045 -5.35744 3
      vertex 3.3045 -5.85744 3
    endloop
  endfacet
  facet normal 0 0 1
    outer loop
      vertex 3.3045 -5.85744 3
      vertex 2.8045 -5.35744 3
      vertex -1.67698 -5.35744 3
    endloop
  endfacet
  facet normal -1 0 0
    outer loop
      vertex -5.08388 -1.35744 3
      vertex -5.08388 3.64256 3
      vertex -5.08388 -1.35744 0
    endloop
  endfacet
  facet normal -1 0 0
    outer loop
      vertex -5.08388 3.64256 3
      vertex -5.08388 3.64256 0
      vertex -5.08388 -1.35744 0
    endloop
  endfacet
  facet normal 0 0 -1
    outer loop
      vertex -2.67698 -5.35744 0
      vertex 3.3045 -5.85744 0
      vertex -7.6955 -5.85744 0
    endloop
  endfacet
  facet normal 0 0 -1
    outer loop
      vertex -2.67698 -0.357436 0
      vertex -1.67698 -0.357436 0
      vertex -2.67698 -5.35744 0
    endloop
  endfacet
  facet normal 0 0 -1
    outer loop
      vertex -1.67698 -0.357436 0
      vertex -1.67698 -5.35744 0
      vertex -2.67698 -5.35744 0
    endloop
  endfacet
  facet normal 0 0 -1
    outer loop
      vertex -2.67698 -5.35744 0
      vertex -1.67698 -5.35744 0
      vertex 3.3045 -5.85744 0
    endloop
  endfacet
  facet normal 0 0 -1
    outer loop
      vertex -1.67698 -5.35744 0
      vertex 2.8045 -5.35744 0
      vertex 3.3045 -5.85744 0
    endloop
  endfacet
  facet normal 0 0 -1
    outer loop
      vertex 3.3045 -5.85744 0
      vertex 2.8045 -5.35744 0
      vertex 3.3045 4.14256 0
    endloop
  endfacet
  facet normal 0 0 -1
    outer loop
      vertex 1 -1.35744 0
      vertex 4.44089e-16 -1.35744 0
      vertex 1 3.64256 0
    endloop
  endfacet
  facet normal 0 0 -1
    outer loop
      vertex 4.44089e-16 -1.35744 0
      vertex 0 3.64256 0
      vertex 1 3.64256 0
    endloop
  endfacet
  facet normal 0 0 -1
    outer loop
      vertex 2.8045 -5.35744 0
      vertex 2.8045 3.64256 0
      vertex 3.3045 4.14256 0
    endloop
  endfacet
  facet normal 0 0 -1
    outer loop
      vertex 2.8045 3.64256 0
      vertex 1 3.64256 0
      vertex 3.3045 4.14256 0
    endloop
  endfacet
  facet normal 0 0 -1
    outer loop
      vertex 3.3045 4.14256 0
      vertex 1 3.64256 0
      vertex -7.6955 4.14256 0
    endloop
  endfacet
  facet normal 0 0 -1
    outer loop
      vertex 1 3.64256 0
      vertex 0 3.64256 0
      vertex -7.6955 4.14256 0
    endloop
  endfacet
  facet normal 0 0 -1
    outer loop
      vertex -7.6955 4.14256 0
      vertex 0 3.64256 0
      vertex -4.08388 3.64256 0
    endloop
  endfacet
  facet normal 0 0 -1
    outer loop
      vertex -4.08388 -1.35744 0
      vertex -5.08388 -1.35744 0
      vertex -4.08388 3.64256 0
    endloop
  endfacet
  facet normal 0 0 -1
    outer loop
      vertex -5.08388 -1.35744 0
      vertex -5.08388 3.64256 0
      vertex -4.08388 3.64256 0
    endloop
  endfacet
  facet normal 0 0 -1
    outer loop
      vertex -4.08388 3.64256 0
      vertex -5.08388 3.64256 0
      vertex -7.6955 4.14256 0
    endloop
  endfacet
  facet normal 0 0 -1
    outer loop
      vertex -5.08388 3.64256 0
      vertex -7.1955 3.64256 0
      vertex -7.6955 4.14256 0
    endloop
  endfacet
  facet normal 0 0 -1
    outer loop
      vertex -7.6955 4.14256 0
      vertex -7.1955 3.64256 0
      vertex -7.6955 -5.85744 0
    endloop
  endfacet
  facet normal 0 0 -1
    outer loop
      vertex -7.1955 3.64256 0
      vertex -7.1955 -5.35744 0
      vertex -7.6955 -5.85744 0
    endloop
  endfacet
  facet normal 0 0 -1
    outer loop
      vertex -7.6955 -5.85744 0
      vertex -7.1955 -5.35744 0
      vertex -2.67698 -5.35744 0
    endloop
  endfacet
  facet normal 0 -1 0
    outer loop
      vertex -4.08388 -1.35744 3
      vertex -5.08388 -1.35744 3
      vertex -4.08388 -1.35744 0
    endloop
  endfacet
  facet normal 0 -1 0
    outer loop
      vertex -5.08388 -1.35744 3
      vertex -5.08388 -1.35744 0
      vertex -4.08388 -1.35744 0
    endloop
  endfacet
endsolid Onshape
