solid Onshape
  facet normal 0 0 -1
    outer loop
      vertex 5 2 0
      vertex 4 2 0
      vertex 5 4 0
    endloop
  endfacet
  facet normal 0 0 -1
    outer loop
      vertex 4 2 0
      vertex 4 4 0
      vertex 5 4 0
    endloop
  endfacet
  facet normal 0 0 1
    outer loop
      vertex 4 2 2.5
      vertex 5 2 2.5
      vertex 4 4 2.5
    endloop
  endfacet
  facet normal 0 0 1
    outer loop
      vertex 5 2 2.5
      vertex 5 4 2.5
      vertex 4 4 2.5
    endloop
  endfacet
  facet normal 1 0 0
    outer loop
      vertex 5 4 2.5
      vertex 5 2 2.5
      vertex 5 4 0
    endloop
  endfacet
  facet normal 1 0 0
    outer loop
      vertex 5 2 2.5
      vertex 5 2 0
      vertex 5 4 0
    endloop
  endfacet
  facet normal 0 -1 0
    outer loop
      vertex 5 2 2.5
      vertex 4 2 2.5
      vertex 5 2 0
    endloop
  endfacet
  facet normal 0 -1 0
    outer loop
      vertex 4 2 2.5
      vertex 4 2 0
      vertex 5 2 0
    endloop
  endfacet
  facet normal 0 1 0
    outer loop
      vertex 4 4 2.5
      vertex 5 4 2.5
      vertex 4 4 0
    endloop
  endfacet
  facet normal 0 1 0
    outer loop
      vertex 5 4 2.5
      vertex 5 4 0
      vertex 4 4 0
    endloop
  endfacet
  facet normal -1 0 0
    outer loop
      vertex 4 2 2.5
      vertex 4 4 2.5
      vertex 4 2 0
    endloop
  endfacet
  facet normal -1 0 0
    outer loop
      vertex 4 4 2.5
      vertex 4 4 0
      vertex 4 2 0
    endloop
  endfacet
endsolid Onshape
