solid Onshape
  facet normal 0 0 -1
    outer loop
      vertex 4.5 3.5 0
      vertex 4.5 4.5 0
      vertex 7 3.5 0
    endloop
  endfacet
  facet normal 0 0 -1
    outer loop
      vertex 4.5 4.5 0
      vertex 8 4.5 0
      vertex 7 3.5 0
    endloop
  endfacet
  facet normal 0 0 -1
    outer loop
      vertex 7 3.5 0
      vertex 8 4.5 0
      vertex 7 0 0
    endloop
  endfacet
  facet normal 0 0 -1
    outer loop
      vertex 8 4.5 0
      vertex 8 0 0
      vertex 7 0 0
    endloop
  endfacet
  facet normal 0 0 1
    outer loop
      vertex 7 0 2.5
      vertex 8 0 2.5
      vertex 7 3.5 2.5
    endloop
  endfacet
  facet normal 0 0 1
    outer loop
      vertex 8 0 2.5
      vertex 8 4.5 2.5
      vertex 7 3.5 2.5
    endloop
  endfacet
  facet normal 0 0 1
    outer loop
      vertex 7 3.5 2.5
      vertex 8 4.5 2.5
      vertex 4.5 3.5 2.5
    endloop
  endfacet
  facet normal 0 0 1
    outer loop
      vertex 8 4.5 2.5
      vertex 4.5 4.5 2.5
      vertex 4.5 3.5 2.5
    endloop
  endfacet
  facet normal 0 1 0
    outer loop
      vertex 4.5 4.5 2.5
      vertex 8 4.5 2.5
      vertex 4.5 4.5 0
    endloop
  endfacet
  facet normal 0 1 0
    outer loop
      vertex 8 4.5 2.5
      vertex 8 4.5 0
      vertex 4.5 4.5 0
    endloop
  endfacet
  facet normal -1 0 0
    outer loop
      vertex 4.5 3.5 2.5
      vertex 4.5 4.5 2.5
      vertex 4.5 3.5 0
    endloop
  endfacet
  facet normal -1 0 0
    outer loop
      vertex 4.5 4.5 2.5
      vertex 4.5 4.5 0
      vertex 4.5 3.5 0
    endloop
  endfacet
  facet normal 1 0 0
    outer loop
      vertex 8 4.5 2.5
      vertex 8 0 2.5
      vertex 8 4.5 0
    endloop
  endfacet
  facet normal 1 0 0
    outer loop
      vertex 8 0 2.5
      vertex 8 0 0
      vertex 8 4.5 0
    endloop
  endfacet
  facet normal 0 -1 0
    outer loop
      vertex 7 3.5 2.5
      vertex 4.5 3.5 2.5
      vertex 7 3.5 0
    endloop
  endfacet
  facet normal 0 -1 0
    outer loop
      vertex 4.5 3.5 2.5
      vertex 4.5 3.5 0
      vertex 7 3.5 0
    endloop
  endfacet
  facet normal -1 0 0
    outer loop
      vertex 7 0 2.5
      vertex 7 3.5 2.5
      vertex 7 0 0
    endloop
  endfacet
  facet normal -1 0 0
    outer loop
      vertex 7 3.5 2.5
      vertex 7 3.5 0
      vertex 7 0 0
    endloop
  endfacet
  facet normal 0 -1 0
    outer loop
      vertex 8 0 2.5
      vertex 7 0 2.5
      vertex 8 0 0
    endloop
  endfacet
  facet normal 0 -1 0
    outer loop
      vertex 7 0 2.5
      vertex 7 0 0
      vertex 8 0 0
    endloop
  endfacet
endsolid Onshape
