solid AssimpScene
 facet normal 0 1 0
  outer loop
  vertex -0.2 2.5 -6.2
  vertex -8.81073e-16 2.5 -6
  vertex 2 2.5 -6
  endloop
 endfacet

 facet normal 0 1 0
  outer loop
  vertex 10.2 2.5 0.2
  vertex 10.2 2.5 -6.2
  vertex 10 2.5 -6
  endloop
 endfacet

 facet normal 0 1 0
  outer loop
  vertex 3 2.5 -6
  vertex -0.2 2.5 -6.2
  vertex 2 2.5 -6
  endloop
 endfacet

 facet normal 0 1 0
  outer loop
  vertex -0.2 2.5 0.2
  vertex 10.2 2.5 0.2
  vertex 7 2.5 0
  endloop
 endfacet

 facet normal 0 1 0
  outer loop
  vertex -0.2 2.5 -6.2
  vertex -0.2 2.5 0.2
  vertex -2.55795e-16 2.5 -5.68434e-17
  endloop
 endfacet

 facet normal 0 1 0
  outer loop
  vertex -0.2 2.5 0.2
  vertex 7 2.5 0
  vertex -2.55795e-16 2.5 -5.68434e-17
  endloop
 endfacet

 facet normal 0 1 0
  outer loop
  vertex -0.2 2.5 -6.2
  vertex -2.55795e-16 2.5 -5.68434e-17
  vertex -8.81073e-16 2.5 -6
  endloop
 endfacet

 facet normal 0 1 0
  outer loop
  vertex 8 2.5 0
  vertex 10.2 2.5 0.2
  vertex 10 2.5 0
  endloop
 endfacet

 facet normal 0 1 0
  outer loop
  vertex 5.5 2.5 -1.5
  vertex 5.5 2.5 -2.5
  vertex 3 2.5 -2.5
  endloop
 endfacet

 facet normal 0 1 0
  outer loop
  vertex -0.2 2.5 -6.2
  vertex 3 2.5 -6
  vertex 10.2 2.5 -6.2
  endloop
 endfacet

 facet normal 0 1 0
  outer loop
  vertex 2 2.5 -6
  vertex 2 2.5 -1.5
  vertex 3 2.5 -2.5
  endloop
 endfacet

 facet normal 0 1 0
  outer loop
  vertex 5.5 2.5 -1.5
  vertex 3 2.5 -2.5
  vertex 2 2.5 -1.5
  endloop
 endfacet

 facet normal 0 1 0
  outer loop
  vertex 3 2.5 -2.5
  vertex 3 2.5 -6
  vertex 2 2.5 -6
  endloop
 endfacet

 facet normal 0 1 0
  outer loop
  vertex 7 2.5 -3.5
  vertex 8 2.5 0
  vertex 8 2.5 -4.5
  endloop
 endfacet

 facet normal 0 1 0
  outer loop
  vertex 3 2.5 -6
  vertex 10 2.5 -6
  vertex 10.2 2.5 -6.2
  endloop
 endfacet

 facet normal 0 1 0
  outer loop
  vertex 10 2.5 0
  vertex 10.2 2.5 0.2
  vertex 10 2.5 -6
  endloop
 endfacet

 facet normal 0 1 0
  outer loop
  vertex 7 2.5 0
  vertex 10.2 2.5 0.2
  vertex 8 2.5 0
  endloop
 endfacet

 facet normal 0 1 0
  outer loop
  vertex 7 2.5 0
  vertex 8 2.5 0
  vertex 7 2.5 -3.5
  endloop
 endfacet

 facet normal 0 1 0
  outer loop
  vertex 4.5 2.5 -4.5
  vertex 4.5 2.5 -3.5
  vertex 7 2.5 -3.5
  endloop
 endfacet

 facet normal 0 1 0
  outer loop
  vertex 7 2.5 -3.5
  vertex 8 2.5 -4.5
  vertex 4.5 2.5 -4.5
  endloop
 endfacet

 facet normal -1 0 0
  outer loop
  vertex -0.2 2.5 -6.2
  vertex -0.2 0 0.2
  vertex -0.2 2.5 0.2
  endloop
 endfacet

 facet normal -1 0 0
  outer loop
  vertex -0.2 0 0.2
  vertex -0.2 2.5 -6.2
  vertex -0.2 0 -6.2
  endloop
 endfacet

 facet normal 0 0 1
  outer loop
  vertex 10.2 0 0.2
  vertex 10.2 2.5 0.2
  vertex -0.2 2.5 0.2
  endloop
 endfacet

 facet normal 0 0 1
  outer loop
  vertex -0.2 2.5 0.2
  vertex -0.2 0 0.2
  vertex 10.2 0 0.2
  endloop
 endfacet

 facet normal 1 0 0
  outer loop
  vertex 10.2 0 -6.2
  vertex 10.2 2.5 -6.2
  vertex 10.2 2.5 0.2
  endloop
 endfacet

 facet normal 1 0 0
  outer loop
  vertex 10.2 2.5 0.2
  vertex 10.2 0 0.2
  vertex 10.2 0 -6.2
  endloop
 endfacet

 facet normal 0 0 -1
  outer loop
  vertex 10.2 0 -6.2
  vertex -0.2 2.5 -6.2
  vertex 10.2 2.5 -6.2
  endloop
 endfacet

 facet normal 0 0 -1
  outer loop
  vertex -0.2 2.5 -6.2
  vertex 10.2 0 -6.2
  vertex -0.2 0 -6.2
  endloop
 endfacet

 facet normal 0 -1 0
  outer loop
  vertex 2 0 -6
  vertex -0.2 0 -6.2
  vertex 3 0 -6
  endloop
 endfacet

 facet normal 0 -1 0
  outer loop
  vertex -9.09495e-16 0 -3.5
  vertex 0.1 0 -3.5
  vertex 0.1 0 -2.5
  endloop
 endfacet

 facet normal 0 -1 0
  outer loop
  vertex -7.38964e-16 0 -2.5
  vertex -2.55795e-16 0 -5.68434e-17
  vertex -0.2 0 0.2
  endloop
 endfacet

 facet normal 0 -1 0
  outer loop
  vertex 5.5 0 -1.5
  vertex 3 0 -2.5
  vertex 5.5 0 -2.5
  endloop
 endfacet

 facet normal 0 -1 0
  outer loop
  vertex 2 0 -1.5
  vertex 2 0 -6
  vertex 3 0 -2.5
  endloop
 endfacet

 facet normal 0 -1 0
  outer loop
  vertex 3 0 -6
  vertex 10.2 0 -6.2
  vertex 10 0 -6
  endloop
 endfacet

 facet normal 0 -1 0
  outer loop
  vertex 10 0 -2.5
  vertex 9.9 0 -2.5
  vertex 9.9 0 -3.5
  endloop
 endfacet

 facet normal 0 -1 0
  outer loop
  vertex -0.2 0 -6.2
  vertex 10.2 0 -6.2
  vertex 3 0 -6
  endloop
 endfacet

 facet normal 0 -1 0
  outer loop
  vertex 5.5 0 -1.5
  vertex 2 0 -1.5
  vertex 3 0 -2.5
  endloop
 endfacet

 facet normal 0 -1 0
  outer loop
  vertex 3 0 -2.5
  vertex 2 0 -6
  vertex 3 0 -6
  endloop
 endfacet

 facet normal 0 -1 0
  outer loop
  vertex 10.2 0 -6.2
  vertex 10 0 -3.5
  vertex 10 0 -6
  endloop
 endfacet

 facet normal 0 -1 0
  outer loop
  vertex 10.2 0 -6.2
  vertex 10.2 0 0.2
  vertex 10 0 -3.5
  endloop
 endfacet

 facet normal 0 -1 0
  outer loop
  vertex 9.9 0 -3.5
  vertex 10 0 -3.5
  vertex 10 0 -2.5
  endloop
 endfacet

 facet normal 0 -1 0
  outer loop
  vertex 10.2 0 0.2
  vertex 10 0 -2.5
  vertex 10 0 -3.5
  endloop
 endfacet

 facet normal 0 -1 0
  outer loop
  vertex 10 0 -2.5
  vertex 10.2 0 0.2
  vertex 10 0 0
  endloop
 endfacet

 facet normal 0 -1 0
  outer loop
  vertex 10.2 0 0.2
  vertex 7 0 0
  vertex 8 0 0
  endloop
 endfacet

 facet normal 0 -1 0
  outer loop
  vertex 10 0 0
  vertex 10.2 0 0.2
  vertex 8 0 0
  endloop
 endfacet

 facet normal 0 -1 0
  outer loop
  vertex 7 0 -3.5
  vertex 4.5 0 -4.5
  vertex 8 0 -4.5
  endloop
 endfacet

 facet normal 0 -1 0
  outer loop
  vertex 4.5 0 -4.5
  vertex 7 0 -3.5
  vertex 4.5 0 -3.5
  endloop
 endfacet

 facet normal 0 -1 0
  outer loop
  vertex 8 0 0
  vertex 7 0 -3.5
  vertex 8 0 -4.5
  endloop
 endfacet

 facet normal 0 -1 0
  outer loop
  vertex 10.2 0 0.2
  vertex -0.2 0 0.2
  vertex 7 0 0
  endloop
 endfacet

 facet normal 0 -1 0
  outer loop
  vertex 7 0 -3.5
  vertex 8 0 0
  vertex 7 0 0
  endloop
 endfacet

 facet normal 0 -1 0
  outer loop
  vertex 7 0 0
  vertex -0.2 0 0.2
  vertex -2.55795e-16 0 -5.68434e-17
  endloop
 endfacet

 facet normal 0 -1 0
  outer loop
  vertex -0.2 0 -6.2
  vertex -7.38964e-16 0 -2.5
  vertex -0.2 0 0.2
  endloop
 endfacet

 facet normal 0 -1 0
  outer loop
  vertex -7.38964e-16 0 -2.5
  vertex -0.2 0 -6.2
  vertex -9.09495e-16 0 -3.5
  endloop
 endfacet

 facet normal 0 -1 0
  outer loop
  vertex -0.2 0 -6.2
  vertex -8.81073e-16 0 -6
  vertex -9.09495e-16 0 -3.5
  endloop
 endfacet

 facet normal 0 -1 0
  outer loop
  vertex 0.1 0 -2.5
  vertex -7.38964e-16 0 -2.5
  vertex -9.09495e-16 0 -3.5
  endloop
 endfacet

 facet normal 0 -1 0
  outer loop
  vertex 2 0 -6
  vertex -8.81073e-16 0 -6
  vertex -0.2 0 -6.2
  endloop
 endfacet

 facet normal 8.12049e-18 0 -1
  outer loop
  vertex 7 0 0
  vertex -2.55795e-16 0 -5.68434e-17
  vertex -2.55795e-16 2.5 -5.68434e-17
  endloop
 endfacet

 facet normal 8.12049e-18 0 -1
  outer loop
  vertex 7 0 0
  vertex -2.55795e-16 2.5 -5.68434e-17
  vertex 7 2.5 0
  endloop
 endfacet

 facet normal 0 0 1
  outer loop
  vertex 2 0 -6
  vertex -8.81073e-16 2.5 -6
  vertex -8.81073e-16 0 -6
  endloop
 endfacet

 facet normal 0 0 1
  outer loop
  vertex 2 0 -6
  vertex 2 2.5 -6
  vertex -8.81073e-16 2.5 -6
  endloop
 endfacet

 facet normal 1 -1.05097e-15 -1.83697e-16
  outer loop
  vertex -9.47313e-16 2 -3.5
  vertex -8.81073e-16 2.5 -6
  vertex -7.63616e-16 2 -2.5
  endloop
 endfacet

 facet normal 1 0 2.6496e-17
  outer loop
  vertex -9.47313e-16 2 -3.5
  vertex -8.81073e-16 0 -6
  vertex -8.81073e-16 2.5 -6
  endloop
 endfacet

 facet normal 1 -4.94577e-16 -1.04213e-16
  outer loop
  vertex -8.81073e-16 2.5 -6
  vertex -2.55795e-16 2.5 -5.68434e-17
  vertex -7.63616e-16 2 -2.5
  endloop
 endfacet

 facet normal 1 0 -2.03128e-16
  outer loop
  vertex -7.63616e-16 2 -2.5
  vertex -2.55795e-16 2.5 -5.68434e-17
  vertex -2.55795e-16 0 -5.68434e-17
  endloop
 endfacet

 facet normal 1 1.2326e-17 -1.93268e-16
  outer loop
  vertex -7.63616e-16 2 -2.5
  vertex -2.55795e-16 0 -5.68434e-17
  vertex -7.38964e-16 0 -2.5
  endloop
 endfacet

 facet normal 1 1.89091e-17 1.13688e-17
  outer loop
  vertex -9.47313e-16 2 -3.5
  vertex -9.09495e-16 0 -3.5
  vertex -8.81073e-16 0 -6
  endloop
 endfacet

 facet normal 0 0 -1
  outer loop
  vertex 8 2.5 0
  vertex 10 2.5 0
  vertex 10 0 0
  endloop
 endfacet

 facet normal 0 0 -1
  outer loop
  vertex 8 2.5 0
  vertex 10 0 0
  vertex 8 0 0
  endloop
 endfacet

 facet normal -1 0 0
  outer loop
  vertex 10 2.5 -6
  vertex 10 0 -6
  vertex 10 1.9984 -3.5
  endloop
 endfacet

 facet normal -1 0 0
  outer loop
  vertex 10 0 0
  vertex 10 1.9984 -2.5
  vertex 10 0 -2.5
  endloop
 endfacet

 facet normal -1 0 0
  outer loop
  vertex 10 0 -6
  vertex 10 0 -3.5
  vertex 10 1.9984 -3.5
  endloop
 endfacet

 facet normal -1 0 0
  outer loop
  vertex 10 2.5 0
  vertex 10 2.5 -6
  vertex 10 1.9984 -3.5
  endloop
 endfacet

 facet normal -1 0 0
  outer loop
  vertex 10 0 0
  vertex 10 2.5 0
  vertex 10 1.9984 -2.5
  endloop
 endfacet

 facet normal -1 0 0
  outer loop
  vertex 10 2.5 0
  vertex 10 1.9984 -3.5
  vertex 10 1.9984 -2.5
  endloop
 endfacet

 facet normal 0 0 1
  outer loop
  vertex 3 2.5 -6
  vertex 10 0 -6
  vertex 10 2.5 -6
  endloop
 endfacet

 facet normal 0 0 1
  outer loop
  vertex 3 2.5 -6
  vertex 3 0 -6
  vertex 10 0 -6
  endloop
 endfacet

 facet normal 0 0 -1
  outer loop
  vertex -9.47313e-16 2 -3.5
  vertex 0.1 2 -3.5
  vertex 0.1 0 -3.5
  endloop
 endfacet

 facet normal 0 0 -1
  outer loop
  vertex 0.1 0 -3.5
  vertex -9.09495e-16 0 -3.5
  vertex -9.47313e-16 2 -3.5
  endloop
 endfacet

 facet normal 0 0 1
  outer loop
  vertex -7.63616e-16 2 -2.5
  vertex 0.1 0 -2.5
  vertex 0.1 2 -2.5
  endloop
 endfacet

 facet normal 0 0 1
  outer loop
  vertex 0.1 0 -2.5
  vertex -7.63616e-16 2 -2.5
  vertex -7.38964e-16 0 -2.5
  endloop
 endfacet

 facet normal 0 1 0
  outer loop
  vertex 0.1 2 -3.5
  vertex -7.63616e-16 2 -2.5
  vertex 0.1 2 -2.5
  endloop
 endfacet

 facet normal 0 1 0
  outer loop
  vertex 0.1 2 -3.5
  vertex -9.47313e-16 2 -3.5
  vertex -7.63616e-16 2 -2.5
  endloop
 endfacet

 facet normal 1 0 0
  outer loop
  vertex 0.1 2 -3.5
  vertex 0.1 2 -2.5
  vertex 0.1 0 -2.5
  endloop
 endfacet

 facet normal 1 0 0
  outer loop
  vertex 0.1 0 -2.5
  vertex 0.1 0 -3.5
  vertex 0.1 2 -3.5
  endloop
 endfacet

 facet normal 0 0 1
  outer loop
  vertex 10 0 -2.5
  vertex 10 1.9984 -2.5
  vertex 9.9 1.9984 -2.5
  endloop
 endfacet

 facet normal 0 0 1
  outer loop
  vertex 9.9 1.9984 -2.5
  vertex 9.9 0 -2.5
  vertex 10 0 -2.5
  endloop
 endfacet

 facet normal 0 0 -1
  outer loop
  vertex 10 0 -3.5
  vertex 9.9 0 -3.5
  vertex 9.9 1.9984 -3.5
  endloop
 endfacet

 facet normal 0 0 -1
  outer loop
  vertex 10 0 -3.5
  vertex 9.9 1.9984 -3.5
  vertex 10 1.9984 -3.5
  endloop
 endfacet

 facet normal 0 1 0
  outer loop
  vertex 10 1.9984 -3.5
  vertex 9.9 1.9984 -3.5
  vertex 9.9 1.9984 -2.5
  endloop
 endfacet

 facet normal 0 1 0
  outer loop
  vertex 9.9 1.9984 -2.5
  vertex 10 1.9984 -2.5
  vertex 10 1.9984 -3.5
  endloop
 endfacet

 facet normal -1 0 0
  outer loop
  vertex 9.9 1.9984 -2.5
  vertex 9.9 1.9984 -3.5
  vertex 9.9 0 -3.5
  endloop
 endfacet

 facet normal -1 0 0
  outer loop
  vertex 9.9 0 -3.5
  vertex 9.9 0 -2.5
  vertex 9.9 1.9984 -2.5
  endloop
 endfacet

 facet normal 0 0 -1
  outer loop
  vertex 5.5 2.5 -2.5
  vertex 3 0 -2.5
  vertex 3 2.5 -2.5
  endloop
 endfacet

 facet normal 0 0 -1
  outer loop
  vertex 3 0 -2.5
  vertex 5.5 2.5 -2.5
  vertex 5.5 0 -2.5
  endloop
 endfacet

 facet normal 1 0 0
  outer loop
  vertex 3 0 -2.5
  vertex 3 2.5 -6
  vertex 3 2.5 -2.5
  endloop
 endfacet

 facet normal 1 0 0
  outer loop
  vertex 3 0 -2.5
  vertex 3 0 -6
  vertex 3 2.5 -6
  endloop
 endfacet

 facet normal -1 0 0
  outer loop
  vertex 2 2.5 -6
  vertex 2 0 -1.5
  vertex 2 2.5 -1.5
  endloop
 endfacet

 facet normal -1 0 0
  outer loop
  vertex 2 0 -1.5
  vertex 2 2.5 -6
  vertex 2 0 -6
  endloop
 endfacet

 facet normal 0 0 1
  outer loop
  vertex 2 0 -1.5
  vertex 5.5 2.5 -1.5
  vertex 2 2.5 -1.5
  endloop
 endfacet

 facet normal 0 0 1
  outer loop
  vertex 2 0 -1.5
  vertex 5.5 0 -1.5
  vertex 5.5 2.5 -1.5
  endloop
 endfacet

 facet normal 1 0 0
  outer loop
  vertex 5.5 0 -2.5
  vertex 5.5 2.5 -2.5
  vertex 5.5 2.5 -1.5
  endloop
 endfacet

 facet normal 1 0 0
  outer loop
  vertex 5.5 2.5 -1.5
  vertex 5.5 0 -1.5
  vertex 5.5 0 -2.5
  endloop
 endfacet

 facet normal 1 0 0
  outer loop
  vertex 8 2.5 0
  vertex 8 0 -4.5
  vertex 8 2.5 -4.5
  endloop
 endfacet

 facet normal 1 0 0
  outer loop
  vertex 8 0 -4.5
  vertex 8 2.5 0
  vertex 8 0 0
  endloop
 endfacet

 facet normal 0 0 -1
  outer loop
  vertex 8 0 -4.5
  vertex 4.5 2.5 -4.5
  vertex 8 2.5 -4.5
  endloop
 endfacet

 facet normal 0 0 -1
  outer loop
  vertex 4.5 2.5 -4.5
  vertex 8 0 -4.5
  vertex 4.5 0 -4.5
  endloop
 endfacet

 facet normal -1 0 0
  outer loop
  vertex 4.5 0 -4.5
  vertex 4.5 2.5 -3.5
  vertex 4.5 2.5 -4.5
  endloop
 endfacet

 facet normal -1 0 0
  outer loop
  vertex 4.5 2.5 -3.5
  vertex 4.5 0 -4.5
  vertex 4.5 0 -3.5
  endloop
 endfacet

 facet normal 0 0 1
  outer loop
  vertex 4.5 2.5 -3.5
  vertex 7 0 -3.5
  vertex 7 2.5 -3.5
  endloop
 endfacet

 facet normal 0 0 1
  outer loop
  vertex 7 0 -3.5
  vertex 4.5 2.5 -3.5
  vertex 4.5 0 -3.5
  endloop
 endfacet

 facet normal -1 0 0
  outer loop
  vertex 7 0 -3.5
  vertex 7 2.5 0
  vertex 7 2.5 -3.5
  endloop
 endfacet

 facet normal -1 0 0
  outer loop
  vertex 7 0 -3.5
  vertex 7 0 0
  vertex 7 2.5 0
  endloop
 endfacet

endsolid AssimpScene
