solid AssimpScene
 facet normal 0 -1 0
  outer loop
  vertex 4 0 -4
  vertex 5 0 -4
  vertex 5 0 -2
  endloop
 endfacet

 facet normal 0 -1 0
  outer loop
  vertex 5 0 -2
  vertex 4 0 -2
  vertex 4 0 -4
  endloop
 endfacet

 facet normal 1 0 0
  outer loop
  vertex 5 0 -2
  vertex 5 0 -4
  vertex 5 2.5 -4
  endloop
 endfacet

 facet normal 1 0 0
  outer loop
  vertex 5 0 -2
  vertex 5 2.5 -4
  vertex 5 2.5 -2
  endloop
 endfacet

 facet normal 0 0 1
  outer loop
  vertex 5 0 -2
  vertex 5 2.5 -2
  vertex 4 2.5 -2
  endloop
 endfacet

 facet normal 0 0 1
  outer loop
  vertex 4 2.5 -2
  vertex 4 0 -2
  vertex 5 0 -2
  endloop
 endfacet

 facet normal -1 0 0
  outer loop
  vertex 4 2.5 -4
  vertex 4 0 -2
  vertex 4 2.5 -2
  endloop
 endfacet

 facet normal -1 0 0
  outer loop
  vertex 4 2.5 -4
  vertex 4 0 -4
  vertex 4 0 -2
  endloop
 endfacet

 facet normal 0 0 -1
  outer loop
  vertex 5 0 -4
  vertex 4 2.5 -4
  vertex 5 2.5 -4
  endloop
 endfacet

 facet normal 0 0 -1
  outer loop
  vertex 4 2.5 -4
  vertex 5 0 -4
  vertex 4 0 -4
  endloop
 endfacet

 facet normal 0 1 0
  outer loop
  vertex 5 2.5 -2
  vertex 5 2.5 -4
  vertex 4 2.5 -4
  endloop
 endfacet

 facet normal 0 1 0
  outer loop
  vertex 5 2.5 -2
  vertex 4 2.5 -4
  vertex 4 2.5 -2
  endloop
 endfacet

endsolid AssimpScene
