solid Onshape
  facet normal -1 0 0
    outer loop
      vertex -7.87402 -46.4975 -199.597
      vertex -7.87402 205.471 -199.597
      vertex -7.87402 -46.4975 -298.022
    endloop
  endfacet
  facet normal -1 0 0
    outer loop
      vertex -7.87402 205.471 -199.597
      vertex -7.87402 205.471 -298.022
      vertex -7.87402 -46.4975 -298.022
    endloop
  endfacet
  facet normal 0 0 1
    outer loop
      vertex -7.87402 205.471 -199.597
      vertex -7.87402 -46.4975 -199.597
      vertex -2.90931e-14 99.1718 -199.597
    endloop
  endfacet
  facet normal 0 0 1
    outer loop
      vertex -7.87402 -46.4975 -199.597
      vertex -3.58069e-14 59.8017 -199.597
      vertex -2.90931e-14 99.1718 -199.597
    endloop
  endfacet
  facet normal 0 0 1
    outer loop
      vertex -2.90931e-14 99.1718 -199.597
      vertex -3.58069e-14 59.8017 -199.597
      vertex 3.93701 99.1718 -199.597
    endloop
  endfacet
  facet normal 0 0 1
    outer loop
      vertex -3.58069e-14 59.8017 -199.597
      vertex 3.93701 59.8017 -199.597
      vertex 3.93701 99.1718 -199.597
    endloop
  endfacet
  facet normal 0 0 1
    outer loop
      vertex 401.575 205.471 -199.597
      vertex -7.87402 205.471 -199.597
      vertex 275.591 197.597 -199.597
    endloop
  endfacet
  facet normal 0 0 1
    outer loop
      vertex -7.87402 205.471 -199.597
      vertex -1.00707e-14 197.597 -199.597
      vertex 275.591 197.597 -199.597
    endloop
  endfacet
  facet normal 0 1 0
    outer loop
      vertex -7.87402 205.471 -199.597
      vertex 401.575 205.471 -199.597
      vertex -7.87402 205.471 -298.022
    endloop
  endfacet
  facet normal 0 1 0
    outer loop
      vertex 401.575 205.471 -199.597
      vertex 401.575 205.471 -298.022
      vertex -7.87402 205.471 -298.022
    endloop
  endfacet
  facet normal 0 0 -1
    outer loop
      vertex -7.87402 -46.4975 -298.022
      vertex -7.87402 205.471 -298.022
      vertex -1.00707e-14 197.597 -298.022
    endloop
  endfacet
  facet normal 0 0 -1
    outer loop
      vertex -7.87402 205.471 -298.022
      vertex 275.591 197.597 -298.022
      vertex -1.00707e-14 197.597 -298.022
    endloop
  endfacet
  facet normal 0 0 -1
    outer loop
      vertex 401.575 -46.4975 -298.022
      vertex -7.87402 -46.4975 -298.022
      vertex 118.11 -38.6235 -298.022
    endloop
  endfacet
  facet normal 0 0 -1
    outer loop
      vertex -7.87402 -46.4975 -298.022
      vertex 78.7402 -38.6235 -298.022
      vertex 118.11 -38.6235 -298.022
    endloop
  endfacet
  facet normal 0 0 -1
    outer loop
      vertex 118.11 -38.6235 -298.022
      vertex 78.7402 -38.6235 -298.022
      vertex 118.11 99.1718 -298.022
    endloop
  endfacet
  facet normal 0 0 -1
    outer loop
      vertex 78.7402 -38.6235 -298.022
      vertex 78.7402 138.542 -298.022
      vertex 118.11 99.1718 -298.022
    endloop
  endfacet
  facet normal 0 0 -1
    outer loop
      vertex 118.11 99.1718 -298.022
      vertex 78.7402 138.542 -298.022
      vertex 216.535 138.542 -298.022
    endloop
  endfacet
  facet normal 0 -1 0
    outer loop
      vertex -7.87402 -46.4975 -298.022
      vertex 401.575 -46.4975 -298.022
      vertex 401.575 -46.4975 -199.597
    endloop
  endfacet
  facet normal 0 -1 0
    outer loop
      vertex -7.87402 -46.4975 -199.597
      vertex -7.87402 -46.4975 -298.022
      vertex 401.575 -46.4975 -199.597
    endloop
  endfacet
  facet normal 0 0 1
    outer loop
      vertex -7.87402 -46.4975 -199.597
      vertex 401.575 -46.4975 -199.597
      vertex 118.11 -38.6235 -199.597
    endloop
  endfacet
  facet normal 0 0 1
    outer loop
      vertex 401.575 -46.4975 -199.597
      vertex 393.701 -38.6235 -199.597
      vertex 118.11 -38.6235 -199.597
    endloop
  endfacet
  facet normal 0 1 0
    outer loop
      vertex -2.90931e-14 99.1718 -199.597
      vertex 3.93701 99.1718 -199.597
      vertex -3.00636e-14 99.1718 -278.337
    endloop
  endfacet
  facet normal 0 1 0
    outer loop
      vertex 3.93701 99.1718 -199.597
      vertex 3.93701 99.1718 -278.337
      vertex -3.00636e-14 99.1718 -278.337
    endloop
  endfacet
  facet normal 1 -1.93268e-16 -1.2326e-17
    outer loop
      vertex -2.90931e-14 99.1718 -199.597
      vertex -3.00636e-14 99.1718 -278.337
      vertex -1.00707e-14 197.597 -199.597
    endloop
  endfacet
  facet normal 1 -2.03128e-16 0
    outer loop
      vertex -3.00636e-14 99.1718 -278.337
      vertex -1.00707e-14 197.597 -298.022
      vertex -1.00707e-14 197.597 -199.597
    endloop
  endfacet
  facet normal 0 0 1
    outer loop
      vertex -2.90931e-14 99.1718 -199.597
      vertex -1.00707e-14 197.597 -199.597
      vertex -7.87402 205.471 -199.597
    endloop
  endfacet
  facet normal 1 0 0
    outer loop
      vertex 401.575 -46.4975 -199.597
      vertex 401.575 -46.4975 -298.022
      vertex 401.575 205.471 -298.022
    endloop
  endfacet
  facet normal 1 0 0
    outer loop
      vertex 401.575 205.471 -199.597
      vertex 401.575 -46.4975 -199.597
      vertex 401.575 205.471 -298.022
    endloop
  endfacet
  facet normal 0 0 1
    outer loop
      vertex 401.575 -46.4975 -199.597
      vertex 401.575 205.471 -199.597
      vertex 393.701 59.8017 -199.597
    endloop
  endfacet
  facet normal 0 0 1
    outer loop
      vertex 401.575 205.471 -199.597
      vertex 393.701 99.1718 -199.597
      vertex 393.701 59.8017 -199.597
    endloop
  endfacet
  facet normal 0 0 1
    outer loop
      vertex 393.701 59.8017 -199.597
      vertex 393.701 99.1718 -199.597
      vertex 389.764 59.8017 -199.597
    endloop
  endfacet
  facet normal 0 0 1
    outer loop
      vertex 393.701 99.1718 -199.597
      vertex 389.764 99.1718 -199.597
      vertex 389.764 59.8017 -199.597
    endloop
  endfacet
  facet normal 0 0 1
    outer loop
      vertex 78.7402 -38.6235 -199.597
      vertex -3.46879e-14 -38.6235 -199.597
      vertex -7.87402 -46.4975 -199.597
    endloop
  endfacet
  facet normal 0 0 1
    outer loop
      vertex -3.46879e-14 -38.6235 -199.597
      vertex -3.58069e-14 59.8017 -199.597
      vertex -7.87402 -46.4975 -199.597
    endloop
  endfacet
  facet normal 0 1 0
    outer loop
      vertex -3.46879e-14 -38.6235 -199.597
      vertex 78.7402 -38.6235 -199.597
      vertex -3.46879e-14 -38.6235 -298.022
    endloop
  endfacet
  facet normal 0 1 0
    outer loop
      vertex 78.7402 -38.6235 -199.597
      vertex 78.7402 -38.6235 -298.022
      vertex -3.46879e-14 -38.6235 -298.022
    endloop
  endfacet
  facet normal 1 2.6496e-17 0
    outer loop
      vertex -3.46879e-14 -38.6235 -199.597
      vertex -3.46879e-14 -38.6235 -298.022
      vertex -3.72958e-14 59.8017 -278.337
    endloop
  endfacet
  facet normal 1 -1.83697e-16 1.05096e-15
    outer loop
      vertex -3.46879e-14 -38.6235 -298.022
      vertex -3.00636e-14 99.1718 -278.337
      vertex -3.72958e-14 59.8017 -278.337
    endloop
  endfacet
  facet normal 1 1.13688e-17 -1.8909e-17
    outer loop
      vertex -3.58069e-14 59.8017 -199.597
      vertex -3.46879e-14 -38.6235 -199.597
      vertex -3.72958e-14 59.8017 -278.337
    endloop
  endfacet
  facet normal 0 -1 0
    outer loop
      vertex -3.58069e-14 59.8017 -199.597
      vertex -3.72958e-14 59.8017 -278.337
      vertex 3.93701 59.8017 -199.597
    endloop
  endfacet
  facet normal 0 -1 0
    outer loop
      vertex -3.72958e-14 59.8017 -278.337
      vertex 3.93701 59.8017 -278.337
      vertex 3.93701 59.8017 -199.597
    endloop
  endfacet
  facet normal 0 0 1
    outer loop
      vertex 78.7402 138.542 -199.597
      vertex 78.7402 -38.6235 -199.597
      vertex 118.11 99.1718 -199.597
    endloop
  endfacet
  facet normal 0 0 1
    outer loop
      vertex 78.7402 -38.6235 -199.597
      vertex 118.11 -38.6235 -199.597
      vertex 118.11 99.1718 -199.597
    endloop
  endfacet
  facet normal -1 0 0
    outer loop
      vertex 78.7402 -38.6235 -199.597
      vertex 78.7402 138.542 -199.597
      vertex 78.7402 -38.6235 -298.022
    endloop
  endfacet
  facet normal -1 0 0
    outer loop
      vertex 78.7402 138.542 -199.597
      vertex 78.7402 138.542 -298.022
      vertex 78.7402 -38.6235 -298.022
    endloop
  endfacet
  facet normal 0 1 0
    outer loop
      vertex 118.11 -38.6235 -199.597
      vertex 393.701 -38.6235 -199.597
      vertex 118.11 -38.6235 -298.022
    endloop
  endfacet
  facet normal 0 1 0
    outer loop
      vertex 393.701 -38.6235 -199.597
      vertex 393.701 -38.6235 -298.022
      vertex 118.11 -38.6235 -298.022
    endloop
  endfacet
  facet normal 1 0 0
    outer loop
      vertex 118.11 -38.6235 -199.597
      vertex 118.11 -38.6235 -298.022
      vertex 118.11 99.1718 -199.597
    endloop
  endfacet
  facet normal 1 0 0
    outer loop
      vertex 118.11 -38.6235 -298.022
      vertex 118.11 99.1718 -298.022
      vertex 118.11 99.1718 -199.597
    endloop
  endfacet
  facet normal 0 0 -1
    outer loop
      vertex -7.87402 205.471 -298.022
      vertex 401.575 205.471 -298.022
      vertex 275.591 197.597 -298.022
    endloop
  endfacet
  facet normal 0 0 -1
    outer loop
      vertex 401.575 205.471 -298.022
      vertex 314.961 197.597 -298.022
      vertex 275.591 197.597 -298.022
    endloop
  endfacet
  facet normal 0 0 -1
    outer loop
      vertex 275.591 197.597 -298.022
      vertex 314.961 197.597 -298.022
      vertex 275.591 59.8017 -298.022
    endloop
  endfacet
  facet normal 0 0 -1
    outer loop
      vertex 314.961 197.597 -298.022
      vertex 314.961 20.4316 -298.022
      vertex 275.591 59.8017 -298.022
    endloop
  endfacet
  facet normal 0 0 -1
    outer loop
      vertex 275.591 59.8017 -298.022
      vertex 314.961 20.4316 -298.022
      vertex 177.165 20.4316 -298.022
    endloop
  endfacet
  facet normal 0 -1 0
    outer loop
      vertex -1.00707e-14 197.597 -199.597
      vertex -1.00707e-14 197.597 -298.022
      vertex 275.591 197.597 -199.597
    endloop
  endfacet
  facet normal 0 -1 0
    outer loop
      vertex -1.00707e-14 197.597 -298.022
      vertex 275.591 197.597 -298.022
      vertex 275.591 197.597 -199.597
    endloop
  endfacet
  facet normal -1 0 0
    outer loop
      vertex 275.591 197.597 -199.597
      vertex 275.591 197.597 -298.022
      vertex 275.591 59.8017 -199.597
    endloop
  endfacet
  facet normal -1 0 0
    outer loop
      vertex 275.591 197.597 -298.022
      vertex 275.591 59.8017 -298.022
      vertex 275.591 59.8017 -199.597
    endloop
  endfacet
  facet normal 0 0 1
    outer loop
      vertex 275.591 197.597 -199.597
      vertex 275.591 59.8017 -199.597
      vertex 314.961 197.597 -199.597
    endloop
  endfacet
  facet normal 0 0 1
    outer loop
      vertex 275.591 59.8017 -199.597
      vertex 314.961 20.4316 -199.597
      vertex 314.961 197.597 -199.597
    endloop
  endfacet
  facet normal 1 -1.04213e-16 4.94577e-16
    outer loop
      vertex -3.46879e-14 -38.6235 -298.022
      vertex -1.00707e-14 197.597 -298.022
      vertex -3.00636e-14 99.1718 -278.337
    endloop
  endfacet
  facet normal 0 0 -1
    outer loop
      vertex -1.00707e-14 197.597 -298.022
      vertex -3.46879e-14 -38.6235 -298.022
      vertex -7.87402 -46.4975 -298.022
    endloop
  endfacet
  facet normal 0 0 -1
    outer loop
      vertex -3.46879e-14 -38.6235 -298.022
      vertex 78.7402 -38.6235 -298.022
      vertex -7.87402 -46.4975 -298.022
    endloop
  endfacet
  facet normal 0 0 -1
    outer loop
      vertex 118.11 -38.6235 -298.022
      vertex 393.701 -38.6235 -298.022
      vertex 401.575 -46.4975 -298.022
    endloop
  endfacet
  facet normal 0 0 -1
    outer loop
      vertex 393.701 -38.6235 -298.022
      vertex 401.575 205.471 -298.022
      vertex 401.575 -46.4975 -298.022
    endloop
  endfacet
  facet normal 0 0 -1
    outer loop
      vertex -3.72958e-14 59.8017 -278.337
      vertex -3.00636e-14 99.1718 -278.337
      vertex 3.93701 59.8017 -278.337
    endloop
  endfacet
  facet normal 0 0 -1
    outer loop
      vertex -3.00636e-14 99.1718 -278.337
      vertex 3.93701 99.1718 -278.337
      vertex 3.93701 59.8017 -278.337
    endloop
  endfacet
  facet normal 1 0 0
    outer loop
      vertex 3.93701 99.1718 -199.597
      vertex 3.93701 59.8017 -199.597
      vertex 3.93701 59.8017 -278.337
    endloop
  endfacet
  facet normal 1 0 0
    outer loop
      vertex 3.93701 99.1718 -278.337
      vertex 3.93701 99.1718 -199.597
      vertex 3.93701 59.8017 -278.337
    endloop
  endfacet
  facet normal 0 0 1
    outer loop
      vertex 216.535 138.542 -199.597
      vertex 78.7402 138.542 -199.597
      vertex 118.11 99.1718 -199.597
    endloop
  endfacet
  facet normal 0 1 0
    outer loop
      vertex 78.7402 138.542 -199.597
      vertex 216.535 138.542 -199.597
      vertex 216.535 138.542 -298.022
    endloop
  endfacet
  facet normal 0 1 0
    outer loop
      vertex 78.7402 138.542 -298.022
      vertex 78.7402 138.542 -199.597
      vertex 216.535 138.542 -298.022
    endloop
  endfacet
  facet normal 0 -1 0
    outer loop
      vertex 118.11 99.1718 -199.597
      vertex 118.11 99.1718 -298.022
      vertex 216.535 99.1718 -298.022
    endloop
  endfacet
  facet normal 0 -1 0
    outer loop
      vertex 216.535 99.1718 -199.597
      vertex 118.11 99.1718 -199.597
      vertex 216.535 99.1718 -298.022
    endloop
  endfacet
  facet normal 0 0 1
    outer loop
      vertex 118.11 99.1718 -199.597
      vertex 216.535 99.1718 -199.597
      vertex 216.535 138.542 -199.597
    endloop
  endfacet
  facet normal 1 0 0
    outer loop
      vertex 216.535 138.542 -298.022
      vertex 216.535 138.542 -199.597
      vertex 216.535 99.1718 -199.597
    endloop
  endfacet
  facet normal 1 0 0
    outer loop
      vertex 216.535 99.1718 -298.022
      vertex 216.535 138.542 -298.022
      vertex 216.535 99.1718 -199.597
    endloop
  endfacet
  facet normal 0 0 -1
    outer loop
      vertex 216.535 138.542 -298.022
      vertex 216.535 99.1718 -298.022
      vertex 118.11 99.1718 -298.022
    endloop
  endfacet
  facet normal 0 0 1
    outer loop
      vertex 393.701 59.8017 -199.597
      vertex 393.701 -38.6235 -199.597
      vertex 401.575 -46.4975 -199.597
    endloop
  endfacet
  facet normal -1 0 0
    outer loop
      vertex 393.701 -38.6235 -199.597
      vertex 393.701 59.8017 -199.597
      vertex 393.701 59.8017 -278.274
    endloop
  endfacet
  facet normal -1 0 0
    outer loop
      vertex 393.701 -38.6235 -298.022
      vertex 393.701 -38.6235 -199.597
      vertex 393.701 59.8017 -278.274
    endloop
  endfacet
  facet normal -1 0 0
    outer loop
      vertex 393.701 197.597 -298.022
      vertex 393.701 -38.6235 -298.022
      vertex 393.701 59.8017 -278.274
    endloop
  endfacet
  facet normal 0 0 -1
    outer loop
      vertex 393.701 -38.6235 -298.022
      vertex 393.701 197.597 -298.022
      vertex 401.575 205.471 -298.022
    endloop
  endfacet
  facet normal 0 0 -1
    outer loop
      vertex 393.701 197.597 -298.022
      vertex 314.961 197.597 -298.022
      vertex 401.575 205.471 -298.022
    endloop
  endfacet
  facet normal -1 0 0
    outer loop
      vertex 177.165 59.8017 -199.597
      vertex 177.165 59.8017 -298.022
      vertex 177.165 20.4316 -199.597
    endloop
  endfacet
  facet normal -1 0 0
    outer loop
      vertex 177.165 59.8017 -298.022
      vertex 177.165 20.4316 -298.022
      vertex 177.165 20.4316 -199.597
    endloop
  endfacet
  facet normal 0 1 0
    outer loop
      vertex 177.165 59.8017 -298.022
      vertex 177.165 59.8017 -199.597
      vertex 275.591 59.8017 -199.597
    endloop
  endfacet
  facet normal 0 1 0
    outer loop
      vertex 275.591 59.8017 -298.022
      vertex 177.165 59.8017 -298.022
      vertex 275.591 59.8017 -199.597
    endloop
  endfacet
  facet normal 0 0 -1
    outer loop
      vertex 177.165 59.8017 -298.022
      vertex 275.591 59.8017 -298.022
      vertex 177.165 20.4316 -298.022
    endloop
  endfacet
  facet normal 0 -1 0
    outer loop
      vertex 177.165 20.4316 -199.597
      vertex 177.165 20.4316 -298.022
      vertex 314.961 20.4316 -199.597
    endloop
  endfacet
  facet normal 0 -1 0
    outer loop
      vertex 177.165 20.4316 -298.022
      vertex 314.961 20.4316 -298.022
      vertex 314.961 20.4316 -199.597
    endloop
  endfacet
  facet normal 0 0 1
    outer loop
      vertex 177.165 20.4316 -199.597
      vertex 314.961 20.4316 -199.597
      vertex 275.591 59.8017 -199.597
    endloop
  endfacet
  facet normal 0 0 1
    outer loop
      vertex 177.165 59.8017 -199.597
      vertex 177.165 20.4316 -199.597
      vertex 275.591 59.8017 -199.597
    endloop
  endfacet
  facet normal 1 0 0
    outer loop
      vertex 314.961 20.4316 -199.597
      vertex 314.961 20.4316 -298.022
      vertex 314.961 197.597 -298.022
    endloop
  endfacet
  facet normal 1 0 0
    outer loop
      vertex 314.961 197.597 -199.597
      vertex 314.961 20.4316 -199.597
      vertex 314.961 197.597 -298.022
    endloop
  endfacet
  facet normal 0 -1 0
    outer loop
      vertex 314.961 197.597 -199.597
      vertex 314.961 197.597 -298.022
      vertex 393.701 197.597 -199.597
    endloop
  endfacet
  facet normal 0 -1 0
    outer loop
      vertex 314.961 197.597 -298.022
      vertex 393.701 197.597 -298.022
      vertex 393.701 197.597 -199.597
    endloop
  endfacet
  facet normal 0 0 1
    outer loop
      vertex 314.961 197.597 -199.597
      vertex 393.701 197.597 -199.597
      vertex 401.575 205.471 -199.597
    endloop
  endfacet
  facet normal 0 0 1
    outer loop
      vertex 393.701 197.597 -199.597
      vertex 393.701 99.1718 -199.597
      vertex 401.575 205.471 -199.597
    endloop
  endfacet
  facet normal -1 0 0
    outer loop
      vertex 393.701 197.597 -199.597
      vertex 393.701 197.597 -298.022
      vertex 393.701 99.1718 -278.274
    endloop
  endfacet
  facet normal -1 0 0
    outer loop
      vertex 393.701 197.597 -298.022
      vertex 393.701 59.8017 -278.274
      vertex 393.701 99.1718 -278.274
    endloop
  endfacet
  facet normal -1 0 0
    outer loop
      vertex 393.701 99.1718 -199.597
      vertex 393.701 197.597 -199.597
      vertex 393.701 99.1718 -278.274
    endloop
  endfacet
  facet normal -1 0 0
    outer loop
      vertex 389.764 59.8017 -278.274
      vertex 389.764 59.8017 -199.597
      vertex 389.764 99.1718 -278.274
    endloop
  endfacet
  facet normal -1 0 0
    outer loop
      vertex 389.764 59.8017 -199.597
      vertex 389.764 99.1718 -199.597
      vertex 389.764 99.1718 -278.274
    endloop
  endfacet
  facet normal 0 -1 0
    outer loop
      vertex 389.764 59.8017 -199.597
      vertex 389.764 59.8017 -278.274
      vertex 393.701 59.8017 -199.597
    endloop
  endfacet
  facet normal 0 -1 0
    outer loop
      vertex 389.764 59.8017 -278.274
      vertex 393.701 59.8017 -278.274
      vertex 393.701 59.8017 -199.597
    endloop
  endfacet
  facet normal 0 1 0
    outer loop
      vertex 389.764 99.1718 -199.597
      vertex 393.701 99.1718 -199.597
      vertex 389.764 99.1718 -278.274
    endloop
  endfacet
  facet normal 0 1 0
    outer loop
      vertex 393.701 99.1718 -199.597
      vertex 393.701 99.1718 -278.274
      vertex 389.764 99.1718 -278.274
    endloop
  endfacet
  facet normal 0 0 -1
    outer loop
      vertex 389.764 99.1718 -278.274
      vertex 393.701 99.1718 -278.274
      vertex 393.701 59.8017 -278.274
    endloop
  endfacet
  facet normal 0 0 -1
    outer loop
      vertex 389.764 59.8017 -278.274
      vertex 389.764 99.1718 -278.274
      vertex 393.701 59.8017 -278.274
    endloop
  endfacet
  facet normal 0 0 1
    outer loop
      vertex 78.7402 -38.6235 -199.597
      vertex -7.87402 -46.4975 -199.597
      vertex 118.11 -38.6235 -199.597
    endloop
  endfacet
  facet normal 0 0 1
    outer loop
      vertex 401.575 205.471 -199.597
      vertex 275.591 197.597 -199.597
      vertex 314.961 197.597 -199.597
    endloop
  endfacet
endsolid Onshape
