solid Onshape
  facet normal 0 0 -1
    outer loop
      vertex -3.05166 1.24937 0
      vertex -3.05166 2.60701 0
      vertex 0 1.24937 0
    endloop
  endfacet
  facet normal 0 0 -1
    outer loop
      vertex -3.05166 2.60701 0
      vertex 2.60092 2.60701 0
      vertex 0 1.24937 0
    endloop
  endfacet
  facet normal 0 0 -1
    outer loop
      vertex 0 1.24937 0
      vertex 2.60092 2.60701 0
      vertex 0 0.62915 0
    endloop
  endfacet
  facet normal 0 0 -1
    outer loop
      vertex 2.60092 2.60701 0
      vertex 2.60092 0 0
      vertex 0 0.62915 0
    endloop
  endfacet
  facet normal 0 0 -1
    outer loop
      vertex 0 0.62915 0
      vertex 2.60092 0 0
      vertex -0.750497 0 0
    endloop
  endfacet
  facet normal 0 0 -1
    outer loop
      vertex -3.05166 -3.68526 0
      vertex -3.05166 -2.07571 0
      vertex 2.60092 -3.68526 0
    endloop
  endfacet
  facet normal 0 0 -1
    outer loop
      vertex -3.05166 -2.07571 0
      vertex 0 -2.07571 0
      vertex 2.60092 -3.68526 0
    endloop
  endfacet
  facet normal 0 0 -1
    outer loop
      vertex 2.60092 -3.68526 0
      vertex 0 -2.07571 0
      vertex 2.60092 -0.749122 0
    endloop
  endfacet
  facet normal 0 0 -1
    outer loop
      vertex 0 -2.07571 0
      vertex 0 -1.3866 0
      vertex 2.60092 -0.749122 0
    endloop
  endfacet
  facet normal 0 0 -1
    outer loop
      vertex 2.60092 -0.749122 0
      vertex 0 -1.3866 0
      vertex -0.750497 -0.749122 0
    endloop
  endfacet
  facet normal 0 0 -1
    outer loop
      vertex 0 -1.3866 0
      vertex -3.05166 -1.3866 0
      vertex -0.750497 -0.749122 0
    endloop
  endfacet
  facet normal 0 0 -1
    outer loop
      vertex -0.750497 -0.749122 0
      vertex -3.05166 -1.3866 0
      vertex -0.750497 0 0
    endloop
  endfacet
  facet normal 0 0 -1
    outer loop
      vertex -3.05166 -1.3866 0
      vertex -3.05166 0.62915 0
      vertex -0.750497 0 0
    endloop
  endfacet
  facet normal 0 0 -1
    outer loop
      vertex -0.750497 0 0
      vertex -3.05166 0.62915 0
      vertex 0 0.62915 0
    endloop
  endfacet
  facet normal 0 0 1
    outer loop
      vertex -3.05166 -2.07571 1.9685
      vertex -3.05166 -3.68526 1.9685
      vertex 0 -2.07571 1.9685
    endloop
  endfacet
  facet normal 0 0 1
    outer loop
      vertex -3.05166 -3.68526 1.9685
      vertex 2.60092 -3.68526 1.9685
      vertex 0 -2.07571 1.9685
    endloop
  endfacet
  facet normal 0 0 1
    outer loop
      vertex 0 -2.07571 1.9685
      vertex 2.60092 -3.68526 1.9685
      vertex 0 -1.3866 1.9685
    endloop
  endfacet
  facet normal 0 0 1
    outer loop
      vertex 2.60092 -3.68526 1.9685
      vertex 2.60092 -0.749122 1.9685
      vertex 0 -1.3866 1.9685
    endloop
  endfacet
  facet normal 0 0 1
    outer loop
      vertex 0 -1.3866 1.9685
      vertex 2.60092 -0.749122 1.9685
      vertex -0.750497 -0.749122 1.9685
    endloop
  endfacet
  facet normal 0 0 1
    outer loop
      vertex -3.05166 2.60701 1.9685
      vertex -3.05166 1.24937 1.9685
      vertex 2.60092 2.60701 1.9685
    endloop
  endfacet
  facet normal 0 0 1
    outer loop
      vertex -3.05166 1.24937 1.9685
      vertex 0 1.24937 1.9685
      vertex 2.60092 2.60701 1.9685
    endloop
  endfacet
  facet normal 0 0 1
    outer loop
      vertex 2.60092 2.60701 1.9685
      vertex 0 1.24937 1.9685
      vertex 2.60092 0 1.9685
    endloop
  endfacet
  facet normal 0 0 1
    outer loop
      vertex 0 1.24937 1.9685
      vertex 0 0.62915 1.9685
      vertex 2.60092 0 1.9685
    endloop
  endfacet
  facet normal 0 0 1
    outer loop
      vertex 2.60092 0 1.9685
      vertex 0 0.62915 1.9685
      vertex -0.750497 0 1.9685
    endloop
  endfacet
  facet normal 0 0 1
    outer loop
      vertex 0 0.62915 1.9685
      vertex -3.05166 0.62915 1.9685
      vertex -0.750497 0 1.9685
    endloop
  endfacet
  facet normal 0 0 1
    outer loop
      vertex -0.750497 0 1.9685
      vertex -3.05166 0.62915 1.9685
      vertex -0.750497 -0.749122 1.9685
    endloop
  endfacet
  facet normal 0 0 1
    outer loop
      vertex -3.05166 0.62915 1.9685
      vertex -3.05166 -1.3866 1.9685
      vertex -0.750497 -0.749122 1.9685
    endloop
  endfacet
  facet normal 0 0 1
    outer loop
      vertex -0.750497 -0.749122 1.9685
      vertex -3.05166 -1.3866 1.9685
      vertex 0 -1.3866 1.9685
    endloop
  endfacet
  facet normal -1 0 0
    outer loop
      vertex 0 0.62915 1.9685
      vertex 0 1.24937 1.9685
      vertex 0 0.62915 0
    endloop
  endfacet
  facet normal -1 0 0
    outer loop
      vertex 0 1.24937 1.9685
      vertex 0 1.24937 0
      vertex 0 0.62915 0
    endloop
  endfacet
  facet normal 0 -1 0
    outer loop
      vertex 0 1.24937 1.9685
      vertex -3.05166 1.24937 1.9685
      vertex 0 1.24937 0
    endloop
  endfacet
  facet normal 0 -1 0
    outer loop
      vertex -3.05166 1.24937 1.9685
      vertex -3.05166 1.24937 0
      vertex 0 1.24937 0
    endloop
  endfacet
  facet normal -1 0 0
    outer loop
      vertex -3.05166 1.24937 1.9685
      vertex -3.05166 2.60701 1.9685
      vertex -3.05166 1.24937 0
    endloop
  endfacet
  facet normal -1 0 0
    outer loop
      vertex -3.05166 2.60701 1.9685
      vertex -3.05166 2.60701 0
      vertex -3.05166 1.24937 0
    endloop
  endfacet
  facet normal 0 1 0
    outer loop
      vertex -3.05166 2.60701 1.9685
      vertex 2.60092 2.60701 1.9685
      vertex -3.05166 2.60701 0
    endloop
  endfacet
  facet normal 0 1 0
    outer loop
      vertex 2.60092 2.60701 1.9685
      vertex 2.60092 2.60701 0
      vertex -3.05166 2.60701 0
    endloop
  endfacet
  facet normal -1 0 0
    outer loop
      vertex 0 -2.07571 1.9685
      vertex 0 -1.3866 1.9685
      vertex 0 -2.07571 0
    endloop
  endfacet
  facet normal -1 0 0
    outer loop
      vertex 0 -1.3866 1.9685
      vertex 0 -1.3866 0
      vertex 0 -2.07571 0
    endloop
  endfacet
  facet normal 0 -1 0
    outer loop
      vertex 2.60092 0 1.9685
      vertex -0.750497 0 1.9685
      vertex 2.60092 0 0
    endloop
  endfacet
  facet normal 0 -1 0
    outer loop
      vertex -0.750497 0 1.9685
      vertex -0.750497 0 0
      vertex 2.60092 0 0
    endloop
  endfacet
  facet normal 1 0 0
    outer loop
      vertex 2.60092 2.60701 1.9685
      vertex 2.60092 0 1.9685
      vertex 2.60092 2.60701 0
    endloop
  endfacet
  facet normal 1 0 0
    outer loop
      vertex 2.60092 0 1.9685
      vertex 2.60092 0 0
      vertex 2.60092 2.60701 0
    endloop
  endfacet
  facet normal 0 1 0
    outer loop
      vertex -3.05166 0.62915 1.9685
      vertex 0 0.62915 1.9685
      vertex -3.05166 0.62915 0
    endloop
  endfacet
  facet normal 0 1 0
    outer loop
      vertex 0 0.62915 1.9685
      vertex 0 0.62915 0
      vertex -3.05166 0.62915 0
    endloop
  endfacet
  facet normal -1 0 0
    outer loop
      vertex -3.05166 -1.3866 1.9685
      vertex -3.05166 0.62915 1.9685
      vertex -3.05166 -1.3866 0
    endloop
  endfacet
  facet normal -1 0 0
    outer loop
      vertex -3.05166 0.62915 1.9685
      vertex -3.05166 0.62915 0
      vertex -3.05166 -1.3866 0
    endloop
  endfacet
  facet normal 0 -1 0
    outer loop
      vertex 0 -1.3866 1.9685
      vertex -3.05166 -1.3866 1.9685
      vertex 0 -1.3866 0
    endloop
  endfacet
  facet normal 0 -1 0
    outer loop
      vertex -3.05166 -1.3866 1.9685
      vertex -3.05166 -1.3866 0
      vertex 0 -1.3866 0
    endloop
  endfacet
  facet normal 0 1 0
    outer loop
      vertex -3.05166 -2.07571 1.9685
      vertex 0 -2.07571 1.9685
      vertex -3.05166 -2.07571 0
    endloop
  endfacet
  facet normal 0 1 0
    outer loop
      vertex 0 -2.07571 1.9685
      vertex 0 -2.07571 0
      vertex -3.05166 -2.07571 0
    endloop
  endfacet
  facet normal -1 0 0
    outer loop
      vertex -3.05166 -3.68526 1.9685
      vertex -3.05166 -2.07571 1.9685
      vertex -3.05166 -3.68526 0
    endloop
  endfacet
  facet normal -1 0 0
    outer loop
      vertex -3.05166 -2.07571 1.9685
      vertex -3.05166 -2.07571 0
      vertex -3.05166 -3.68526 0
    endloop
  endfacet
  facet normal 0 -1 0
    outer loop
      vertex 2.60092 -3.68526 1.9685
      vertex -3.05166 -3.68526 1.9685
      vertex 2.60092 -3.68526 0
    endloop
  endfacet
  facet normal 0 -1 0
    outer loop
      vertex -3.05166 -3.68526 1.9685
      vertex -3.05166 -3.68526 0
      vertex 2.60092 -3.68526 0
    endloop
  endfacet
  facet normal 1 0 0
    outer loop
      vertex 2.60092 -0.749122 1.9685
      vertex 2.60092 -3.68526 1.9685
      vertex 2.60092 -0.749122 0
    endloop
  endfacet
  facet normal 1 0 0
    outer loop
      vertex 2.60092 -3.68526 1.9685
      vertex 2.60092 -3.68526 0
      vertex 2.60092 -0.749122 0
    endloop
  endfacet
  facet normal 0 1 0
    outer loop
      vertex -0.750497 -0.749122 1.9685
      vertex 2.60092 -0.749122 1.9685
      vertex -0.750497 -0.749122 0
    endloop
  endfacet
  facet normal 0 1 0
    outer loop
      vertex 2.60092 -0.749122 1.9685
      vertex 2.60092 -0.749122 0
      vertex -0.750497 -0.749122 0
    endloop
  endfacet
  facet normal 1 0 0
    outer loop
      vertex -0.750497 0 1.9685
      vertex -0.750497 -0.749122 1.9685
      vertex -0.750497 0 0
    endloop
  endfacet
  facet normal 1 0 0
    outer loop
      vertex -0.750497 -0.749122 1.9685
      vertex -0.750497 -0.749122 0
      vertex -0.750497 0 0
    endloop
  endfacet
endsolid Onshape
