solid AssimpScene
 facet normal 1 0 0
  outer loop
  vertex 0.2 -0.5 3
  vertex 0.2 -5.5 3
  vertex 0.2 -0.5 0
  endloop
 endfacet

 facet normal 1 0 0
  outer loop
  vertex 0.2 -5.5 3
  vertex 0.2 -5.5 0
  vertex 0.2 -0.5 0
  endloop
 endfacet

 facet normal -1 0 0
  outer loop
  vertex 5 -5.5 3
  vertex 5 5.5 3
  vertex 5 -5.5 0
  endloop
 endfacet

 facet normal -1 0 0
  outer loop
  vertex 5 5.5 3
  vertex 5 5.5 0
  vertex 5 -5.5 0
  endloop
 endfacet

 facet normal 1 0 0
  outer loop
  vertex -5 5.5 3
  vertex -5 -1.3 3
  vertex -5 5.5 0
  endloop
 endfacet

 facet normal 1 0 0
  outer loop
  vertex -5 -1.3 3
  vertex -5 -1.3 0
  vertex -5 5.5 0
  endloop
 endfacet

 facet normal -1 0 0
  outer loop
  vertex -5.5 -6 3
  vertex -5.5 6 3
  vertex -5.5 -6 0
  endloop
 endfacet

 facet normal -1 0 0
  outer loop
  vertex -5.5 6 3
  vertex -5.5 6 0
  vertex -5.5 -6 0
  endloop
 endfacet

 facet normal -1 -1.96008e-16 0
  outer loop
  vertex 1.45049e-15 -5.5 3
  vertex 6.66461e-16 -1.5 3
  vertex 1.45049e-15 -5.5 0
  endloop
 endfacet

 facet normal -1 -1.96008e-16 0
  outer loop
  vertex 6.66461e-16 -1.5 3
  vertex 6.66461e-16 -1.5 0
  vertex 1.45049e-15 -5.5 0
  endloop
 endfacet

 facet normal 0 -1 0
  outer loop
  vertex 5 5.5 3
  vertex -5 5.5 3
  vertex 5 5.5 0
  endloop
 endfacet

 facet normal 0 -1 0
  outer loop
  vertex -5 5.5 3
  vertex -5 5.5 0
  vertex 5 5.5 0
  endloop
 endfacet

 facet normal 1 0 0
  outer loop
  vertex 5.5 6 3
  vertex 5.5 -6 3
  vertex 5.5 6 0
  endloop
 endfacet

 facet normal 1 0 0
  outer loop
  vertex 5.5 -6 3
  vertex 5.5 -6 0
  vertex 5.5 6 0
  endloop
 endfacet

 facet normal 0 1 0
  outer loop
  vertex 0.2 -0.3 3
  vertex 4 -0.3 3
  vertex 0.2 -0.3 0
  endloop
 endfacet

 facet normal 0 1 0
  outer loop
  vertex 4 -0.3 3
  vertex 4 -0.3 0
  vertex 0.2 -0.3 0
  endloop
 endfacet

 facet normal 1 0 0
  outer loop
  vertex 4 -0.3 3
  vertex 4 -0.5 3
  vertex 4 -0.3 0
  endloop
 endfacet

 facet normal 1 0 0
  outer loop
  vertex 4 -0.5 3
  vertex 4 -0.5 0
  vertex 4 -0.3 0
  endloop
 endfacet

 facet normal 0 1 0
  outer loop
  vertex 0.2 -5.5 3
  vertex 5 -5.5 3
  vertex 0.2 -5.5 0
  endloop
 endfacet

 facet normal 0 1 0
  outer loop
  vertex 5 -5.5 3
  vertex 5 -5.5 0
  vertex 0.2 -5.5 0
  endloop
 endfacet

 facet normal 1 0 0
  outer loop
  vertex -5 -1.5 3
  vertex -5 -5.5 3
  vertex -5 -1.5 0
  endloop
 endfacet

 facet normal 1 0 0
  outer loop
  vertex -5 -5.5 3
  vertex -5 -5.5 0
  vertex -5 -1.5 0
  endloop
 endfacet

 facet normal 0 -1 0
  outer loop
  vertex 4 -0.5 3
  vertex 0.2 -0.5 3
  vertex 4 -0.5 0
  endloop
 endfacet

 facet normal 0 -1 0
  outer loop
  vertex 0.2 -0.5 3
  vertex 0.2 -0.5 0
  vertex 4 -0.5 0
  endloop
 endfacet

 facet normal 1 0 0
  outer loop
  vertex 0.2 2.9 3
  vertex 0.2 -0.3 3
  vertex 0.2 2.9 0
  endloop
 endfacet

 facet normal 1 0 0
  outer loop
  vertex 0.2 -0.3 3
  vertex 0.2 -0.3 0
  vertex 0.2 2.9 0
  endloop
 endfacet

 facet normal 0 1 0
  outer loop
  vertex -5 -1.3 3
  vertex -3 -1.3 3
  vertex -5 -1.3 0
  endloop
 endfacet

 facet normal 0 1 0
  outer loop
  vertex -3 -1.3 3
  vertex -3 -1.3 0
  vertex -5 -1.3 0
  endloop
 endfacet

 facet normal 0 0 -1
  outer loop
  vertex -5.5 -6 0
  vertex -5.5 6 0
  vertex -5 -1.3 0
  endloop
 endfacet

 facet normal 0 0 -1
  outer loop
  vertex -5 -1.3 0
  vertex -5 -1.5 0
  vertex -5.5 -6 0
  endloop
 endfacet

 facet normal 0 0 -1
  outer loop
  vertex -5 -1.5 0
  vertex -5 -5.5 0
  vertex -5.5 -6 0
  endloop
 endfacet

 facet normal 0 0 -1
  outer loop
  vertex -5.5 -6 0
  vertex -5 -5.5 0
  vertex 1.45049e-15 -5.5 0
  endloop
 endfacet

 facet normal 0 0 -1
  outer loop
  vertex 1.45049e-15 -5.5 0
  vertex 5.5 -6 0
  vertex -5.5 -6 0
  endloop
 endfacet

 facet normal 0 0 -1
  outer loop
  vertex -5.5 6 0
  vertex -5 5.5 0
  vertex -5 -1.3 0
  endloop
 endfacet

 facet normal 0 0 -1
  outer loop
  vertex -5 5.5 0
  vertex -5.5 6 0
  vertex 5 5.5 0
  endloop
 endfacet

 facet normal 0 0 -1
  outer loop
  vertex -5.5 6 0
  vertex 5.5 6 0
  vertex 5 5.5 0
  endloop
 endfacet

 facet normal 0 0 -1
  outer loop
  vertex -3 -1.3 0
  vertex -3 -1.5 0
  vertex -5 -1.3 0
  endloop
 endfacet

 facet normal 0 0 -1
  outer loop
  vertex -3 -1.5 0
  vertex -5 -1.5 0
  vertex -5 -1.3 0
  endloop
 endfacet

 facet normal 0 0 -1
  outer loop
  vertex 5 5.5 0
  vertex 5.5 6 0
  vertex 5 -5.5 0
  endloop
 endfacet

 facet normal 0 0 -1
  outer loop
  vertex 5.5 6 0
  vertex 5.5 -6 0
  vertex 5 -5.5 0
  endloop
 endfacet

 facet normal 0 0 -1
  outer loop
  vertex 5 -5.5 0
  vertex 5.5 -6 0
  vertex 0.2 -5.5 0
  endloop
 endfacet

 facet normal 0 0 -1
  outer loop
  vertex 0.2 -5.5 0
  vertex 5.5 -6 0
  vertex 1.45049e-15 -5.5 0
  endloop
 endfacet

 facet normal 0 0 -1
  outer loop
  vertex 6.66461e-16 -1.5 0
  vertex 0.2 -5.5 0
  vertex 1.45049e-15 -5.5 0
  endloop
 endfacet

 facet normal 0 0 -1
  outer loop
  vertex 0.2 -0.5 0
  vertex 0.2 -5.5 0
  vertex 6.66461e-16 -1.5 0
  endloop
 endfacet

 facet normal 0 0 -1
  outer loop
  vertex -2 -1.5 0
  vertex -2 -1.3 0
  vertex 6.66461e-16 -1.5 0
  endloop
 endfacet

 facet normal 0 0 -1
  outer loop
  vertex -2 -1.3 0
  vertex 6.05228e-16 -1.3 0
  vertex 6.66461e-16 -1.5 0
  endloop
 endfacet

 facet normal 0 0 -1
  outer loop
  vertex 6.05228e-16 -1.3 0
  vertex 0.2 -0.5 0
  vertex 6.66461e-16 -1.5 0
  endloop
 endfacet

 facet normal 0 0 -1
  outer loop
  vertex 4 -0.5 0
  vertex 0.2 -0.5 0
  vertex 0.2 -0.3 0
  endloop
 endfacet

 facet normal 0 0 -1
  outer loop
  vertex 0.2 -0.3 0
  vertex 0.2 -0.5 0
  vertex 6.05228e-16 -1.3 0
  endloop
 endfacet

 facet normal 0 0 -1
  outer loop
  vertex -9.25642e-17 2.9 0
  vertex 0.2 -0.3 0
  vertex 6.05228e-16 -1.3 0
  endloop
 endfacet

 facet normal 0 0 -1
  outer loop
  vertex -9.25642e-17 2.9 0
  vertex 0.2 2.9 0
  vertex 0.2 -0.3 0
  endloop
 endfacet

 facet normal 0 0 -1
  outer loop
  vertex 4 -0.3 0
  vertex 4 -0.5 0
  vertex 0.2 -0.3 0
  endloop
 endfacet

 facet normal 0 0 1
  outer loop
  vertex 0.2 -5.5 3
  vertex -5.5 -6 3
  vertex 5.5 -6 3
  endloop
 endfacet

 facet normal 0 0 1
  outer loop
  vertex 0.2 -0.5 3
  vertex 6.66461e-16 -1.5 3
  vertex 0.2 -5.5 3
  endloop
 endfacet

 facet normal 0 0 1
  outer loop
  vertex 6.66461e-16 -1.5 3
  vertex 1.45049e-15 -5.5 3
  vertex 0.2 -5.5 3
  endloop
 endfacet

 facet normal 0 0 1
  outer loop
  vertex 0.2 -5.5 3
  vertex 1.45049e-15 -5.5 3
  vertex -5.5 -6 3
  endloop
 endfacet

 facet normal 0 0 1
  outer loop
  vertex 5.5 -6 3
  vertex 5 -5.5 3
  vertex 0.2 -5.5 3
  endloop
 endfacet

 facet normal 0 0 1
  outer loop
  vertex -5 -1.5 3
  vertex -5.5 6 3
  vertex -5.5 -6 3
  endloop
 endfacet

 facet normal 0 0 1
  outer loop
  vertex 1.45049e-15 -5.5 3
  vertex -5 -5.5 3
  vertex -5.5 -6 3
  endloop
 endfacet

 facet normal 0 0 1
  outer loop
  vertex -5.5 -6 3
  vertex -5 -5.5 3
  vertex -5 -1.5 3
  endloop
 endfacet

 facet normal 0 0 1
  outer loop
  vertex -3 -1.5 3
  vertex -3 -1.3 3
  vertex -5 -1.5 3
  endloop
 endfacet

 facet normal 0 0 1
  outer loop
  vertex -3 -1.3 3
  vertex -5 -1.3 3
  vertex -5 -1.5 3
  endloop
 endfacet

 facet normal 0 0 1
  outer loop
  vertex -5 -1.5 3
  vertex -5 -1.3 3
  vertex -5.5 6 3
  endloop
 endfacet

 facet normal 0 0 1
  outer loop
  vertex -5 -1.3 3
  vertex -5 5.5 3
  vertex -5.5 6 3
  endloop
 endfacet

 facet normal 0 0 1
  outer loop
  vertex -5.5 6 3
  vertex -5 5.5 3
  vertex 5.5 6 3
  endloop
 endfacet

 facet normal 0 0 1
  outer loop
  vertex -5 5.5 3
  vertex 5 5.5 3
  vertex 5.5 6 3
  endloop
 endfacet

 facet normal 0 0 1
  outer loop
  vertex 5.5 6 3
  vertex 5 5.5 3
  vertex 5.5 -6 3
  endloop
 endfacet

 facet normal 0 0 1
  outer loop
  vertex 5 5.5 3
  vertex 5 -5.5 3
  vertex 5.5 -6 3
  endloop
 endfacet

 facet normal 0 0 1
  outer loop
  vertex -2 -1.3 3
  vertex -2 -1.5 3
  vertex 6.66461e-16 -1.5 3
  endloop
 endfacet

 facet normal 0 0 1
  outer loop
  vertex -2 -1.3 3
  vertex 6.66461e-16 -1.5 3
  vertex 6.05228e-16 -1.3 3
  endloop
 endfacet

 facet normal 0 0 1
  outer loop
  vertex 6.05228e-16 -1.3 3
  vertex 6.66461e-16 -1.5 3
  vertex 0.2 -0.5 3
  endloop
 endfacet

 facet normal 0 0 1
  outer loop
  vertex -9.25642e-17 2.9 3
  vertex 6.05228e-16 -1.3 3
  vertex 0.2 -0.3 3
  endloop
 endfacet

 facet normal 0 0 1
  outer loop
  vertex 0.2 -0.3 3
  vertex 6.05228e-16 -1.3 3
  vertex 0.2 -0.5 3
  endloop
 endfacet

 facet normal 0 0 1
  outer loop
  vertex 4 -0.5 3
  vertex 4 -0.3 3
  vertex 0.2 -0.5 3
  endloop
 endfacet

 facet normal 0 0 1
  outer loop
  vertex 4 -0.3 3
  vertex 0.2 -0.3 3
  vertex 0.2 -0.5 3
  endloop
 endfacet

 facet normal 0 0 1
  outer loop
  vertex 0.2 2.9 3
  vertex -9.25642e-17 2.9 3
  vertex 0.2 -0.3 3
  endloop
 endfacet

 facet normal 0 -1 0
  outer loop
  vertex 5.5 -6 3
  vertex -5.5 -6 3
  vertex 5.5 -6 0
  endloop
 endfacet

 facet normal 0 -1 0
  outer loop
  vertex -5.5 -6 3
  vertex -5.5 -6 0
  vertex 5.5 -6 0
  endloop
 endfacet

 facet normal 0 1 0
  outer loop
  vertex -5 -5.5 3
  vertex 1.45049e-15 -5.5 3
  vertex -5 -5.5 0
  endloop
 endfacet

 facet normal 0 1 0
  outer loop
  vertex 1.45049e-15 -5.5 3
  vertex 1.45049e-15 -5.5 0
  vertex -5 -5.5 0
  endloop
 endfacet

 facet normal 0 -1 0
  outer loop
  vertex 6.66461e-16 -1.5 3
  vertex -2 -1.5 3
  vertex 6.66461e-16 -1.5 0
  endloop
 endfacet

 facet normal 0 -1 0
  outer loop
  vertex -2 -1.5 3
  vertex -2 -1.5 0
  vertex 6.66461e-16 -1.5 0
  endloop
 endfacet

 facet normal 1 0 0
  outer loop
  vertex -3 -1.3 3
  vertex -3 -1.5 3
  vertex -3 -1.3 0
  endloop
 endfacet

 facet normal 1 0 0
  outer loop
  vertex -3 -1.5 3
  vertex -3 -1.5 0
  vertex -3 -1.3 0
  endloop
 endfacet

 facet normal 0 1 0
  outer loop
  vertex -5.5 6 3
  vertex 5.5 6 3
  vertex -5.5 6 0
  endloop
 endfacet

 facet normal 0 1 0
  outer loop
  vertex 5.5 6 3
  vertex 5.5 6 0
  vertex -5.5 6 0
  endloop
 endfacet

 facet normal 0 -1 0
  outer loop
  vertex -3 -1.5 3
  vertex -5 -1.5 3
  vertex -3 -1.5 0
  endloop
 endfacet

 facet normal 0 -1 0
  outer loop
  vertex -5 -1.5 3
  vertex -5 -1.5 0
  vertex -3 -1.5 0
  endloop
 endfacet

 facet normal -1 0 0
  outer loop
  vertex -2 -1.5 3
  vertex -2 -1.3 3
  vertex -2 -1.5 0
  endloop
 endfacet

 facet normal -1 0 0
  outer loop
  vertex -2 -1.3 3
  vertex -2 -1.3 0
  vertex -2 -1.5 0
  endloop
 endfacet

 facet normal 0 1 0
  outer loop
  vertex -2 -1.3 3
  vertex 6.05228e-16 -1.3 3
  vertex -2 -1.3 0
  endloop
 endfacet

 facet normal 0 1 0
  outer loop
  vertex 6.05228e-16 -1.3 3
  vertex 6.05228e-16 -1.3 0
  vertex -2 -1.3 0
  endloop
 endfacet

 facet normal -1 -1.66141e-16 0
  outer loop
  vertex 6.05228e-16 -1.3 3
  vertex -9.25642e-17 2.9 3
  vertex 6.05228e-16 -1.3 0
  endloop
 endfacet

 facet normal -1 -1.66141e-16 0
  outer loop
  vertex -9.25642e-17 2.9 3
  vertex -9.25642e-17 2.9 0
  vertex 6.05228e-16 -1.3 0
  endloop
 endfacet

 facet normal 0 1 0
  outer loop
  vertex -9.25642e-17 2.9 3
  vertex 0.2 2.9 3
  vertex -9.25642e-17 2.9 0
  endloop
 endfacet

 facet normal 0 1 0
  outer loop
  vertex 0.2 2.9 3
  vertex 0.2 2.9 0
  vertex -9.25642e-17 2.9 0
  endloop
 endfacet

endsolid AssimpScene
