solid AssimpScene
 facet normal 0 0 -1
  outer loop
  vertex -4.5 5.5 0
  vertex -4.5 4.6 0
  vertex -5 5.5 0
  endloop
 endfacet

 facet normal 0 0 -1
  outer loop
  vertex -4.5 4.6 0
  vertex -5 4.6 0
  vertex -5 5.5 0
  endloop
 endfacet

 facet normal 0 0 1
  outer loop
  vertex -4.5 4.6 2
  vertex -4.5 5.5 2
  vertex -5 4.6 2
  endloop
 endfacet

 facet normal 0 0 1
  outer loop
  vertex -4.5 5.5 2
  vertex -5 5.5 2
  vertex -5 4.6 2
  endloop
 endfacet

 facet normal -1 0 0
  outer loop
  vertex -5 4.6 2
  vertex -5 5.5 2
  vertex -5 4.6 0
  endloop
 endfacet

 facet normal -1 0 0
  outer loop
  vertex -5 5.5 2
  vertex -5 5.5 0
  vertex -5 4.6 0
  endloop
 endfacet

 facet normal 0 -1 0
  outer loop
  vertex -4.5 4.6 2
  vertex -5 4.6 2
  vertex -4.5 4.6 0
  endloop
 endfacet

 facet normal 0 -1 0
  outer loop
  vertex -5 4.6 2
  vertex -5 4.6 0
  vertex -4.5 4.6 0
  endloop
 endfacet

 facet normal 1 0 0
  outer loop
  vertex -4.5 5.5 2
  vertex -4.5 4.6 2
  vertex -4.5 5.5 0
  endloop
 endfacet

 facet normal 1 0 0
  outer loop
  vertex -4.5 4.6 2
  vertex -4.5 4.6 0
  vertex -4.5 5.5 0
  endloop
 endfacet

 facet normal 0 1 0
  outer loop
  vertex -5 5.5 2
  vertex -4.5 5.5 2
  vertex -5 5.5 0
  endloop
 endfacet

 facet normal 0 1 0
  outer loop
  vertex -4.5 5.5 2
  vertex -4.5 5.5 0
  vertex -5 5.5 0
  endloop
 endfacet

 facet normal 0 0 -1
  outer loop
  vertex 4.5 5.5 0
  vertex 5 5.5 0
  vertex 4.5 4.6 0
  endloop
 endfacet

 facet normal 0 0 -1
  outer loop
  vertex 5 5.5 0
  vertex 5 4.6 0
  vertex 4.5 4.6 0
  endloop
 endfacet

 facet normal 0 0 1
  outer loop
  vertex 5 5.5 2
  vertex 4.5 5.5 2
  vertex 5 4.6 2
  endloop
 endfacet

 facet normal 0 0 1
  outer loop
  vertex 4.5 5.5 2
  vertex 4.5 4.6 2
  vertex 5 4.6 2
  endloop
 endfacet

 facet normal 1 0 0
  outer loop
  vertex 5 5.5 2
  vertex 5 4.6 2
  vertex 5 5.5 0
  endloop
 endfacet

 facet normal 1 0 0
  outer loop
  vertex 5 4.6 2
  vertex 5 4.6 0
  vertex 5 5.5 0
  endloop
 endfacet

 facet normal -1 0 0
  outer loop
  vertex 4.5 4.6 2
  vertex 4.5 5.5 2
  vertex 4.5 4.6 0
  endloop
 endfacet

 facet normal -1 0 0
  outer loop
  vertex 4.5 5.5 2
  vertex 4.5 5.5 0
  vertex 4.5 4.6 0
  endloop
 endfacet

 facet normal 0 -1 0
  outer loop
  vertex 5 4.6 2
  vertex 4.5 4.6 2
  vertex 5 4.6 0
  endloop
 endfacet

 facet normal 0 -1 0
  outer loop
  vertex 4.5 4.6 2
  vertex 4.5 4.6 0
  vertex 5 4.6 0
  endloop
 endfacet

 facet normal 0 1 0
  outer loop
  vertex 4.5 5.5 2
  vertex 5 5.5 2
  vertex 4.5 5.5 0
  endloop
 endfacet

 facet normal 0 1 0
  outer loop
  vertex 5 5.5 2
  vertex 5 5.5 0
  vertex 4.5 5.5 0
  endloop
 endfacet

 facet normal 0 0 -1
  outer loop
  vertex 0.2 -1 0
  vertex 0.2 -0.5 0
  vertex 3.2 -1 0
  endloop
 endfacet

 facet normal 0 0 -1
  outer loop
  vertex 0.2 -0.5 0
  vertex 3.2 -0.5 0
  vertex 3.2 -1 0
  endloop
 endfacet

 facet normal 1 0 0
  outer loop
  vertex 3.2 -0.5 2
  vertex 3.2 -1 2
  vertex 3.2 -0.5 0
  endloop
 endfacet

 facet normal 1 0 0
  outer loop
  vertex 3.2 -1 2
  vertex 3.2 -1 0
  vertex 3.2 -0.5 0
  endloop
 endfacet

 facet normal 0 1 0
  outer loop
  vertex 0.2 -0.5 2
  vertex 3.2 -0.5 2
  vertex 0.2 -0.5 0
  endloop
 endfacet

 facet normal 0 1 0
  outer loop
  vertex 3.2 -0.5 2
  vertex 3.2 -0.5 0
  vertex 0.2 -0.5 0
  endloop
 endfacet

 facet normal 0 0 1
  outer loop
  vertex 0.2 -0.5 2
  vertex 0.2 -1 2
  vertex 3.2 -0.5 2
  endloop
 endfacet

 facet normal 0 0 1
  outer loop
  vertex 0.2 -1 2
  vertex 3.2 -1 2
  vertex 3.2 -0.5 2
  endloop
 endfacet

 facet normal -1 0 0
  outer loop
  vertex 0.2 -1 2
  vertex 0.2 -0.5 2
  vertex 0.2 -1 0
  endloop
 endfacet

 facet normal -1 0 0
  outer loop
  vertex 0.2 -0.5 2
  vertex 0.2 -0.5 0
  vertex 0.2 -1 0
  endloop
 endfacet

 facet normal 0 -1 0
  outer loop
  vertex 3.2 -1 2
  vertex 0.2 -1 2
  vertex 3.2 -1 0
  endloop
 endfacet

 facet normal 0 -1 0
  outer loop
  vertex 0.2 -1 2
  vertex 0.2 -1 0
  vertex 3.2 -1 0
  endloop
 endfacet

endsolid AssimpScene
