solid Onshape
  facet normal 0 0 -1
    outer loop
      vertex 5.5 2.5 0
      vertex 5.5 1.5 0
      vertex 3 2.5 0
    endloop
  endfacet
  facet normal 0 0 -1
    outer loop
      vertex 5.5 1.5 0
      vertex 2 1.5 0
      vertex 3 2.5 0
    endloop
  endfacet
  facet normal 0 0 -1
    outer loop
      vertex 3 2.5 0
      vertex 2 1.5 0
      vertex 3 6 0
    endloop
  endfacet
  facet normal 0 0 -1
    outer loop
      vertex 2 1.5 0
      vertex 2 6 0
      vertex 3 6 0
    endloop
  endfacet
  facet normal 0 0 1
    outer loop
      vertex 3 6 2.5
      vertex 2 6 2.5
      vertex 3 2.5 2.5
    endloop
  endfacet
  facet normal 0 0 1
    outer loop
      vertex 2 6 2.5
      vertex 2 1.5 2.5
      vertex 3 2.5 2.5
    endloop
  endfacet
  facet normal 0 0 1
    outer loop
      vertex 3 2.5 2.5
      vertex 2 1.5 2.5
      vertex 5.5 2.5 2.5
    endloop
  endfacet
  facet normal 0 0 1
    outer loop
      vertex 2 1.5 2.5
      vertex 5.5 1.5 2.5
      vertex 5.5 2.5 2.5
    endloop
  endfacet
  facet normal 1 0 0
    outer loop
      vertex 3 6 2.5
      vertex 3 2.5 2.5
      vertex 3 6 0
    endloop
  endfacet
  facet normal 1 0 0
    outer loop
      vertex 3 2.5 2.5
      vertex 3 2.5 0
      vertex 3 6 0
    endloop
  endfacet
  facet normal 0 1 0
    outer loop
      vertex 3 2.5 2.5
      vertex 5.5 2.5 2.5
      vertex 3 2.5 0
    endloop
  endfacet
  facet normal 0 1 0
    outer loop
      vertex 5.5 2.5 2.5
      vertex 5.5 2.5 0
      vertex 3 2.5 0
    endloop
  endfacet
  facet normal 0 1 0
    outer loop
      vertex 2 6 2.5
      vertex 3 6 2.5
      vertex 2 6 0
    endloop
  endfacet
  facet normal 0 1 0
    outer loop
      vertex 3 6 2.5
      vertex 3 6 0
      vertex 2 6 0
    endloop
  endfacet
  facet normal -1 0 0
    outer loop
      vertex 2 1.5 2.5
      vertex 2 6 2.5
      vertex 2 1.5 0
    endloop
  endfacet
  facet normal -1 0 0
    outer loop
      vertex 2 6 2.5
      vertex 2 6 0
      vertex 2 1.5 0
    endloop
  endfacet
  facet normal 0 -1 0
    outer loop
      vertex 5.5 1.5 2.5
      vertex 2 1.5 2.5
      vertex 5.5 1.5 0
    endloop
  endfacet
  facet normal 0 -1 0
    outer loop
      vertex 2 1.5 2.5
      vertex 2 1.5 0
      vertex 5.5 1.5 0
    endloop
  endfacet
  facet normal 1 0 0
    outer loop
      vertex 5.5 2.5 2.5
      vertex 5.5 1.5 2.5
      vertex 5.5 2.5 0
    endloop
  endfacet
  facet normal 1 0 0
    outer loop
      vertex 5.5 1.5 2.5
      vertex 5.5 1.5 0
      vertex 5.5 2.5 0
    endloop
  endfacet
endsolid Onshape
