solid Onshape
  facet normal 0 0 -1
    outer loop
      vertex 0 10 0
      vertex 10 10 0
      vertex 5 9.8 0
    endloop
  endfacet
  facet normal 0 0 -1
    outer loop
      vertex 1.7 5 0
      vertex 1.7 4.8 0
      vertex 0.2 5 0
    endloop
  endfacet
  facet normal 0 0 -1
    outer loop
      vertex 1.7 4.8 0
      vertex 0.2 4.8 0
      vertex 0.2 5 0
    endloop
  endfacet
  facet normal 0 0 -1
    outer loop
      vertex 5 9.8 0
      vertex 0.2 9.8 0
      vertex 0 10 0
    endloop
  endfacet
  facet normal 0 0 -1
    outer loop
      vertex 0.2 9.8 0
      vertex 0.2 5 0
      vertex 0 10 0
    endloop
  endfacet
  facet normal 0 0 -1
    outer loop
      vertex 0 10 0
      vertex 0.2 5 0
      vertex 0 0 0
    endloop
  endfacet
  facet normal 0 0 -1
    outer loop
      vertex 0.2 5 0
      vertex 0.2 4.8 0
      vertex 0 0 0
    endloop
  endfacet
  facet normal 0 0 -1
    outer loop
      vertex 0 0 0
      vertex 0.2 4.8 0
      vertex 0.2 1.7 0
    endloop
  endfacet
  facet normal 0 0 -1
    outer loop
      vertex 9.8 2.8 0
      vertex 10 10 0
      vertex 10 0 0
    endloop
  endfacet
  facet normal 0 0 -1
    outer loop
      vertex 3.5 2.5 0
      vertex 3.7 2.5 0
      vertex 3.5 1.7 0
    endloop
  endfacet
  facet normal 0 0 -1
    outer loop
      vertex 3.7 2.5 0
      vertex 3.7 1.5 0
      vertex 3.5 1.7 0
    endloop
  endfacet
  facet normal 0 0 -1
    outer loop
      vertex 3.5 1.7 0
      vertex 3.7 1.5 0
      vertex 0.2 1.7 0
    endloop
  endfacet
  facet normal 0 0 -1
    outer loop
      vertex 3.7 1.5 0
      vertex 0.2 1.5 0
      vertex 0.2 1.7 0
    endloop
  endfacet
  facet normal 0 0 -1
    outer loop
      vertex 0.2 1.7 0
      vertex 0.2 1.5 0
      vertex 0 0 0
    endloop
  endfacet
  facet normal 0 0 -1
    outer loop
      vertex 0.2 1.5 0
      vertex 0.2 0.2 0
      vertex 0 0 0
    endloop
  endfacet
  facet normal 0 0 -1
    outer loop
      vertex 0 0 0
      vertex 0.2 0.2 0
      vertex 10 0 0
    endloop
  endfacet
  facet normal 0 0 -1
    outer loop
      vertex 0.2 0.2 0
      vertex 9.8 0.2 0
      vertex 10 0 0
    endloop
  endfacet
  facet normal 0 0 -1
    outer loop
      vertex 10 0 0
      vertex 9.8 0.2 0
      vertex 9.8 2.8 0
    endloop
  endfacet
  facet normal 0 0 -1
    outer loop
      vertex 9.8 7.3 0
      vertex 10 10 0
      vertex 9.8 3 0
    endloop
  endfacet
  facet normal 0 0 -1
    outer loop
      vertex 10 10 0
      vertex 9.8 2.8 0
      vertex 9.8 3 0
    endloop
  endfacet
  facet normal 0 0 -1
    outer loop
      vertex 9.8 3 0
      vertex 9.8 2.8 0
      vertex 6.5 3 0
    endloop
  endfacet
  facet normal 0 0 -1
    outer loop
      vertex 9.8 2.8 0
      vertex 6.3 2.8 0
      vertex 6.5 3 0
    endloop
  endfacet
  facet normal 0 0 -1
    outer loop
      vertex 6.5 3 0
      vertex 6.3 2.8 0
      vertex 6.5 5.1 0
    endloop
  endfacet
  facet normal 0 0 -1
    outer loop
      vertex 6.3 2.8 0
      vertex 6.3 5.3 0
      vertex 6.5 5.1 0
    endloop
  endfacet
  facet normal 0 0 -1
    outer loop
      vertex 6.5 5.1 0
      vertex 6.3 5.3 0
      vertex 8.6 5.1 0
    endloop
  endfacet
  facet normal 0 0 -1
    outer loop
      vertex 6.3 5.3 0
      vertex 8.6 5.3 0
      vertex 8.6 5.1 0
    endloop
  endfacet
  facet normal 0 0 -1
    outer loop
      vertex 1.7 7.3 0
      vertex 1.7 7.5 0
      vertex 5.2 7.3 0
    endloop
  endfacet
  facet normal 0 0 -1
    outer loop
      vertex 1.7 7.5 0
      vertex 5 7.5 0
      vertex 5.2 7.3 0
    endloop
  endfacet
  facet normal 0 0 -1
    outer loop
      vertex 5.2 7.3 0
      vertex 5 7.5 0
      vertex 5.2 9.8 0
    endloop
  endfacet
  facet normal 0 0 -1
    outer loop
      vertex 6.3 7.3 0
      vertex 6.3 7.5 0
      vertex 9.8 7.3 0
    endloop
  endfacet
  facet normal 0 0 -1
    outer loop
      vertex 6.3 7.5 0
      vertex 9.8 7.5 0
      vertex 9.8 7.3 0
    endloop
  endfacet
  facet normal 0 0 -1
    outer loop
      vertex 9.8 7.3 0
      vertex 9.8 7.5 0
      vertex 10 10 0
    endloop
  endfacet
  facet normal 0 0 -1
    outer loop
      vertex 9.8 7.5 0
      vertex 9.8 9.8 0
      vertex 10 10 0
    endloop
  endfacet
  facet normal 0 0 -1
    outer loop
      vertex 10 10 0
      vertex 9.8 9.8 0
      vertex 6.5 9.8 0
    endloop
  endfacet
  facet normal 0 0 -1
    outer loop
      vertex 5 7.5 0
      vertex 5 9.8 0
      vertex 5.2 9.8 0
    endloop
  endfacet
  facet normal 0 0 -1
    outer loop
      vertex 5 9.8 0
      vertex 10 10 0
      vertex 5.2 9.8 0
    endloop
  endfacet
  facet normal 0 0 -1
    outer loop
      vertex 5.2 9.8 0
      vertex 10 10 0
      vertex 6.3 9.8 0
    endloop
  endfacet
  facet normal 0 0 -1
    outer loop
      vertex 10 10 0
      vertex 6.5 9.8 0
      vertex 6.3 9.8 0
    endloop
  endfacet
  facet normal 0 0 -1
    outer loop
      vertex 6.3 9.8 0
      vertex 6.5 9.8 0
      vertex 6.3 8.8 0
    endloop
  endfacet
  facet normal 0 0 -1
    outer loop
      vertex 6.5 9.8 0
      vertex 6.5 8.8 0
      vertex 6.3 8.8 0
    endloop
  endfacet
  facet normal 0 0 1
    outer loop
      vertex 5.2 9.8 3
      vertex 6.3 9.8 3
      vertex 10 10 3
    endloop
  endfacet
  facet normal 0 0 1
    outer loop
      vertex 6.3 7.5 3
      vertex 6.3 7.3 3
      vertex 9.8 7.5 3
    endloop
  endfacet
  facet normal 0 0 1
    outer loop
      vertex 6.3 7.3 3
      vertex 9.8 7.3 3
      vertex 9.8 7.5 3
    endloop
  endfacet
  facet normal 0 0 1
    outer loop
      vertex 6.3 8.8 3
      vertex 6.5 8.8 3
      vertex 6.3 9.8 3
    endloop
  endfacet
  facet normal 0 0 1
    outer loop
      vertex 6.5 8.8 3
      vertex 6.5 9.8 3
      vertex 6.3 9.8 3
    endloop
  endfacet
  facet normal 0 0 1
    outer loop
      vertex 6.3 9.8 3
      vertex 6.5 9.8 3
      vertex 10 10 3
    endloop
  endfacet
  facet normal 0 0 1
    outer loop
      vertex 6.5 9.8 3
      vertex 9.8 9.8 3
      vertex 10 10 3
    endloop
  endfacet
  facet normal 0 0 1
    outer loop
      vertex 9.8 9.8 3
      vertex 9.8 7.5 3
      vertex 10 10 3
    endloop
  endfacet
  facet normal 0 0 1
    outer loop
      vertex 10 10 3
      vertex 9.8 7.5 3
      vertex 10 0 3
    endloop
  endfacet
  facet normal 0 0 1
    outer loop
      vertex 9.8 7.5 3
      vertex 9.8 7.3 3
      vertex 10 0 3
    endloop
  endfacet
  facet normal 0 0 1
    outer loop
      vertex 10 0 3
      vertex 9.8 7.3 3
      vertex 9.8 3 3
    endloop
  endfacet
  facet normal 0 0 1
    outer loop
      vertex 0.2 1.5 3
      vertex 0 10 3
      vertex 0 0 3
    endloop
  endfacet
  facet normal 0 0 1
    outer loop
      vertex 8.6 5.1 3
      vertex 8.6 5.3 3
      vertex 6.5 5.1 3
    endloop
  endfacet
  facet normal 0 0 1
    outer loop
      vertex 8.6 5.3 3
      vertex 6.3 5.3 3
      vertex 6.5 5.1 3
    endloop
  endfacet
  facet normal 0 0 1
    outer loop
      vertex 6.5 5.1 3
      vertex 6.3 5.3 3
      vertex 6.5 3 3
    endloop
  endfacet
  facet normal 0 0 1
    outer loop
      vertex 6.3 5.3 3
      vertex 6.3 2.8 3
      vertex 6.5 3 3
    endloop
  endfacet
  facet normal 0 0 1
    outer loop
      vertex 6.5 3 3
      vertex 6.3 2.8 3
      vertex 9.8 3 3
    endloop
  endfacet
  facet normal 0 0 1
    outer loop
      vertex 6.3 2.8 3
      vertex 9.8 2.8 3
      vertex 9.8 3 3
    endloop
  endfacet
  facet normal 0 0 1
    outer loop
      vertex 9.8 3 3
      vertex 9.8 2.8 3
      vertex 10 0 3
    endloop
  endfacet
  facet normal 0 0 1
    outer loop
      vertex 9.8 2.8 3
      vertex 9.8 0.2 3
      vertex 10 0 3
    endloop
  endfacet
  facet normal 0 0 1
    outer loop
      vertex 10 0 3
      vertex 9.8 0.2 3
      vertex 0 0 3
    endloop
  endfacet
  facet normal 0 0 1
    outer loop
      vertex 9.8 0.2 3
      vertex 0.2 0.2 3
      vertex 0 0 3
    endloop
  endfacet
  facet normal 0 0 1
    outer loop
      vertex 0 0 3
      vertex 0.2 0.2 3
      vertex 0.2 1.5 3
    endloop
  endfacet
  facet normal 0 0 1
    outer loop
      vertex 0.2 4.8 3
      vertex 0 10 3
      vertex 0.2 1.7 3
    endloop
  endfacet
  facet normal 0 0 1
    outer loop
      vertex 0 10 3
      vertex 0.2 1.5 3
      vertex 0.2 1.7 3
    endloop
  endfacet
  facet normal 0 0 1
    outer loop
      vertex 0.2 1.7 3
      vertex 0.2 1.5 3
      vertex 3.5 1.7 3
    endloop
  endfacet
  facet normal 0 0 1
    outer loop
      vertex 0.2 1.5 3
      vertex 3.7 1.5 3
      vertex 3.5 1.7 3
    endloop
  endfacet
  facet normal 0 0 1
    outer loop
      vertex 3.5 1.7 3
      vertex 3.7 1.5 3
      vertex 3.5 2.5 3
    endloop
  endfacet
  facet normal 0 0 1
    outer loop
      vertex 3.7 1.5 3
      vertex 3.7 2.5 3
      vertex 3.5 2.5 3
    endloop
  endfacet
  facet normal 0 0 1
    outer loop
      vertex 1.7 4.8 3
      vertex 1.7 5 3
      vertex 0.2 4.8 3
    endloop
  endfacet
  facet normal 0 0 1
    outer loop
      vertex 1.7 5 3
      vertex 0.2 5 3
      vertex 0.2 4.8 3
    endloop
  endfacet
  facet normal 0 0 1
    outer loop
      vertex 0.2 4.8 3
      vertex 0.2 5 3
      vertex 0 10 3
    endloop
  endfacet
  facet normal 0 0 1
    outer loop
      vertex 0.2 5 3
      vertex 0.2 9.8 3
      vertex 0 10 3
    endloop
  endfacet
  facet normal 0 0 1
    outer loop
      vertex 0 10 3
      vertex 0.2 9.8 3
      vertex 5 9.8 3
    endloop
  endfacet
  facet normal 0 0 1
    outer loop
      vertex 1.7 7.5 3
      vertex 1.7 7.3 3
      vertex 5 7.5 3
    endloop
  endfacet
  facet normal 0 0 1
    outer loop
      vertex 1.7 7.3 3
      vertex 5.2 7.3 3
      vertex 5 7.5 3
    endloop
  endfacet
  facet normal 0 0 1
    outer loop
      vertex 5 7.5 3
      vertex 5.2 7.3 3
      vertex 5 9.8 3
    endloop
  endfacet
  facet normal 0 0 1
    outer loop
      vertex 5.2 7.3 3
      vertex 5.2 9.8 3
      vertex 5 9.8 3
    endloop
  endfacet
  facet normal 0 0 1
    outer loop
      vertex 5 9.8 3
      vertex 5.2 9.8 3
      vertex 0 10 3
    endloop
  endfacet
  facet normal 0 0 1
    outer loop
      vertex 5.2 9.8 3
      vertex 10 10 3
      vertex 0 10 3
    endloop
  endfacet
  facet normal 0 1 0
    outer loop
      vertex 0 10 3
      vertex 10 10 3
      vertex 0 10 0
    endloop
  endfacet
  facet normal 0 1 0
    outer loop
      vertex 10 10 3
      vertex 10 10 0
      vertex 0 10 0
    endloop
  endfacet
  facet normal 0 -1 0
    outer loop
      vertex 5.2 7.3 3
      vertex 1.7 7.3 3
      vertex 5.2 7.3 0
    endloop
  endfacet
  facet normal 0 -1 0
    outer loop
      vertex 1.7 7.3 3
      vertex 1.7 7.3 0
      vertex 5.2 7.3 0
    endloop
  endfacet
  facet normal -1 0 0
    outer loop
      vertex 1.7 7.3 3
      vertex 1.7 7.5 3
      vertex 1.7 7.3 0
    endloop
  endfacet
  facet normal -1 0 0
    outer loop
      vertex 1.7 7.5 3
      vertex 1.7 7.5 0
      vertex 1.7 7.3 0
    endloop
  endfacet
  facet normal 0 1 0
    outer loop
      vertex 1.7 7.5 3
      vertex 5 7.5 3
      vertex 1.7 7.5 0
    endloop
  endfacet
  facet normal 0 1 0
    outer loop
      vertex 5 7.5 3
      vertex 5 7.5 0
      vertex 1.7 7.5 0
    endloop
  endfacet
  facet normal -1 0 0
    outer loop
      vertex 9.8 3 3
      vertex 9.8 7.3 3
      vertex 9.8 3 0
    endloop
  endfacet
  facet normal -1 0 0
    outer loop
      vertex 9.8 7.3 3
      vertex 9.8 7.3 0
      vertex 9.8 3 0
    endloop
  endfacet
  facet normal -1 0 0
    outer loop
      vertex 6.3 7.3 3
      vertex 6.3 7.5 3
      vertex 6.3 7.3 0
    endloop
  endfacet
  facet normal -1 0 0
    outer loop
      vertex 6.3 7.5 3
      vertex 6.3 7.5 0
      vertex 6.3 7.3 0
    endloop
  endfacet
  facet normal 0 1 0
    outer loop
      vertex 6.3 7.5 3
      vertex 9.8 7.5 3
      vertex 6.3 7.5 0
    endloop
  endfacet
  facet normal 0 1 0
    outer loop
      vertex 9.8 7.5 3
      vertex 9.8 7.5 0
      vertex 6.3 7.5 0
    endloop
  endfacet
  facet normal 1 0 0
    outer loop
      vertex 6.5 5.1 3
      vertex 6.5 3 3
      vertex 6.5 5.1 0
    endloop
  endfacet
  facet normal 1 0 0
    outer loop
      vertex 6.5 3 3
      vertex 6.5 3 0
      vertex 6.5 5.1 0
    endloop
  endfacet
  facet normal -1 0 0
    outer loop
      vertex 9.8 7.5 3
      vertex 9.8 9.8 3
      vertex 9.8 7.5 0
    endloop
  endfacet
  facet normal -1 0 0
    outer loop
      vertex 9.8 9.8 3
      vertex 9.8 9.8 0
      vertex 9.8 7.5 0
    endloop
  endfacet
  facet normal 0 -1 0
    outer loop
      vertex 9.8 9.8 3
      vertex 6.5 9.8 3
      vertex 9.8 9.8 0
    endloop
  endfacet
  facet normal 0 -1 0
    outer loop
      vertex 6.5 9.8 3
      vertex 6.5 9.8 0
      vertex 9.8 9.8 0
    endloop
  endfacet
  facet normal 0 -1 0
    outer loop
      vertex 9.8 7.3 3
      vertex 6.3 7.3 3
      vertex 9.8 7.3 0
    endloop
  endfacet
  facet normal 0 -1 0
    outer loop
      vertex 6.3 7.3 3
      vertex 6.3 7.3 0
      vertex 9.8 7.3 0
    endloop
  endfacet
  facet normal 0 -1 0
    outer loop
      vertex 10 0 3
      vertex 0 0 3
      vertex 10 0 0
    endloop
  endfacet
  facet normal 0 -1 0
    outer loop
      vertex 0 0 3
      vertex 0 0 0
      vertex 10 0 0
    endloop
  endfacet
  facet normal 0 -1 0
    outer loop
      vertex 6.5 8.8 3
      vertex 6.3 8.8 3
      vertex 6.5 8.8 0
    endloop
  endfacet
  facet normal 0 -1 0
    outer loop
      vertex 6.3 8.8 3
      vertex 6.3 8.8 0
      vertex 6.5 8.8 0
    endloop
  endfacet
  facet normal -1 0 0
    outer loop
      vertex 0 0 3
      vertex 0 10 3
      vertex 0 0 0
    endloop
  endfacet
  facet normal -1 0 0
    outer loop
      vertex 0 10 3
      vertex 0 10 0
      vertex 0 0 0
    endloop
  endfacet
  facet normal 0 1 0
    outer loop
      vertex 0.2 1.7 3
      vertex 3.5 1.7 3
      vertex 0.2 1.7 0
    endloop
  endfacet
  facet normal 0 1 0
    outer loop
      vertex 3.5 1.7 3
      vertex 3.5 1.7 0
      vertex 0.2 1.7 0
    endloop
  endfacet
  facet normal 1 0 0
    outer loop
      vertex 6.5 9.8 3
      vertex 6.5 8.8 3
      vertex 6.5 9.8 0
    endloop
  endfacet
  facet normal 1 0 0
    outer loop
      vertex 6.5 8.8 3
      vertex 6.5 8.8 0
      vertex 6.5 9.8 0
    endloop
  endfacet
  facet normal 1 0 0
    outer loop
      vertex 10 10 3
      vertex 10 0 3
      vertex 10 10 0
    endloop
  endfacet
  facet normal 1 0 0
    outer loop
      vertex 10 0 3
      vertex 10 0 0
      vertex 10 10 0
    endloop
  endfacet
  facet normal -1 0 0
    outer loop
      vertex 3.5 1.7 3
      vertex 3.5 2.5 3
      vertex 3.5 1.7 0
    endloop
  endfacet
  facet normal -1 0 0
    outer loop
      vertex 3.5 2.5 3
      vertex 3.5 2.5 0
      vertex 3.5 1.7 0
    endloop
  endfacet
  facet normal 0 -1 0
    outer loop
      vertex 6.3 9.8 3
      vertex 5.2 9.8 3
      vertex 6.3 9.8 0
    endloop
  endfacet
  facet normal 0 -1 0
    outer loop
      vertex 5.2 9.8 3
      vertex 5.2 9.8 0
      vertex 6.3 9.8 0
    endloop
  endfacet
  facet normal 0 -1 0
    outer loop
      vertex 1.7 4.8 3
      vertex 0.2 4.8 3
      vertex 1.7 4.8 0
    endloop
  endfacet
  facet normal 0 -1 0
    outer loop
      vertex 0.2 4.8 3
      vertex 0.2 4.8 0
      vertex 1.7 4.8 0
    endloop
  endfacet
  facet normal 0 1 0
    outer loop
      vertex 6.5 3 3
      vertex 9.8 3 3
      vertex 6.5 3 0
    endloop
  endfacet
  facet normal 0 1 0
    outer loop
      vertex 9.8 3 3
      vertex 9.8 3 0
      vertex 6.5 3 0
    endloop
  endfacet
  facet normal 1 0 0
    outer loop
      vertex 5.2 9.8 3
      vertex 5.2 7.3 3
      vertex 5.2 9.8 0
    endloop
  endfacet
  facet normal 1 0 0
    outer loop
      vertex 5.2 7.3 3
      vertex 5.2 7.3 0
      vertex 5.2 9.8 0
    endloop
  endfacet
  facet normal -1 0 0
    outer loop
      vertex 6.3 8.8 3
      vertex 6.3 9.8 3
      vertex 6.3 8.8 0
    endloop
  endfacet
  facet normal -1 0 0
    outer loop
      vertex 6.3 9.8 3
      vertex 6.3 9.8 0
      vertex 6.3 8.8 0
    endloop
  endfacet
  facet normal 0 -1 0
    outer loop
      vertex 8.6 5.1 3
      vertex 6.5 5.1 3
      vertex 8.6 5.1 0
    endloop
  endfacet
  facet normal 0 -1 0
    outer loop
      vertex 6.5 5.1 3
      vertex 6.5 5.1 0
      vertex 8.6 5.1 0
    endloop
  endfacet
  facet normal 1 0 0
    outer loop
      vertex 8.6 5.3 3
      vertex 8.6 5.1 3
      vertex 8.6 5.3 0
    endloop
  endfacet
  facet normal 1 0 0
    outer loop
      vertex 8.6 5.1 3
      vertex 8.6 5.1 0
      vertex 8.6 5.3 0
    endloop
  endfacet
  facet normal 0 1 0
    outer loop
      vertex 6.3 5.3 3
      vertex 8.6 5.3 3
      vertex 6.3 5.3 0
    endloop
  endfacet
  facet normal 0 1 0
    outer loop
      vertex 8.6 5.3 3
      vertex 8.6 5.3 0
      vertex 6.3 5.3 0
    endloop
  endfacet
  facet normal -1 0 0
    outer loop
      vertex 6.3 2.8 3
      vertex 6.3 5.3 3
      vertex 6.3 2.8 0
    endloop
  endfacet
  facet normal -1 0 0
    outer loop
      vertex 6.3 5.3 3
      vertex 6.3 5.3 0
      vertex 6.3 2.8 0
    endloop
  endfacet
  facet normal 0 -1 0
    outer loop
      vertex 9.8 2.8 3
      vertex 6.3 2.8 3
      vertex 9.8 2.8 0
    endloop
  endfacet
  facet normal 0 -1 0
    outer loop
      vertex 6.3 2.8 3
      vertex 6.3 2.8 0
      vertex 9.8 2.8 0
    endloop
  endfacet
  facet normal -1 0 0
    outer loop
      vertex 9.8 0.2 3
      vertex 9.8 2.8 3
      vertex 9.8 0.2 0
    endloop
  endfacet
  facet normal -1 0 0
    outer loop
      vertex 9.8 2.8 3
      vertex 9.8 2.8 0
      vertex 9.8 0.2 0
    endloop
  endfacet
  facet normal 0 1 0
    outer loop
      vertex 0.2 0.2 3
      vertex 9.8 0.2 3
      vertex 0.2 0.2 0
    endloop
  endfacet
  facet normal 0 1 0
    outer loop
      vertex 9.8 0.2 3
      vertex 9.8 0.2 0
      vertex 0.2 0.2 0
    endloop
  endfacet
  facet normal 0 1 0
    outer loop
      vertex 3.5 2.5 3
      vertex 3.7 2.5 3
      vertex 3.5 2.5 0
    endloop
  endfacet
  facet normal 0 1 0
    outer loop
      vertex 3.7 2.5 3
      vertex 3.7 2.5 0
      vertex 3.5 2.5 0
    endloop
  endfacet
  facet normal 1 0 0
    outer loop
      vertex 0.2 1.5 3
      vertex 0.2 0.2 3
      vertex 0.2 1.5 0
    endloop
  endfacet
  facet normal 1 0 0
    outer loop
      vertex 0.2 0.2 3
      vertex 0.2 0.2 0
      vertex 0.2 1.5 0
    endloop
  endfacet
  facet normal 0 -1 0
    outer loop
      vertex 3.7 1.5 3
      vertex 0.2 1.5 3
      vertex 3.7 1.5 0
    endloop
  endfacet
  facet normal 0 -1 0
    outer loop
      vertex 0.2 1.5 3
      vertex 0.2 1.5 0
      vertex 3.7 1.5 0
    endloop
  endfacet
  facet normal 1 0 0
    outer loop
      vertex 3.7 2.5 3
      vertex 3.7 1.5 3
      vertex 3.7 2.5 0
    endloop
  endfacet
  facet normal 1 0 0
    outer loop
      vertex 3.7 1.5 3
      vertex 3.7 1.5 0
      vertex 3.7 2.5 0
    endloop
  endfacet
  facet normal 1 0 0
    outer loop
      vertex 0.2 4.8 3
      vertex 0.2 1.7 3
      vertex 0.2 4.8 0
    endloop
  endfacet
  facet normal 1 0 0
    outer loop
      vertex 0.2 1.7 3
      vertex 0.2 1.7 0
      vertex 0.2 4.8 0
    endloop
  endfacet
  facet normal 1 0 0
    outer loop
      vertex 1.7 5 3
      vertex 1.7 4.8 3
      vertex 1.7 5 0
    endloop
  endfacet
  facet normal 1 0 0
    outer loop
      vertex 1.7 4.8 3
      vertex 1.7 4.8 0
      vertex 1.7 5 0
    endloop
  endfacet
  facet normal 0 -1 0
    outer loop
      vertex 5 9.8 3
      vertex 0.2 9.8 3
      vertex 5 9.8 0
    endloop
  endfacet
  facet normal 0 -1 0
    outer loop
      vertex 0.2 9.8 3
      vertex 0.2 9.8 0
      vertex 5 9.8 0
    endloop
  endfacet
  facet normal 0 1 0
    outer loop
      vertex 0.2 5 3
      vertex 1.7 5 3
      vertex 0.2 5 0
    endloop
  endfacet
  facet normal 0 1 0
    outer loop
      vertex 1.7 5 3
      vertex 1.7 5 0
      vertex 0.2 5 0
    endloop
  endfacet
  facet normal 1 0 0
    outer loop
      vertex 0.2 9.8 3
      vertex 0.2 5 3
      vertex 0.2 9.8 0
    endloop
  endfacet
  facet normal 1 0 0
    outer loop
      vertex 0.2 5 3
      vertex 0.2 5 0
      vertex 0.2 9.8 0
    endloop
  endfacet
  facet normal -1 0 0
    outer loop
      vertex 5 7.5 3
      vertex 5 9.8 3
      vertex 5 7.5 0
    endloop
  endfacet
  facet normal -1 0 0
    outer loop
      vertex 5 9.8 3
      vertex 5 9.8 0
      vertex 5 7.5 0
    endloop
  endfacet
  facet normal 0 0 -1
    outer loop
      vertex 2.7 4.8 0
      vertex 2.7 5 0
      vertex 3.5 4.8 0
    endloop
  endfacet
  facet normal 0 0 -1
    outer loop
      vertex 2.7 5 0
      vertex 3.7 5 0
      vertex 3.5 4.8 0
    endloop
  endfacet
  facet normal 0 0 -1
    outer loop
      vertex 3.5 4.8 0
      vertex 3.7 5 0
      vertex 3.5 3.5 0
    endloop
  endfacet
  facet normal 0 0 -1
    outer loop
      vertex 3.7 5 0
      vertex 3.7 3.5 0
      vertex 3.5 3.5 0
    endloop
  endfacet
  facet normal 0 0 1
    outer loop
      vertex 3.5 3.5 3
      vertex 3.7 3.5 3
      vertex 3.5 4.8 3
    endloop
  endfacet
  facet normal 0 0 1
    outer loop
      vertex 3.7 3.5 3
      vertex 3.7 5 3
      vertex 3.5 4.8 3
    endloop
  endfacet
  facet normal 0 0 1
    outer loop
      vertex 3.5 4.8 3
      vertex 3.7 5 3
      vertex 2.7 4.8 3
    endloop
  endfacet
  facet normal 0 0 1
    outer loop
      vertex 3.7 5 3
      vertex 2.7 5 3
      vertex 2.7 4.8 3
    endloop
  endfacet
  facet normal -1 0 0
    outer loop
      vertex 2.7 4.8 3
      vertex 2.7 5 3
      vertex 2.7 4.8 0
    endloop
  endfacet
  facet normal -1 0 0
    outer loop
      vertex 2.7 5 3
      vertex 2.7 5 0
      vertex 2.7 4.8 0
    endloop
  endfacet
  facet normal 0 1 0
    outer loop
      vertex 2.7 5 3
      vertex 3.7 5 3
      vertex 2.7 5 0
    endloop
  endfacet
  facet normal 0 1 0
    outer loop
      vertex 3.7 5 3
      vertex 3.7 5 0
      vertex 2.7 5 0
    endloop
  endfacet
  facet normal 0 -1 0
    outer loop
      vertex 3.5 4.8 3
      vertex 2.7 4.8 3
      vertex 3.5 4.8 0
    endloop
  endfacet
  facet normal 0 -1 0
    outer loop
      vertex 2.7 4.8 3
      vertex 2.7 4.8 0
      vertex 3.5 4.8 0
    endloop
  endfacet
  facet normal -1 0 0
    outer loop
      vertex 3.5 3.5 3
      vertex 3.5 4.8 3
      vertex 3.5 3.5 0
    endloop
  endfacet
  facet normal -1 0 0
    outer loop
      vertex 3.5 4.8 3
      vertex 3.5 4.8 0
      vertex 3.5 3.5 0
    endloop
  endfacet
  facet normal 1 0 0
    outer loop
      vertex 3.7 5 3
      vertex 3.7 3.5 3
      vertex 3.7 5 0
    endloop
  endfacet
  facet normal 1 0 0
    outer loop
      vertex 3.7 3.5 3
      vertex 3.7 3.5 0
      vertex 3.7 5 0
    endloop
  endfacet
  facet normal 0 -1 0
    outer loop
      vertex 3.7 3.5 3
      vertex 3.5 3.5 3
      vertex 3.7 3.5 0
    endloop
  endfacet
  facet normal 0 -1 0
    outer loop
      vertex 3.5 3.5 3
      vertex 3.5 3.5 0
      vertex 3.7 3.5 0
    endloop
  endfacet
endsolid Onshape
