solid Onshape
  facet normal 0 0 -1
    outer loop
      vertex 9.7 4.3 0
      vertex 9.8 4.3 0
      vertex 9.7 3.5 0
    endloop
  endfacet
  facet normal 0 0 -1
    outer loop
      vertex 9.8 4.3 0
      vertex 9.8 3.5 0
      vertex 9.7 3.5 0
    endloop
  endfacet
  facet normal 0 0 1
    outer loop
      vertex 9.8 4.3 3
      vertex 9.7 4.3 3
      vertex 9.8 3.5 3
    endloop
  endfacet
  facet normal 0 0 1
    outer loop
      vertex 9.7 4.3 3
      vertex 9.7 3.5 3
      vertex 9.8 3.5 3
    endloop
  endfacet
  facet normal -1 0 0
    outer loop
      vertex 9.7 3.5 3
      vertex 9.7 4.3 3
      vertex 9.7 3.5 0
    endloop
  endfacet
  facet normal -1 0 0
    outer loop
      vertex 9.7 4.3 3
      vertex 9.7 4.3 0
      vertex 9.7 3.5 0
    endloop
  endfacet
  facet normal 0 1 0
    outer loop
      vertex 9.7 4.3 3
      vertex 9.8 4.3 3
      vertex 9.7 4.3 0
    endloop
  endfacet
  facet normal 0 1 0
    outer loop
      vertex 9.8 4.3 3
      vertex 9.8 4.3 0
      vertex 9.7 4.3 0
    endloop
  endfacet
  facet normal 0 -1 0
    outer loop
      vertex 9.8 3.5 3
      vertex 9.7 3.5 3
      vertex 9.8 3.5 0
    endloop
  endfacet
  facet normal 0 -1 0
    outer loop
      vertex 9.7 3.5 3
      vertex 9.7 3.5 0
      vertex 9.8 3.5 0
    endloop
  endfacet
  facet normal 1 0 0
    outer loop
      vertex 9.8 4.3 3
      vertex 9.8 3.5 3
      vertex 9.8 4.3 0
    endloop
  endfacet
  facet normal 1 0 0
    outer loop
      vertex 9.8 3.5 3
      vertex 9.8 3.5 0
      vertex 9.8 4.3 0
    endloop
  endfacet
endsolid Onshape
