solid Onshape
  facet normal 0 0 -1
    outer loop
      vertex 0.1 2.5 0
      vertex -0.2 2.5 0
      vertex 0.1 3.5 0
    endloop
  endfacet
  facet normal 0 0 -1
    outer loop
      vertex -0.2 2.5 0
      vertex -0.2 3.5 0
      vertex 0.1 3.5 0
    endloop
  endfacet
  facet normal 0 0 1
    outer loop
      vertex -0.2 2.5 2
      vertex 0.1 2.5 2
      vertex -0.2 3.5 2
    endloop
  endfacet
  facet normal 0 0 1
    outer loop
      vertex 0.1 2.5 2
      vertex 0.1 3.5 2
      vertex -0.2 3.5 2
    endloop
  endfacet
  facet normal 1 0 0
    outer loop
      vertex 0.1 3.5 2
      vertex 0.1 2.5 2
      vertex 0.1 3.5 0
    endloop
  endfacet
  facet normal 1 0 0
    outer loop
      vertex 0.1 2.5 2
      vertex 0.1 2.5 0
      vertex 0.1 3.5 0
    endloop
  endfacet
  facet normal 0 -1 0
    outer loop
      vertex 0.1 2.5 2
      vertex -0.2 2.5 2
      vertex 0.1 2.5 0
    endloop
  endfacet
  facet normal 0 -1 0
    outer loop
      vertex -0.2 2.5 2
      vertex -0.2 2.5 0
      vertex 0.1 2.5 0
    endloop
  endfacet
  facet normal 0 1 0
    outer loop
      vertex -0.2 3.5 2
      vertex 0.1 3.5 2
      vertex -0.2 3.5 0
    endloop
  endfacet
  facet normal 0 1 0
    outer loop
      vertex 0.1 3.5 2
      vertex 0.1 3.5 0
      vertex -0.2 3.5 0
    endloop
  endfacet
  facet normal -1 0 0
    outer loop
      vertex -0.2 2.5 2
      vertex -0.2 3.5 2
      vertex -0.2 2.5 0
    endloop
  endfacet
  facet normal -1 0 0
    outer loop
      vertex -0.2 3.5 2
      vertex -0.2 3.5 0
      vertex -0.2 2.5 0
    endloop
  endfacet
endsolid Onshape
