solid Onshape
  facet normal 1 0 0
    outer loop
      vertex 9.9 3.5 0
      vertex 9.9 3.5 1.9984
      vertex 9.9 2.5 0
    endloop
  endfacet
  facet normal 1 0 0
    outer loop
      vertex 9.9 3.5 1.9984
      vertex 9.9 2.5 1.9984
      vertex 9.9 2.5 0
    endloop
  endfacet
  facet normal 0 0 -1
    outer loop
      vertex 9.9 2.5 1.9984
      vertex 9.9 3.5 1.9984
      vertex 10 2.5 1.9984
    endloop
  endfacet
  facet normal 0 0 -1
    outer loop
      vertex 9.9 3.5 1.9984
      vertex 10 3.5 1.9984
      vertex 10 2.5 1.9984
    endloop
  endfacet
  facet normal 0 -1 0
    outer loop
      vertex 9.9 3.5 1.9984
      vertex 9.9 3.5 0
      vertex 10 3.5 1.9984
    endloop
  endfacet
  facet normal 0 -1 0
    outer loop
      vertex 9.9 3.5 0
      vertex 10 3.5 0
      vertex 10 3.5 1.9984
    endloop
  endfacet
  facet normal 0 1 0
    outer loop
      vertex 9.9 2.5 0
      vertex 9.9 2.5 1.9984
      vertex 10 2.5 0
    endloop
  endfacet
  facet normal 0 1 0
    outer loop
      vertex 9.9 2.5 1.9984
      vertex 10 2.5 1.9984
      vertex 10 2.5 0
    endloop
  endfacet
  facet normal 0 0 -1
    outer loop
      vertex 0.1 3.5 2
      vertex 0.1 2.5 2
      vertex -9.47313e-16 3.5 2
    endloop
  endfacet
  facet normal 0 0 -1
    outer loop
      vertex 0.1 2.5 2
      vertex -7.63616e-16 2.5 2
      vertex -9.47313e-16 3.5 2
    endloop
  endfacet
  facet normal 0 1 0
    outer loop
      vertex 0.1 2.5 2
      vertex 0.1 2.5 0
      vertex -7.63616e-16 2.5 2
    endloop
  endfacet
  facet normal 0 1 0
    outer loop
      vertex 0.1 2.5 0
      vertex -7.63616e-16 2.5 0
      vertex -7.63616e-16 2.5 2
    endloop
  endfacet
  facet normal 0 -1 0
    outer loop
      vertex 0.1 3.5 0
      vertex 0.1 3.5 2
      vertex -9.47313e-16 3.5 0
    endloop
  endfacet
  facet normal 0 -1 0
    outer loop
      vertex 0.1 3.5 2
      vertex -9.47313e-16 3.5 2
      vertex -9.47313e-16 3.5 0
    endloop
  endfacet
  facet normal 0 -1 0
    outer loop
      vertex 10 0 2.5
      vertex 0 0 2.5
      vertex 10 0 0
    endloop
  endfacet
  facet normal 0 -1 0
    outer loop
      vertex 0 0 2.5
      vertex 0 0 0
      vertex 10 0 0
    endloop
  endfacet
  facet normal -1 -3.05447e-16 0
    outer loop
      vertex -7.63616e-16 2.5 0
      vertex 0 0 0
      vertex -7.63616e-16 2.5 2
    endloop
  endfacet
  facet normal -1 -3.05447e-16 0
    outer loop
      vertex 0 0 0
      vertex 0 0 2.5
      vertex -7.63616e-16 2.5 2
    endloop
  endfacet
  facet normal -1 -1.83697e-16 6.08748e-16
    outer loop
      vertex -7.63616e-16 2.5 2
      vertex 0 0 2.5
      vertex -9.47313e-16 3.5 2
    endloop
  endfacet
  facet normal -1 -1.82724e-16 6.15558e-16
    outer loop
      vertex 0 0 2.5
      vertex -1.09635e-15 6 2.5
      vertex -9.47313e-16 3.5 2
    endloop
  endfacet
  facet normal -1 -5.96127e-17 0
    outer loop
      vertex -9.47313e-16 3.5 2
      vertex -1.09635e-15 6 2.5
      vertex -9.47313e-16 3.5 0
    endloop
  endfacet
  facet normal -1 -5.96127e-17 0
    outer loop
      vertex -1.09635e-15 6 2.5
      vertex -1.09635e-15 6 0
      vertex -9.47313e-16 3.5 0
    endloop
  endfacet
  facet normal 1 0 0
    outer loop
      vertex 10 3.5 0
      vertex 10 6 0
      vertex 10 3.5 1.9984
    endloop
  endfacet
  facet normal 1 0 0
    outer loop
      vertex 10 6 0
      vertex 10 6 2.5
      vertex 10 3.5 1.9984
    endloop
  endfacet
  facet normal 1 0 0
    outer loop
      vertex 10 3.5 1.9984
      vertex 10 6 2.5
      vertex 10 2.5 1.9984
    endloop
  endfacet
  facet normal 1 0 0
    outer loop
      vertex 10 6 2.5
      vertex 10 0 2.5
      vertex 10 2.5 1.9984
    endloop
  endfacet
  facet normal 1 0 0
    outer loop
      vertex 10 2.5 1.9984
      vertex 10 0 2.5
      vertex 10 2.5 0
    endloop
  endfacet
  facet normal 1 0 0
    outer loop
      vertex 10 0 2.5
      vertex 10 0 0
      vertex 10 2.5 0
    endloop
  endfacet
  facet normal 0 1 0
    outer loop
      vertex -1.09635e-15 6 2.5
      vertex 10 6 2.5
      vertex -1.09635e-15 6 0
    endloop
  endfacet
  facet normal 0 1 0
    outer loop
      vertex 10 6 2.5
      vertex 10 6 0
      vertex -1.09635e-15 6 0
    endloop
  endfacet
  facet normal 0 0 1
    outer loop
      vertex 10 0 2.5
      vertex 10 6 2.5
      vertex 0 0 2.5
    endloop
  endfacet
  facet normal 0 0 1
    outer loop
      vertex 10 6 2.5
      vertex -1.09635e-15 6 2.5
      vertex 0 0 2.5
    endloop
  endfacet
  facet normal -1 0 0
    outer loop
      vertex 0.1 2.5 0
      vertex 0.1 2.5 2
      vertex 0.1 3.5 0
    endloop
  endfacet
  facet normal -1 0 0
    outer loop
      vertex 0.1 2.5 2
      vertex 0.1 3.5 2
      vertex 0.1 3.5 0
    endloop
  endfacet
  facet normal 0 0 -1
    outer loop
      vertex 9.9 2.5 0
      vertex 10 2.5 0
      vertex 10 0 0
    endloop
  endfacet
  facet normal 0 0 -1
    outer loop
      vertex 0 0 0
      vertex -7.63616e-16 2.5 0
      vertex 0.1 2.5 0
    endloop
  endfacet
  facet normal 0 0 -1
    outer loop
      vertex -1.09635e-15 6 0
      vertex 10 6 0
      vertex 9.9 3.5 0
    endloop
  endfacet
  facet normal 0 0 -1
    outer loop
      vertex 10 6 0
      vertex 10 3.5 0
      vertex 9.9 3.5 0
    endloop
  endfacet
  facet normal 0 0 -1
    outer loop
      vertex -9.47313e-16 3.5 0
      vertex -1.09635e-15 6 0
      vertex 0.1 3.5 0
    endloop
  endfacet
  facet normal 0 0 -1
    outer loop
      vertex -1.09635e-15 6 0
      vertex 9.9 3.5 0
      vertex 0.1 3.5 0
    endloop
  endfacet
  facet normal 0 0 -1
    outer loop
      vertex 0.1 3.5 0
      vertex 9.9 3.5 0
      vertex 0.1 2.5 0
    endloop
  endfacet
  facet normal 0 0 -1
    outer loop
      vertex 9.9 3.5 0
      vertex 9.9 2.5 0
      vertex 0.1 2.5 0
    endloop
  endfacet
  facet normal 0 0 -1
    outer loop
      vertex 0.1 2.5 0
      vertex 9.9 2.5 0
      vertex 0 0 0
    endloop
  endfacet
  facet normal 0 0 -1
    outer loop
      vertex 9.9 2.5 0
      vertex 10 0 0
      vertex 0 0 0
    endloop
  endfacet
endsolid Onshape
