solid AssimpScene
 facet normal 1 0 0
  outer loop
  vertex -3.2 -2.9 0.7
  vertex -3.2 -5 0.7
  vertex -3.2 -2.9 0
  endloop
 endfacet

 facet normal 1 0 0
  outer loop
  vertex -3.2 -5 0.7
  vertex -3.2 -5 0
  vertex -3.2 -2.9 0
  endloop
 endfacet

 facet normal 0 0 -1
  outer loop
  vertex -4 -2.9 0
  vertex -3.2 -2.9 0
  vertex -4 -4.5 0
  endloop
 endfacet

 facet normal 0 0 -1
  outer loop
  vertex -3.2 -2.9 0
  vertex -3.2 -5 0
  vertex -4 -4.5 0
  endloop
 endfacet

 facet normal 0 0 -1
  outer loop
  vertex -4 -4.5 0
  vertex -3.2 -5 0
  vertex -5 -4.5 0
  endloop
 endfacet

 facet normal 0 0 -1
  outer loop
  vertex -3.2 -5 0
  vertex -5 -5 0
  vertex -5 -4.5 0
  endloop
 endfacet

 facet normal 0 -1 0
  outer loop
  vertex -3.2 -5 0.7
  vertex -5 -5 0.7
  vertex -3.2 -5 0
  endloop
 endfacet

 facet normal 0 -1 0
  outer loop
  vertex -5 -5 0.7
  vertex -5 -5 0
  vertex -3.2 -5 0
  endloop
 endfacet

 facet normal -1 0 0
  outer loop
  vertex -4 -4.5 0.7
  vertex -4 -2.9 0.7
  vertex -4 -4.5 0
  endloop
 endfacet

 facet normal -1 0 0
  outer loop
  vertex -4 -2.9 0.7
  vertex -4 -2.9 0
  vertex -4 -4.5 0
  endloop
 endfacet

 facet normal 0 0 1
  outer loop
  vertex -5 -4.5 0.7
  vertex -5 -5 0.7
  vertex -4 -4.5 0.7
  endloop
 endfacet

 facet normal 0 0 1
  outer loop
  vertex -5 -5 0.7
  vertex -3.2 -5 0.7
  vertex -4 -4.5 0.7
  endloop
 endfacet

 facet normal 0 0 1
  outer loop
  vertex -4 -4.5 0.7
  vertex -3.2 -5 0.7
  vertex -4 -2.9 0.7
  endloop
 endfacet

 facet normal 0 0 1
  outer loop
  vertex -3.2 -5 0.7
  vertex -3.2 -2.9 0.7
  vertex -4 -2.9 0.7
  endloop
 endfacet

 facet normal 0 1 0
  outer loop
  vertex -4 -2.9 0.7
  vertex -3.2 -2.9 0.7
  vertex -4 -2.9 0
  endloop
 endfacet

 facet normal 0 1 0
  outer loop
  vertex -3.2 -2.9 0.7
  vertex -3.2 -2.9 0
  vertex -4 -2.9 0
  endloop
 endfacet

 facet normal 0 1 0
  outer loop
  vertex -5 -4.5 0.7
  vertex -4 -4.5 0.7
  vertex -5 -4.5 0
  endloop
 endfacet

 facet normal 0 1 0
  outer loop
  vertex -4 -4.5 0.7
  vertex -4 -4.5 0
  vertex -5 -4.5 0
  endloop
 endfacet

 facet normal -1 0 0
  outer loop
  vertex -5 -5 0.7
  vertex -5 -4.5 0.7
  vertex -5 -5 0
  endloop
 endfacet

 facet normal -1 0 0
  outer loop
  vertex -5 -4.5 0.7
  vertex -5 -4.5 0
  vertex -5 -5 0
  endloop
 endfacet

 facet normal 0 0 -1
  outer loop
  vertex 5 -4.5 0
  vertex 5 -5 0
  vertex 4 -4.5 0
  endloop
 endfacet

 facet normal 0 0 -1
  outer loop
  vertex 5 -5 0
  vertex 3.2 -5 0
  vertex 4 -4.5 0
  endloop
 endfacet

 facet normal 0 0 -1
  outer loop
  vertex 4 -4.5 0
  vertex 3.2 -5 0
  vertex 4 -2.9 0
  endloop
 endfacet

 facet normal 0 0 -1
  outer loop
  vertex 3.2 -5 0
  vertex 3.2 -2.9 0
  vertex 4 -2.9 0
  endloop
 endfacet

 facet normal 0 0 1
  outer loop
  vertex 4 -2.9 0.7
  vertex 3.2 -2.9 0.7
  vertex 4 -4.5 0.7
  endloop
 endfacet

 facet normal 0 0 1
  outer loop
  vertex 3.2 -2.9 0.7
  vertex 3.2 -5 0.7
  vertex 4 -4.5 0.7
  endloop
 endfacet

 facet normal 0 0 1
  outer loop
  vertex 4 -4.5 0.7
  vertex 3.2 -5 0.7
  vertex 5 -4.5 0.7
  endloop
 endfacet

 facet normal 0 0 1
  outer loop
  vertex 3.2 -5 0.7
  vertex 5 -5 0.7
  vertex 5 -4.5 0.7
  endloop
 endfacet

 facet normal 1 0 0
  outer loop
  vertex 4 -2.9 0.7
  vertex 4 -4.5 0.7
  vertex 4 -2.9 0
  endloop
 endfacet

 facet normal 1 0 0
  outer loop
  vertex 4 -4.5 0.7
  vertex 4 -4.5 0
  vertex 4 -2.9 0
  endloop
 endfacet

 facet normal 0 1 0
  outer loop
  vertex 4 -4.5 0.7
  vertex 5 -4.5 0.7
  vertex 4 -4.5 0
  endloop
 endfacet

 facet normal 0 1 0
  outer loop
  vertex 5 -4.5 0.7
  vertex 5 -4.5 0
  vertex 4 -4.5 0
  endloop
 endfacet

 facet normal 0 1 0
  outer loop
  vertex 3.2 -2.9 0.7
  vertex 4 -2.9 0.7
  vertex 3.2 -2.9 0
  endloop
 endfacet

 facet normal 0 1 0
  outer loop
  vertex 4 -2.9 0.7
  vertex 4 -2.9 0
  vertex 3.2 -2.9 0
  endloop
 endfacet

 facet normal -1 0 0
  outer loop
  vertex 3.2 -5 0.7
  vertex 3.2 -2.9 0.7
  vertex 3.2 -5 0
  endloop
 endfacet

 facet normal -1 0 0
  outer loop
  vertex 3.2 -2.9 0.7
  vertex 3.2 -2.9 0
  vertex 3.2 -5 0
  endloop
 endfacet

 facet normal 0 -1 0
  outer loop
  vertex 5 -5 0.7
  vertex 3.2 -5 0.7
  vertex 5 -5 0
  endloop
 endfacet

 facet normal 0 -1 0
  outer loop
  vertex 3.2 -5 0.7
  vertex 3.2 -5 0
  vertex 5 -5 0
  endloop
 endfacet

 facet normal 1 0 0
  outer loop
  vertex 5 -4.5 0.7
  vertex 5 -5 0.7
  vertex 5 -4.5 0
  endloop
 endfacet

 facet normal 1 0 0
  outer loop
  vertex 5 -5 0.7
  vertex 5 -5 0
  vertex 5 -4.5 0
  endloop
 endfacet

 facet normal 0 0 -1
  outer loop
  vertex 3 0.4 0
  vertex 3 -0.3 0
  vertex 0.9 0.4 0
  endloop
 endfacet

 facet normal 0 0 -1
  outer loop
  vertex 3 -0.3 0
  vertex 0.2 -0.3 0
  vertex 0.9 0.4 0
  endloop
 endfacet

 facet normal 0 0 -1
  outer loop
  vertex 0.9 0.4 0
  vertex 0.2 -0.3 0
  vertex 0.9 3.2 0
  endloop
 endfacet

 facet normal 0 0 -1
  outer loop
  vertex 0.2 -0.3 0
  vertex 0.2 3.2 0
  vertex 0.9 3.2 0
  endloop
 endfacet

 facet normal 0 0 1
  outer loop
  vertex 0.9 3.2 0.7
  vertex 0.2 3.2 0.7
  vertex 0.9 0.4 0.7
  endloop
 endfacet

 facet normal 0 0 1
  outer loop
  vertex 0.2 3.2 0.7
  vertex 0.2 -0.3 0.7
  vertex 0.9 0.4 0.7
  endloop
 endfacet

 facet normal 0 0 1
  outer loop
  vertex 0.9 0.4 0.7
  vertex 0.2 -0.3 0.7
  vertex 3 0.4 0.7
  endloop
 endfacet

 facet normal 0 0 1
  outer loop
  vertex 0.2 -0.3 0.7
  vertex 3 -0.3 0.7
  vertex 3 0.4 0.7
  endloop
 endfacet

 facet normal 1 0 0
  outer loop
  vertex 0.9 3.2 0.7
  vertex 0.9 0.4 0.7
  vertex 0.9 3.2 0
  endloop
 endfacet

 facet normal 1 0 0
  outer loop
  vertex 0.9 0.4 0.7
  vertex 0.9 0.4 0
  vertex 0.9 3.2 0
  endloop
 endfacet

 facet normal 0 1 0
  outer loop
  vertex 0.9 0.4 0.7
  vertex 3 0.4 0.7
  vertex 0.9 0.4 0
  endloop
 endfacet

 facet normal 0 1 0
  outer loop
  vertex 3 0.4 0.7
  vertex 3 0.4 0
  vertex 0.9 0.4 0
  endloop
 endfacet

 facet normal 0 1 0
  outer loop
  vertex 0.2 3.2 0.7
  vertex 0.9 3.2 0.7
  vertex 0.2 3.2 0
  endloop
 endfacet

 facet normal 0 1 0
  outer loop
  vertex 0.9 3.2 0.7
  vertex 0.9 3.2 0
  vertex 0.2 3.2 0
  endloop
 endfacet

 facet normal -1 0 0
  outer loop
  vertex 0.2 -0.3 0.7
  vertex 0.2 3.2 0.7
  vertex 0.2 -0.3 0
  endloop
 endfacet

 facet normal -1 0 0
  outer loop
  vertex 0.2 3.2 0.7
  vertex 0.2 3.2 0
  vertex 0.2 -0.3 0
  endloop
 endfacet

 facet normal 0 -1 0
  outer loop
  vertex 3 -0.3 0.7
  vertex 0.2 -0.3 0.7
  vertex 3 -0.3 0
  endloop
 endfacet

 facet normal 0 -1 0
  outer loop
  vertex 0.2 -0.3 0.7
  vertex 0.2 -0.3 0
  vertex 3 -0.3 0
  endloop
 endfacet

 facet normal 1 0 0
  outer loop
  vertex 3 0.4 0.7
  vertex 3 -0.3 0.7
  vertex 3 0.4 0
  endloop
 endfacet

 facet normal 1 0 0
  outer loop
  vertex 3 -0.3 0.7
  vertex 3 -0.3 0
  vertex 3 0.4 0
  endloop
 endfacet

 facet normal 0 0 -1
  outer loop
  vertex 5 1.33023 0
  vertex 4.3 1.33023 0
  vertex 5 4.13023 0
  endloop
 endfacet

 facet normal 0 0 -1
  outer loop
  vertex 4.3 1.33023 0
  vertex 4.3 4.13023 0
  vertex 5 4.13023 0
  endloop
 endfacet

 facet normal 0 0 1
  outer loop
  vertex 4.3 1.33023 0.7
  vertex 5 1.33023 0.7
  vertex 4.3 4.13023 0.7
  endloop
 endfacet

 facet normal 0 0 1
  outer loop
  vertex 5 1.33023 0.7
  vertex 5 4.13023 0.7
  vertex 4.3 4.13023 0.7
  endloop
 endfacet

 facet normal 0 1 0
  outer loop
  vertex 4.3 4.13023 0.7
  vertex 5 4.13023 0.7
  vertex 4.3 4.13023 0
  endloop
 endfacet

 facet normal 0 1 0
  outer loop
  vertex 5 4.13023 0.7
  vertex 5 4.13023 0
  vertex 4.3 4.13023 0
  endloop
 endfacet

 facet normal -1 0 0
  outer loop
  vertex 4.3 1.33023 0.7
  vertex 4.3 4.13023 0.7
  vertex 4.3 1.33023 0
  endloop
 endfacet

 facet normal -1 0 0
  outer loop
  vertex 4.3 4.13023 0.7
  vertex 4.3 4.13023 0
  vertex 4.3 1.33023 0
  endloop
 endfacet

 facet normal 0 -1 0
  outer loop
  vertex 5 1.33023 0.7
  vertex 4.3 1.33023 0.7
  vertex 5 1.33023 0
  endloop
 endfacet

 facet normal 0 -1 0
  outer loop
  vertex 4.3 1.33023 0.7
  vertex 4.3 1.33023 0
  vertex 5 1.33023 0
  endloop
 endfacet

 facet normal 1 0 0
  outer loop
  vertex 5 4.13023 0.7
  vertex 5 1.33023 0.7
  vertex 5 4.13023 0
  endloop
 endfacet

 facet normal 1 0 0
  outer loop
  vertex 5 1.33023 0.7
  vertex 5 1.33023 0
  vertex 5 4.13023 0
  endloop
 endfacet

 facet normal 0 0 -1
  outer loop
  vertex 1.20998e-15 -4.5 0
  vertex 1.24059e-15 -5 0
  vertex -1.08265 -4.5 0
  endloop
 endfacet

 facet normal 0 0 -1
  outer loop
  vertex 1.24059e-15 -5 0
  vertex -1.88265 -5 0
  vertex -1.08265 -4.5 0
  endloop
 endfacet

 facet normal 0 0 -1
  outer loop
  vertex -1.08265 -4.5 0
  vertex -1.88265 -5 0
  vertex -1.08265 -2.9 0
  endloop
 endfacet

 facet normal 0 0 -1
  outer loop
  vertex -1.88265 -5 0
  vertex -1.88265 -2.9 0
  vertex -1.08265 -2.9 0
  endloop
 endfacet

 facet normal 0 0 1
  outer loop
  vertex -1.08265 -2.9 0.7
  vertex -1.88265 -2.9 0.7
  vertex -1.08265 -4.5 0.7
  endloop
 endfacet

 facet normal 0 0 1
  outer loop
  vertex -1.88265 -2.9 0.7
  vertex -1.88265 -5 0.7
  vertex -1.08265 -4.5 0.7
  endloop
 endfacet

 facet normal 0 0 1
  outer loop
  vertex -1.08265 -4.5 0.7
  vertex -1.88265 -5 0.7
  vertex 1.20998e-15 -4.5 0.7
  endloop
 endfacet

 facet normal 0 0 1
  outer loop
  vertex -1.88265 -5 0.7
  vertex 1.24059e-15 -5 0.7
  vertex 1.20998e-15 -4.5 0.7
  endloop
 endfacet

 facet normal 1 0 0
  outer loop
  vertex -1.08265 -2.9 0.7
  vertex -1.08265 -4.5 0.7
  vertex -1.08265 -2.9 0
  endloop
 endfacet

 facet normal 1 0 0
  outer loop
  vertex -1.08265 -4.5 0.7
  vertex -1.08265 -4.5 0
  vertex -1.08265 -2.9 0
  endloop
 endfacet

 facet normal 0 1 0
  outer loop
  vertex -1.08265 -4.5 0.7
  vertex 1.20998e-15 -4.5 0.7
  vertex -1.08265 -4.5 0
  endloop
 endfacet

 facet normal 0 1 0
  outer loop
  vertex 1.20998e-15 -4.5 0.7
  vertex 1.20998e-15 -4.5 0
  vertex -1.08265 -4.5 0
  endloop
 endfacet

 facet normal 0 1 0
  outer loop
  vertex -1.88265 -2.9 0.7
  vertex -1.08265 -2.9 0.7
  vertex -1.88265 -2.9 0
  endloop
 endfacet

 facet normal 0 1 0
  outer loop
  vertex -1.08265 -2.9 0.7
  vertex -1.08265 -2.9 0
  vertex -1.88265 -2.9 0
  endloop
 endfacet

 facet normal -1 0 0
  outer loop
  vertex -1.88265 -5 0.7
  vertex -1.88265 -2.9 0.7
  vertex -1.88265 -5 0
  endloop
 endfacet

 facet normal -1 0 0
  outer loop
  vertex -1.88265 -2.9 0.7
  vertex -1.88265 -2.9 0
  vertex -1.88265 -5 0
  endloop
 endfacet

 facet normal 0 -1 0
  outer loop
  vertex 1.24059e-15 -5 0.7
  vertex -1.88265 -5 0.7
  vertex 1.24059e-15 -5 0
  endloop
 endfacet

 facet normal 0 -1 0
  outer loop
  vertex -1.88265 -5 0.7
  vertex -1.88265 -5 0
  vertex 1.24059e-15 -5 0
  endloop
 endfacet

 facet normal 1 6.12322e-17 0
  outer loop
  vertex 1.20998e-15 -4.5 0.7
  vertex 1.24059e-15 -5 0.7
  vertex 1.20998e-15 -4.5 0
  endloop
 endfacet

 facet normal 1 6.12322e-17 0
  outer loop
  vertex 1.24059e-15 -5 0.7
  vertex 1.24059e-15 -5 0
  vertex 1.20998e-15 -4.5 0
  endloop
 endfacet

 facet normal 0 0 -1
  outer loop
  vertex 1.2 -2.9 0
  vertex 2 -2.9 0
  vertex 1.2 -4.5 0
  endloop
 endfacet

 facet normal 0 0 -1
  outer loop
  vertex 2 -2.9 0
  vertex 2 -5 0
  vertex 1.2 -4.5 0
  endloop
 endfacet

 facet normal 0 0 -1
  outer loop
  vertex 1.2 -4.5 0
  vertex 2 -5 0
  vertex 0.2 -4.5 0
  endloop
 endfacet

 facet normal 0 0 -1
  outer loop
  vertex 2 -5 0
  vertex 0.2 -5 0
  vertex 0.2 -4.5 0
  endloop
 endfacet

 facet normal 0 0 1
  outer loop
  vertex 0.2 -4.5 0.7
  vertex 0.2 -5 0.7
  vertex 1.2 -4.5 0.7
  endloop
 endfacet

 facet normal 0 0 1
  outer loop
  vertex 0.2 -5 0.7
  vertex 2 -5 0.7
  vertex 1.2 -4.5 0.7
  endloop
 endfacet

 facet normal 0 0 1
  outer loop
  vertex 1.2 -4.5 0.7
  vertex 2 -5 0.7
  vertex 1.2 -2.9 0.7
  endloop
 endfacet

 facet normal 0 0 1
  outer loop
  vertex 2 -5 0.7
  vertex 2 -2.9 0.7
  vertex 1.2 -2.9 0.7
  endloop
 endfacet

 facet normal 1 0 0
  outer loop
  vertex 2 -2.9 0.7
  vertex 2 -5 0.7
  vertex 2 -2.9 0
  endloop
 endfacet

 facet normal 1 0 0
  outer loop
  vertex 2 -5 0.7
  vertex 2 -5 0
  vertex 2 -2.9 0
  endloop
 endfacet

 facet normal 0 -1 0
  outer loop
  vertex 2 -5 0.7
  vertex 0.2 -5 0.7
  vertex 2 -5 0
  endloop
 endfacet

 facet normal 0 -1 0
  outer loop
  vertex 0.2 -5 0.7
  vertex 0.2 -5 0
  vertex 2 -5 0
  endloop
 endfacet

 facet normal 0 1 0
  outer loop
  vertex 1.2 -2.9 0.7
  vertex 2 -2.9 0.7
  vertex 1.2 -2.9 0
  endloop
 endfacet

 facet normal 0 1 0
  outer loop
  vertex 2 -2.9 0.7
  vertex 2 -2.9 0
  vertex 1.2 -2.9 0
  endloop
 endfacet

 facet normal -1 0 0
  outer loop
  vertex 1.2 -4.5 0.7
  vertex 1.2 -2.9 0.7
  vertex 1.2 -4.5 0
  endloop
 endfacet

 facet normal -1 0 0
  outer loop
  vertex 1.2 -2.9 0.7
  vertex 1.2 -2.9 0
  vertex 1.2 -4.5 0
  endloop
 endfacet

 facet normal 0 1 0
  outer loop
  vertex 0.2 -4.5 0.7
  vertex 1.2 -4.5 0.7
  vertex 0.2 -4.5 0
  endloop
 endfacet

 facet normal 0 1 0
  outer loop
  vertex 1.2 -4.5 0.7
  vertex 1.2 -4.5 0
  vertex 0.2 -4.5 0
  endloop
 endfacet

 facet normal -1 0 0
  outer loop
  vertex 0.2 -5 0.7
  vertex 0.2 -4.5 0.7
  vertex 0.2 -5 0
  endloop
 endfacet

 facet normal -1 0 0
  outer loop
  vertex 0.2 -4.5 0.7
  vertex 0.2 -4.5 0
  vertex 0.2 -5 0
  endloop
 endfacet

 facet normal 0 0 -1
  outer loop
  vertex 2.44478 -1.7 0
  vertex 1.04478 -1.7 0
  vertex 2.44478 -1 0
  endloop
 endfacet

 facet normal 0 0 -1
  outer loop
  vertex 1.04478 -1.7 0
  vertex 1.04478 -1 0
  vertex 2.44478 -1 0
  endloop
 endfacet

 facet normal 0 0 1
  outer loop
  vertex 1.04478 -1.7 0.7
  vertex 2.44478 -1.7 0.7
  vertex 1.04478 -1 0.7
  endloop
 endfacet

 facet normal 0 0 1
  outer loop
  vertex 2.44478 -1.7 0.7
  vertex 2.44478 -1 0.7
  vertex 1.04478 -1 0.7
  endloop
 endfacet

 facet normal -1 0 0
  outer loop
  vertex 1.04478 -1.7 0.7
  vertex 1.04478 -1 0.7
  vertex 1.04478 -1.7 0
  endloop
 endfacet

 facet normal -1 0 0
  outer loop
  vertex 1.04478 -1 0.7
  vertex 1.04478 -1 0
  vertex 1.04478 -1.7 0
  endloop
 endfacet

 facet normal 0 -1 0
  outer loop
  vertex 2.44478 -1.7 0.7
  vertex 1.04478 -1.7 0.7
  vertex 2.44478 -1.7 0
  endloop
 endfacet

 facet normal 0 -1 0
  outer loop
  vertex 1.04478 -1.7 0.7
  vertex 1.04478 -1.7 0
  vertex 2.44478 -1.7 0
  endloop
 endfacet

 facet normal 0 1 0
  outer loop
  vertex 1.04478 -1 0.7
  vertex 2.44478 -1 0.7
  vertex 1.04478 -1 0
  endloop
 endfacet

 facet normal 0 1 0
  outer loop
  vertex 2.44478 -1 0.7
  vertex 2.44478 -1 0
  vertex 1.04478 -1 0
  endloop
 endfacet

 facet normal 1 0 0
  outer loop
  vertex 2.44478 -1 0.7
  vertex 2.44478 -1.7 0.7
  vertex 2.44478 -1 0
  endloop
 endfacet

 facet normal 1 0 0
  outer loop
  vertex 2.44478 -1.7 0.7
  vertex 2.44478 -1.7 0
  vertex 2.44478 -1 0
  endloop
 endfacet

 facet normal 0 0 1
  outer loop
  vertex -5 -1.3 0.7
  vertex -4.3 -1.3 0.7
  vertex -5 4.1 0.7
  endloop
 endfacet

 facet normal 0 0 1
  outer loop
  vertex -4.3 -1.3 0.7
  vertex -4.3 4.1 0.7
  vertex -5 4.1 0.7
  endloop
 endfacet

 facet normal 0 1 0
  outer loop
  vertex -5 4.1 0.7
  vertex -4.3 4.1 0.7
  vertex -5 4.1 0
  endloop
 endfacet

 facet normal 0 1 0
  outer loop
  vertex -4.3 4.1 0.7
  vertex -4.3 4.1 0
  vertex -5 4.1 0
  endloop
 endfacet

 facet normal 0 0 -1
  outer loop
  vertex -4.3 -1.3 0
  vertex -5 -1.3 0
  vertex -4.3 4.1 0
  endloop
 endfacet

 facet normal 0 0 -1
  outer loop
  vertex -5 -1.3 0
  vertex -5 4.1 0
  vertex -4.3 4.1 0
  endloop
 endfacet

 facet normal -1 0 0
  outer loop
  vertex -5 -1.3 0.7
  vertex -5 4.1 0.7
  vertex -5 -1.3 0
  endloop
 endfacet

 facet normal -1 0 0
  outer loop
  vertex -5 4.1 0.7
  vertex -5 4.1 0
  vertex -5 -1.3 0
  endloop
 endfacet

 facet normal 0 -1 0
  outer loop
  vertex -4.3 -1.3 0.7
  vertex -5 -1.3 0.7
  vertex -4.3 -1.3 0
  endloop
 endfacet

 facet normal 0 -1 0
  outer loop
  vertex -5 -1.3 0.7
  vertex -5 -1.3 0
  vertex -4.3 -1.3 0
  endloop
 endfacet

 facet normal 1 0 0
  outer loop
  vertex -4.3 4.1 0.7
  vertex -4.3 -1.3 0.7
  vertex -4.3 4.1 0
  endloop
 endfacet

 facet normal 1 0 0
  outer loop
  vertex -4.3 -1.3 0.7
  vertex -4.3 -1.3 0
  vertex -4.3 4.1 0
  endloop
 endfacet

 facet normal 0 0 -1
  outer loop
  vertex 9.91528e-16 -1.3 0
  vertex -0.7 -1.3 0
  vertex -2.94352e-16 2.9 0
  endloop
 endfacet

 facet normal 0 0 -1
  outer loop
  vertex -0.7 -1.3 0
  vertex -0.7 2.9 0
  vertex -2.94352e-16 2.9 0
  endloop
 endfacet

 facet normal 0 0 1
  outer loop
  vertex -0.7 -1.3 0.7
  vertex 9.91528e-16 -1.3 0.7
  vertex -0.7 2.9 0.7
  endloop
 endfacet

 facet normal 0 0 1
  outer loop
  vertex 9.91528e-16 -1.3 0.7
  vertex -2.94352e-16 2.9 0.7
  vertex -0.7 2.9 0.7
  endloop
 endfacet

 facet normal 0 1 0
  outer loop
  vertex -0.7 2.9 0.7
  vertex -2.94352e-16 2.9 0.7
  vertex -0.7 2.9 0
  endloop
 endfacet

 facet normal 0 1 0
  outer loop
  vertex -2.94352e-16 2.9 0.7
  vertex -2.94352e-16 2.9 0
  vertex -0.7 2.9 0
  endloop
 endfacet

 facet normal -1 0 0
  outer loop
  vertex -0.7 -1.3 0.7
  vertex -0.7 2.9 0.7
  vertex -0.7 -1.3 0
  endloop
 endfacet

 facet normal -1 0 0
  outer loop
  vertex -0.7 2.9 0.7
  vertex -0.7 2.9 0
  vertex -0.7 -1.3 0
  endloop
 endfacet

 facet normal 0 -1 0
  outer loop
  vertex 9.91528e-16 -1.3 0.7
  vertex -0.7 -1.3 0.7
  vertex 9.91528e-16 -1.3 0
  endloop
 endfacet

 facet normal 0 -1 0
  outer loop
  vertex -0.7 -1.3 0.7
  vertex -0.7 -1.3 0
  vertex 9.91528e-16 -1.3 0
  endloop
 endfacet

 facet normal 1 3.06162e-16 0
  outer loop
  vertex -2.94352e-16 2.9 0.7
  vertex 9.91528e-16 -1.3 0.7
  vertex -2.94352e-16 2.9 0
  endloop
 endfacet

 facet normal 1 3.06162e-16 0
  outer loop
  vertex 9.91528e-16 -1.3 0.7
  vertex 9.91528e-16 -1.3 0
  vertex -2.94352e-16 2.9 0
  endloop
 endfacet

endsolid AssimpScene
