solid Onshape
  facet normal 0 0 -1
    outer loop
      vertex -1.11022e-15 2.9 0.7
      vertex 9.91528e-16 -1.3 0.7
      vertex -0.7 2.9 0.7
    endloop
  endfacet
  facet normal 0 0 -1
    outer loop
      vertex 9.91528e-16 -1.3 0.7
      vertex -0.7 -1.3 0.7
      vertex -0.7 2.9 0.7
    endloop
  endfacet
  facet normal 1 0 0
    outer loop
      vertex -0.7 2.9 0.7
      vertex -0.7 -1.3 0.7
      vertex -0.7 2.9 0
    endloop
  endfacet
  facet normal 1 0 0
    outer loop
      vertex -0.7 -1.3 0.7
      vertex -0.7 -1.3 0
      vertex -0.7 2.9 0
    endloop
  endfacet
  facet normal 0 0 -1
    outer loop
      vertex -4.3 4.1 0.7
      vertex -4.3 -1.3 0.7
      vertex -5 4.1 0.7
    endloop
  endfacet
  facet normal 0 0 -1
    outer loop
      vertex -4.3 -1.3 0.7
      vertex -5 -1.3 0.7
      vertex -5 4.1 0.7
    endloop
  endfacet
  facet normal 0 -1 0
    outer loop
      vertex -4.3 4.1 0.7
      vertex -5 4.1 0.7
      vertex -4.3 4.1 0
    endloop
  endfacet
  facet normal 0 -1 0
    outer loop
      vertex -5 4.1 0.7
      vertex -5 4.1 0
      vertex -4.3 4.1 0
    endloop
  endfacet
  facet normal -1 0 0
    outer loop
      vertex -4.3 -1.3 0.7
      vertex -4.3 4.1 0.7
      vertex -4.3 -1.3 0
    endloop
  endfacet
  facet normal -1 0 0
    outer loop
      vertex -4.3 4.1 0.7
      vertex -4.3 4.1 0
      vertex -4.3 -1.3 0
    endloop
  endfacet
  facet normal 0 0 -1
    outer loop
      vertex -4.5 4.6 2
      vertex -5 4.6 2
      vertex -4.5 5.5 2
    endloop
  endfacet
  facet normal 0 0 -1
    outer loop
      vertex -5 4.6 2
      vertex -5 5.5 2
      vertex -4.5 5.5 2
    endloop
  endfacet
  facet normal -1 0 0
    outer loop
      vertex -4.5 4.6 2
      vertex -4.5 5.5 2
      vertex -4.5 4.6 0
    endloop
  endfacet
  facet normal -1 0 0
    outer loop
      vertex -4.5 5.5 2
      vertex -4.5 5.5 0
      vertex -4.5 4.6 0
    endloop
  endfacet
  facet normal 0 1 0
    outer loop
      vertex -5 4.6 2
      vertex -4.5 4.6 2
      vertex -5 4.6 0
    endloop
  endfacet
  facet normal 0 1 0
    outer loop
      vertex -4.5 4.6 2
      vertex -4.5 4.6 0
      vertex -5 4.6 0
    endloop
  endfacet
  facet normal 0 0 -1
    outer loop
      vertex 4.5 4.6 2
      vertex 4.5 5.5 2
      vertex 5 4.6 2
    endloop
  endfacet
  facet normal 0 0 -1
    outer loop
      vertex 4.5 5.5 2
      vertex 5 5.5 2
      vertex 5 4.6 2
    endloop
  endfacet
  facet normal 0 1 0
    outer loop
      vertex 4.5 4.6 2
      vertex 5 4.6 2
      vertex 4.5 4.6 0
    endloop
  endfacet
  facet normal 0 1 0
    outer loop
      vertex 5 4.6 2
      vertex 5 4.6 0
      vertex 4.5 4.6 0
    endloop
  endfacet
  facet normal 1 0 0
    outer loop
      vertex 4.5 5.5 2
      vertex 4.5 4.6 2
      vertex 4.5 5.5 0
    endloop
  endfacet
  facet normal 1 0 0
    outer loop
      vertex 4.5 4.6 2
      vertex 4.5 4.6 0
      vertex 4.5 5.5 0
    endloop
  endfacet
  facet normal 0 -1 0
    outer loop
      vertex 3 -5.3 1
      vertex 3 -5.3 2
      vertex 1 -5.3 1
    endloop
  endfacet
  facet normal 0 -1 0
    outer loop
      vertex 3 -5.3 2
      vertex 1 -5.3 2
      vertex 1 -5.3 1
    endloop
  endfacet
  facet normal 0 0 -1
    outer loop
      vertex 1 -5.3 2
      vertex 3 -5.3 2
      vertex 1 -5.5 2
    endloop
  endfacet
  facet normal 0 0 -1
    outer loop
      vertex 3 -5.3 2
      vertex 3 -5.5 2
      vertex 1 -5.5 2
    endloop
  endfacet
  facet normal -1 0 0
    outer loop
      vertex 3 -5.3 2
      vertex 3 -5.3 1
      vertex 3 -5.5 2
    endloop
  endfacet
  facet normal -1 0 0
    outer loop
      vertex 3 -5.3 1
      vertex 3 -5.5 1
      vertex 3 -5.5 2
    endloop
  endfacet
  facet normal 0 1 0
    outer loop
      vertex -3 5.3 2
      vertex -2 5.3 2
      vertex -3 5.3 0
    endloop
  endfacet
  facet normal 0 1 0
    outer loop
      vertex -2 5.3 2
      vertex -2 5.3 0
      vertex -3 5.3 0
    endloop
  endfacet
  facet normal 0 1 0
    outer loop
      vertex 2 5.3 2
      vertex 3 5.3 2
      vertex 2 5.3 0
    endloop
  endfacet
  facet normal 0 1 0
    outer loop
      vertex 3 5.3 2
      vertex 3 5.3 0
      vertex 2 5.3 0
    endloop
  endfacet
  facet normal -1 0 0
    outer loop
      vertex 3 5.3 0
      vertex 3 5.3 2
      vertex 3 5.5 0
    endloop
  endfacet
  facet normal -1 0 0
    outer loop
      vertex 3 5.3 2
      vertex 3 5.5 2
      vertex 3 5.5 0
    endloop
  endfacet
  facet normal 0 0 -1
    outer loop
      vertex 3 5.3 2
      vertex 2 5.3 2
      vertex 3 5.5 2
    endloop
  endfacet
  facet normal 0 0 -1
    outer loop
      vertex 2 5.3 2
      vertex 2 5.5 2
      vertex 3 5.5 2
    endloop
  endfacet
  facet normal 0 0 1
    outer loop
      vertex 1.44329e-15 -5.5 3
      vertex 7.15703e-16 -1.5 3
      vertex -5 -5.5 3
    endloop
  endfacet
  facet normal 0 0 1
    outer loop
      vertex 7.15703e-16 -1.5 3
      vertex -2 -1.5 3
      vertex -5 -5.5 3
    endloop
  endfacet
  facet normal 0 0 1
    outer loop
      vertex 0.2 2.9 3
      vertex 0.2 -0.3 3
      vertex 4 -0.3 3
    endloop
  endfacet
  facet normal 0 0 1
    outer loop
      vertex 5 5.5 3
      vertex -5 5.5 3
      vertex -5.4956e-15 2.9 3
    endloop
  endfacet
  facet normal 0 0 1
    outer loop
      vertex -5 5.5 3
      vertex -5 -1.3 3
      vertex -5.4956e-15 2.9 3
    endloop
  endfacet
  facet normal 0 0 1
    outer loop
      vertex -5.4956e-15 2.9 3
      vertex -5 -1.3 3
      vertex -3 -1.3 3
    endloop
  endfacet
  facet normal 0 0 1
    outer loop
      vertex -1.11022e-15 -1.3 3
      vertex -5.4956e-15 2.9 3
      vertex -2 -1.3 3
    endloop
  endfacet
  facet normal 0 0 1
    outer loop
      vertex -5.4956e-15 2.9 3
      vertex -3 -1.3 3
      vertex -2 -1.3 3
    endloop
  endfacet
  facet normal 0 0 1
    outer loop
      vertex -2 -1.3 3
      vertex -3 -1.3 3
      vertex -2 -1.5 3
    endloop
  endfacet
  facet normal 0 0 1
    outer loop
      vertex -3 -1.3 3
      vertex -3 -1.5 3
      vertex -2 -1.5 3
    endloop
  endfacet
  facet normal 0 0 1
    outer loop
      vertex -2 -1.5 3
      vertex -3 -1.5 3
      vertex -5 -5.5 3
    endloop
  endfacet
  facet normal 0 0 1
    outer loop
      vertex -3 -1.5 3
      vertex -5 -1.5 3
      vertex -5 -5.5 3
    endloop
  endfacet
  facet normal 0 0 1
    outer loop
      vertex 0.2 -0.5 3
      vertex 0.2 -5.5 3
      vertex 4 -0.5 3
    endloop
  endfacet
  facet normal 0 0 1
    outer loop
      vertex 0.2 -5.5 3
      vertex 5 -5.5 3
      vertex 4 -0.5 3
    endloop
  endfacet
  facet normal 0 0 1
    outer loop
      vertex 4 -0.5 3
      vertex 5 -5.5 3
      vertex 4 -0.3 3
    endloop
  endfacet
  facet normal 0 0 1
    outer loop
      vertex 5 -5.5 3
      vertex 5 5.5 3
      vertex 4 -0.3 3
    endloop
  endfacet
  facet normal 0 0 1
    outer loop
      vertex 4 -0.3 3
      vertex 5 5.5 3
      vertex 0.2 2.9 3
    endloop
  endfacet
  facet normal 0 0 1
    outer loop
      vertex 5 5.5 3
      vertex -5.4956e-15 2.9 3
      vertex 0.2 2.9 3
    endloop
  endfacet
  facet normal 1 0 0
    outer loop
      vertex 2 5.3 2
      vertex 2 5.3 0
      vertex 2 5.5 2
    endloop
  endfacet
  facet normal 1 0 0
    outer loop
      vertex 2 5.3 0
      vertex 2 5.5 0
      vertex 2 5.5 2
    endloop
  endfacet
  facet normal 0 -1 0
    outer loop
      vertex 3 -0.3 0
      vertex 4 -0.3 0
      vertex 3 -0.3 0.7
    endloop
  endfacet
  facet normal 0 -1 0
    outer loop
      vertex 4 -0.3 0
      vertex 4 -0.3 3
      vertex 3 -0.3 0.7
    endloop
  endfacet
  facet normal 0 -1 0
    outer loop
      vertex 3 -0.3 0.7
      vertex 4 -0.3 3
      vertex 0.2 -0.3 0.7
    endloop
  endfacet
  facet normal 0 -1 0
    outer loop
      vertex 4 -0.3 3
      vertex 0.2 -0.3 3
      vertex 0.2 -0.3 0.7
    endloop
  endfacet
  facet normal -1 0 0
    outer loop
      vertex -2 5.3 0
      vertex -2 5.3 2
      vertex -2 5.5 0
    endloop
  endfacet
  facet normal -1 0 0
    outer loop
      vertex -2 5.3 2
      vertex -2 5.5 2
      vertex -2 5.5 0
    endloop
  endfacet
  facet normal 1 0 0
    outer loop
      vertex 3.2 -2.9 0.7
      vertex 3.2 -5 0.7
      vertex 3.2 -2.9 0
    endloop
  endfacet
  facet normal 1 0 0
    outer loop
      vertex 3.2 -5 0.7
      vertex 3.2 -5 0
      vertex 3.2 -2.9 0
    endloop
  endfacet
  facet normal 1 0 0
    outer loop
      vertex -2 -1.3 3
      vertex -2 -1.5 3
      vertex -2 -1.3 0
    endloop
  endfacet
  facet normal 1 0 0
    outer loop
      vertex -2 -1.5 3
      vertex -2 -1.5 0
      vertex -2 -1.3 0
    endloop
  endfacet
  facet normal 0 1 0
    outer loop
      vertex 1.04478 -1.7 0.7
      vertex 2.44478 -1.7 0.7
      vertex 1.04478 -1.7 0
    endloop
  endfacet
  facet normal 0 1 0
    outer loop
      vertex 2.44478 -1.7 0.7
      vertex 2.44478 -1.7 0
      vertex 1.04478 -1.7 0
    endloop
  endfacet
  facet normal 0 0 -1
    outer loop
      vertex -2 5.3 2
      vertex -3 5.3 2
      vertex -2 5.5 2
    endloop
  endfacet
  facet normal 0 0 -1
    outer loop
      vertex -3 5.3 2
      vertex -3 5.5 2
      vertex -2 5.5 2
    endloop
  endfacet
  facet normal 0 0 -1
    outer loop
      vertex 2.44478 -1 0.7
      vertex 2.44478 -1.7 0.7
      vertex 1.04478 -1 0.7
    endloop
  endfacet
  facet normal 0 0 -1
    outer loop
      vertex 2.44478 -1.7 0.7
      vertex 1.04478 -1.7 0.7
      vertex 1.04478 -1 0.7
    endloop
  endfacet
  facet normal 0 -1 0
    outer loop
      vertex -4.3 -1.3 0
      vertex -3 -1.3 0
      vertex -4.3 -1.3 0.7
    endloop
  endfacet
  facet normal 0 -1 0
    outer loop
      vertex -3 -1.3 0
      vertex -3 -1.3 3
      vertex -4.3 -1.3 0.7
    endloop
  endfacet
  facet normal 0 -1 0
    outer loop
      vertex -4.3 -1.3 0.7
      vertex -3 -1.3 3
      vertex -5 -1.3 0.7
    endloop
  endfacet
  facet normal 0 -1 0
    outer loop
      vertex -3 -1.3 3
      vertex -5 -1.3 3
      vertex -5 -1.3 0.7
    endloop
  endfacet
  facet normal -1 0 0
    outer loop
      vertex 0.2 -5.5 3
      vertex 0.2 -0.5 3
      vertex 0.2 -1 2
    endloop
  endfacet
  facet normal -1 0 0
    outer loop
      vertex 0.2 -0.5 3
      vertex 0.2 -0.5 2
      vertex 0.2 -1 2
    endloop
  endfacet
  facet normal -1 0 0
    outer loop
      vertex 0.2 -5 0
      vertex 0.2 -5.5 0
      vertex 0.2 -5 0.7
    endloop
  endfacet
  facet normal -1 0 0
    outer loop
      vertex 0.2 -5.5 0
      vertex 0.2 -5.5 3
      vertex 0.2 -5 0.7
    endloop
  endfacet
  facet normal -1 0 0
    outer loop
      vertex 0.2 -5 0.7
      vertex 0.2 -5.5 3
      vertex 0.2 -4.5 0.7
    endloop
  endfacet
  facet normal -1 0 0
    outer loop
      vertex 0.2 -5.5 3
      vertex 0.2 -1 2
      vertex 0.2 -4.5 0.7
    endloop
  endfacet
  facet normal -1 0 0
    outer loop
      vertex 0.2 -4.5 0.7
      vertex 0.2 -1 2
      vertex 0.2 -4.5 0
    endloop
  endfacet
  facet normal -1 0 0
    outer loop
      vertex 0.2 -1 2
      vertex 0.2 -1 0
      vertex 0.2 -4.5 0
    endloop
  endfacet
  facet normal 0 -1 0
    outer loop
      vertex 4 -2.9 0.7
      vertex 3.2 -2.9 0.7
      vertex 4 -2.9 0
    endloop
  endfacet
  facet normal 0 -1 0
    outer loop
      vertex 3.2 -2.9 0.7
      vertex 3.2 -2.9 0
      vertex 4 -2.9 0
    endloop
  endfacet
  facet normal 0 1 0
    outer loop
      vertex 0.2 -0.5 2
      vertex 0.2 -0.5 3
      vertex 3.2 -0.5 2
    endloop
  endfacet
  facet normal 0 1 0
    outer loop
      vertex 0.2 -0.5 3
      vertex 4 -0.5 3
      vertex 3.2 -0.5 2
    endloop
  endfacet
  facet normal 0 1 0
    outer loop
      vertex 3.2 -0.5 2
      vertex 4 -0.5 3
      vertex 3.2 -0.5 0
    endloop
  endfacet
  facet normal 0 1 0
    outer loop
      vertex 4 -0.5 3
      vertex 4 -0.5 0
      vertex 3.2 -0.5 0
    endloop
  endfacet
  facet normal -1 0 0
    outer loop
      vertex 0.2 -0.3 0.7
      vertex 0.2 -0.3 3
      vertex 0.2 2.9 0.7
    endloop
  endfacet
  facet normal -1 0 0
    outer loop
      vertex 0.2 -0.3 3
      vertex 0.2 2.9 3
      vertex 0.2 2.9 0.7
    endloop
  endfacet
  facet normal 0 1 0
    outer loop
      vertex -2 -1.5 3
      vertex 7.15703e-16 -1.5 3
      vertex -2 -1.5 0
    endloop
  endfacet
  facet normal 0 1 0
    outer loop
      vertex 7.15703e-16 -1.5 3
      vertex 7.15703e-16 -1.5 0
      vertex -2 -1.5 0
    endloop
  endfacet
  facet normal 0 0 -1
    outer loop
      vertex 5 -4.5 0.7
      vertex 5 -5 0.7
      vertex 4 -4.5 0.7
    endloop
  endfacet
  facet normal 0 0 -1
    outer loop
      vertex 5 -5 0.7
      vertex 3.2 -5 0.7
      vertex 4 -4.5 0.7
    endloop
  endfacet
  facet normal 0 0 -1
    outer loop
      vertex 4 -4.5 0.7
      vertex 3.2 -5 0.7
      vertex 4 -2.9 0.7
    endloop
  endfacet
  facet normal 0 0 -1
    outer loop
      vertex 3.2 -5 0.7
      vertex 3.2 -2.9 0.7
      vertex 4 -2.9 0.7
    endloop
  endfacet
  facet normal 1 0 0
    outer loop
      vertex 5 -5.5 0
      vertex 5 -5 0
      vertex 5 -5 0.7
    endloop
  endfacet
  facet normal 1 0 0
    outer loop
      vertex 5 4.13023 0
      vertex 5 4.6 0
      vertex 5 4.13023 0.7
    endloop
  endfacet
  facet normal 1 0 0
    outer loop
      vertex 5 4.6 0
      vertex 5 4.6 2
      vertex 5 4.13023 0.7
    endloop
  endfacet
  facet normal 1 0 0
    outer loop
      vertex 5 4.13023 0.7
      vertex 5 4.6 2
      vertex 5 1.33023 0.7
    endloop
  endfacet
  facet normal 1 0 0
    outer loop
      vertex 5 4.6 2
      vertex 5 -4.5 0.7
      vertex 5 1.33023 0.7
    endloop
  endfacet
  facet normal 1 0 0
    outer loop
      vertex 5 1.33023 0.7
      vertex 5 -4.5 0.7
      vertex 5 1.33023 0
    endloop
  endfacet
  facet normal 1 0 0
    outer loop
      vertex 5 -4.5 0.7
      vertex 5 -4.5 0
      vertex 5 1.33023 0
    endloop
  endfacet
  facet normal 1 0 0
    outer loop
      vertex 5 -5.5 0
      vertex 5 -5 0.7
      vertex 5 -5.5 3
    endloop
  endfacet
  facet normal 1 0 0
    outer loop
      vertex 5 -5 0.7
      vertex 5 -4.5 0.7
      vertex 5 -5.5 3
    endloop
  endfacet
  facet normal 1 0 0
    outer loop
      vertex 5 -5.5 3
      vertex 5 -4.5 0.7
      vertex 5 5.5 3
    endloop
  endfacet
  facet normal 1 0 0
    outer loop
      vertex 5 -4.5 0.7
      vertex 5 4.6 2
      vertex 5 5.5 3
    endloop
  endfacet
  facet normal 1 0 0
    outer loop
      vertex 5 5.5 3
      vertex 5 4.6 2
      vertex 5 5.5 2
    endloop
  endfacet
  facet normal 0 -1 0
    outer loop
      vertex 9.91528e-16 -1.3 0.7
      vertex -1.11022e-15 -1.3 3
      vertex -0.7 -1.3 0.7
    endloop
  endfacet
  facet normal 0 -1 0
    outer loop
      vertex -1.11022e-15 -1.3 3
      vertex -2 -1.3 3
      vertex -0.7 -1.3 0.7
    endloop
  endfacet
  facet normal 0 -1 0
    outer loop
      vertex -0.7 -1.3 0.7
      vertex -2 -1.3 3
      vertex -0.7 -1.3 0
    endloop
  endfacet
  facet normal 0 -1 0
    outer loop
      vertex -2 -1.3 3
      vertex -2 -1.3 0
      vertex -0.7 -1.3 0
    endloop
  endfacet
  facet normal 0 -1 0
    outer loop
      vertex 5 -4.5 0.7
      vertex 4 -4.5 0.7
      vertex 5 -4.5 0
    endloop
  endfacet
  facet normal 0 -1 0
    outer loop
      vertex 4 -4.5 0.7
      vertex 4 -4.5 0
      vertex 5 -4.5 0
    endloop
  endfacet
  facet normal 1 1.04414e-15 1.90669e-15
    outer loop
      vertex -5.4956e-15 2.9 3
      vertex -1.11022e-15 -1.3 3
      vertex -1.11022e-15 2.9 0.7
    endloop
  endfacet
  facet normal 1 5.00417e-16 9.13805e-16
    outer loop
      vertex -1.11022e-15 -1.3 3
      vertex 9.91528e-16 -1.3 0.7
      vertex -1.11022e-15 2.9 0.7
    endloop
  endfacet
  facet normal -1 0 0
    outer loop
      vertex 4 -0.5 3
      vertex 4 -0.3 3
      vertex 4 -0.5 0
    endloop
  endfacet
  facet normal -1 0 0
    outer loop
      vertex 4 -0.3 3
      vertex 4 -0.3 0
      vertex 4 -0.5 0
    endloop
  endfacet
  facet normal 0 -1 0
    outer loop
      vertex -1.11022e-15 2.9 0.7
      vertex -0.7 2.9 0.7
      vertex -0.7 2.9 0
    endloop
  endfacet
  facet normal 0 -1 0
    outer loop
      vertex 0.2 2.9 3
      vertex -5.4956e-15 2.9 3
      vertex 0.2 2.9 0.7
    endloop
  endfacet
  facet normal 0 -1 0
    outer loop
      vertex -5.4956e-15 2.9 3
      vertex -1.11022e-15 2.9 0.7
      vertex 0.2 2.9 0.7
    endloop
  endfacet
  facet normal 0 -1 0
    outer loop
      vertex 0.2 2.9 0.7
      vertex -1.11022e-15 2.9 0.7
      vertex 0.2 2.9 0
    endloop
  endfacet
  facet normal 0 -1 0
    outer loop
      vertex -1.11022e-15 2.9 0.7
      vertex -0.7 2.9 0
      vertex 0.2 2.9 0
    endloop
  endfacet
  facet normal 0 1 0
    outer loop
      vertex -5 5.5 2
      vertex -5 5.5 3
      vertex -4.5 5.5 2
    endloop
  endfacet
  facet normal 0 1 0
    outer loop
      vertex -5 5.5 3
      vertex 5 5.5 3
      vertex -4.5 5.5 2
    endloop
  endfacet
  facet normal 0 1 0
    outer loop
      vertex -3 5.5 2
      vertex -3 5.5 0
      vertex -4.5 5.5 0
    endloop
  endfacet
  facet normal 0 1 0
    outer loop
      vertex 5 5.5 3
      vertex 5 5.5 2
      vertex 4.5 5.5 2
    endloop
  endfacet
  facet normal 0 1 0
    outer loop
      vertex 2 5.5 2
      vertex 5 5.5 3
      vertex 3 5.5 2
    endloop
  endfacet
  facet normal 0 1 0
    outer loop
      vertex 5 5.5 3
      vertex 4.5 5.5 2
      vertex 3 5.5 2
    endloop
  endfacet
  facet normal 0 1 0
    outer loop
      vertex 3 5.5 2
      vertex 4.5 5.5 2
      vertex 3 5.5 0
    endloop
  endfacet
  facet normal 0 1 0
    outer loop
      vertex 4.5 5.5 2
      vertex 4.5 5.5 0
      vertex 3 5.5 0
    endloop
  endfacet
  facet normal 0 1 0
    outer loop
      vertex 2 5.5 0
      vertex -2 5.5 0
      vertex 2 5.5 2
    endloop
  endfacet
  facet normal 0 1 0
    outer loop
      vertex -2 5.5 0
      vertex -2 5.5 2
      vertex 2 5.5 2
    endloop
  endfacet
  facet normal 0 1 0
    outer loop
      vertex 2 5.5 2
      vertex -2 5.5 2
      vertex 5 5.5 3
    endloop
  endfacet
  facet normal 0 1 0
    outer loop
      vertex -2 5.5 2
      vertex -3 5.5 2
      vertex 5 5.5 3
    endloop
  endfacet
  facet normal 0 1 0
    outer loop
      vertex 5 5.5 3
      vertex -3 5.5 2
      vertex -4.5 5.5 2
    endloop
  endfacet
  facet normal 0 1 0
    outer loop
      vertex -3 5.5 2
      vertex -4.5 5.5 0
      vertex -4.5 5.5 2
    endloop
  endfacet
  facet normal 0 0 -1
    outer loop
      vertex -1.88265 -5 0
      vertex 1.24059e-15 -5 0
      vertex 1.44329e-15 -5.5 0
    endloop
  endfacet
  facet normal 0 0 -1
    outer loop
      vertex 3.2 -5 0
      vertex 5 -5 0
      vertex 5 -5.5 0
    endloop
  endfacet
  facet normal 0 0 -1
    outer loop
      vertex -4 -4.5 0
      vertex -5 -4.5 0
      vertex -4 -2.9 0
    endloop
  endfacet
  facet normal 0 0 -1
    outer loop
      vertex -5 -4.5 0
      vertex -5 -1.5 0
      vertex -4 -2.9 0
    endloop
  endfacet
  facet normal 0 0 -1
    outer loop
      vertex -4 -2.9 0
      vertex -5 -1.5 0
      vertex -3 -1.5 0
    endloop
  endfacet
  facet normal 0 0 -1
    outer loop
      vertex 5 1.33023 0
      vertex 5 -4.5 0
      vertex 4 -2.9 0
    endloop
  endfacet
  facet normal 0 0 -1
    outer loop
      vertex 5 -4.5 0
      vertex 4 -4.5 0
      vertex 4 -2.9 0
    endloop
  endfacet
  facet normal 0 0 -1
    outer loop
      vertex 4 -2.9 0
      vertex 3.2 -2.9 0
      vertex 1.04478 -1.7 0
    endloop
  endfacet
  facet normal 0 0 -1
    outer loop
      vertex 1.2 -2.9 0
      vertex 1.2 -4.5 0
      vertex 0.2 -4.5 0
    endloop
  endfacet
  facet normal 0 0 -1
    outer loop
      vertex -4.5 4.6 0
      vertex -4.5 5.5 0
      vertex -3 5.5 0
    endloop
  endfacet
  facet normal 0 0 -1
    outer loop
      vertex -5 -5.5 0
      vertex -5 -5 0
      vertex -3.2 -5 0
    endloop
  endfacet
  facet normal 0 0 -1
    outer loop
      vertex 1.44329e-15 -5.5 0
      vertex -5 -5.5 0
      vertex -1.88265 -5 0
    endloop
  endfacet
  facet normal 0 0 -1
    outer loop
      vertex -5 -5.5 0
      vertex -3.2 -5 0
      vertex -1.88265 -5 0
    endloop
  endfacet
  facet normal 0 0 -1
    outer loop
      vertex -1.88265 -5 0
      vertex -3.2 -5 0
      vertex -1.88265 -2.9 0
    endloop
  endfacet
  facet normal 0 0 -1
    outer loop
      vertex -2 5.5 0
      vertex 2 5.5 0
      vertex 2 5.3 0
    endloop
  endfacet
  facet normal 0 0 -1
    outer loop
      vertex -5 4.1 0
      vertex -5 4.6 0
      vertex -4.3 4.1 0
    endloop
  endfacet
  facet normal 0 0 -1
    outer loop
      vertex -5 4.6 0
      vertex -4.5 4.6 0
      vertex -4.3 4.1 0
    endloop
  endfacet
  facet normal 0 0 -1
    outer loop
      vertex 1.04478 -1.7 0
      vertex 2.44478 -1.7 0
      vertex 4 -2.9 0
    endloop
  endfacet
  facet normal 0 0 -1
    outer loop
      vertex 2.44478 -1.7 0
      vertex 2.44478 -1 0
      vertex 4 -2.9 0
    endloop
  endfacet
  facet normal 0 0 -1
    outer loop
      vertex 4 -2.9 0
      vertex 2.44478 -1 0
      vertex 3.2 -1 0
    endloop
  endfacet
  facet normal 0 0 -1
    outer loop
      vertex 0.2 -5.5 0
      vertex 0.2 -5 0
      vertex 2 -5 0
    endloop
  endfacet
  facet normal 0 0 -1
    outer loop
      vertex 0.2 3.2 0
      vertex 0.2 2.9 0
      vertex -2 5.3 0
    endloop
  endfacet
  facet normal 0 0 -1
    outer loop
      vertex 0.2 2.9 0
      vertex -0.7 2.9 0
      vertex -2 5.3 0
    endloop
  endfacet
  facet normal 0 0 -1
    outer loop
      vertex -2 5.3 0
      vertex -0.7 2.9 0
      vertex -3 5.3 0
    endloop
  endfacet
  facet normal 0 0 -1
    outer loop
      vertex -0.7 2.9 0
      vertex -0.7 -1.3 0
      vertex -3 5.3 0
    endloop
  endfacet
  facet normal 0 0 -1
    outer loop
      vertex -2 5.5 0
      vertex 2 5.3 0
      vertex -2 5.3 0
    endloop
  endfacet
  facet normal 0 0 -1
    outer loop
      vertex 1.33227e-15 -4.5 0
      vertex -1.08265 -4.5 0
      vertex 7.15703e-16 -1.5 0
    endloop
  endfacet
  facet normal 0 0 -1
    outer loop
      vertex -1.08265 -4.5 0
      vertex -1.08265 -2.9 0
      vertex 7.15703e-16 -1.5 0
    endloop
  endfacet
  facet normal 0 0 -1
    outer loop
      vertex 7.15703e-16 -1.5 0
      vertex -1.08265 -2.9 0
      vertex -2 -1.5 0
    endloop
  endfacet
  facet normal 0 0 -1
    outer loop
      vertex -1.08265 -2.9 0
      vertex -1.88265 -2.9 0
      vertex -2 -1.5 0
    endloop
  endfacet
  facet normal 0 0 -1
    outer loop
      vertex -2 -1.5 0
      vertex -1.88265 -2.9 0
      vertex -3.2 -2.9 0
    endloop
  endfacet
  facet normal 0 0 -1
    outer loop
      vertex -1.88265 -2.9 0
      vertex -3.2 -5 0
      vertex -3.2 -2.9 0
    endloop
  endfacet
  facet normal 0 0 -1
    outer loop
      vertex 0.2 3.2 0
      vertex -2 5.3 0
      vertex 0.9 3.2 0
    endloop
  endfacet
  facet normal 0 0 -1
    outer loop
      vertex -2 5.3 0
      vertex 2 5.3 0
      vertex 0.9 3.2 0
    endloop
  endfacet
  facet normal 0 0 -1
    outer loop
      vertex 0.9 3.2 0
      vertex 2 5.3 0
      vertex 3 5.3 0
    endloop
  endfacet
  facet normal 0 0 -1
    outer loop
      vertex 4.5 5.5 0
      vertex 4.5 4.6 0
      vertex 3 5.5 0
    endloop
  endfacet
  facet normal 0 0 -1
    outer loop
      vertex 4.5 4.6 0
      vertex 3 5.3 0
      vertex 3 5.5 0
    endloop
  endfacet
  facet normal 0 0 -1
    outer loop
      vertex -3 5.5 0
      vertex -3 5.3 0
      vertex -4.5 4.6 0
    endloop
  endfacet
  facet normal 0 0 -1
    outer loop
      vertex -3 5.3 0
      vertex -0.7 -1.3 0
      vertex -4.5 4.6 0
    endloop
  endfacet
  facet normal 0 0 -1
    outer loop
      vertex -4.5 4.6 0
      vertex -0.7 -1.3 0
      vertex -4.3 4.1 0
    endloop
  endfacet
  facet normal 0 0 -1
    outer loop
      vertex -0.7 -1.3 0
      vertex -2 -1.3 0
      vertex -4.3 4.1 0
    endloop
  endfacet
  facet normal 0 0 -1
    outer loop
      vertex 4 -0.3 0
      vertex 3 -0.3 0
      vertex 3 0.4 0
    endloop
  endfacet
  facet normal 0 0 -1
    outer loop
      vertex 0.9 0.4 0
      vertex 0.9 3.2 0
      vertex 4.3 1.33023 0
    endloop
  endfacet
  facet normal 0 0 -1
    outer loop
      vertex 0.9 3.2 0
      vertex 3 5.3 0
      vertex 4.3 1.33023 0
    endloop
  endfacet
  facet normal 0 0 -1
    outer loop
      vertex 4.3 1.33023 0
      vertex 3 5.3 0
      vertex 4.3 4.13023 0
    endloop
  endfacet
  facet normal 0 0 -1
    outer loop
      vertex 3 5.3 0
      vertex 4.5 4.6 0
      vertex 4.3 4.13023 0
    endloop
  endfacet
  facet normal 0 0 -1
    outer loop
      vertex 4.3 4.13023 0
      vertex 4.5 4.6 0
      vertex 5 4.13023 0
    endloop
  endfacet
  facet normal 0 0 -1
    outer loop
      vertex 4.5 4.6 0
      vertex 5 4.6 0
      vertex 5 4.13023 0
    endloop
  endfacet
  facet normal 0 0 -1
    outer loop
      vertex -4.3 -1.3 0
      vertex -4.3 4.1 0
      vertex -3 -1.3 0
    endloop
  endfacet
  facet normal 0 0 -1
    outer loop
      vertex -4.3 4.1 0
      vertex -2 -1.3 0
      vertex -3 -1.3 0
    endloop
  endfacet
  facet normal 0 0 -1
    outer loop
      vertex -3 -1.3 0
      vertex -2 -1.3 0
      vertex -3 -1.5 0
    endloop
  endfacet
  facet normal 0 0 -1
    outer loop
      vertex -2 -1.3 0
      vertex -2 -1.5 0
      vertex -3 -1.5 0
    endloop
  endfacet
  facet normal 0 0 -1
    outer loop
      vertex -3 -1.5 0
      vertex -2 -1.5 0
      vertex -4 -2.9 0
    endloop
  endfacet
  facet normal 0 0 -1
    outer loop
      vertex -2 -1.5 0
      vertex -3.2 -2.9 0
      vertex -4 -2.9 0
    endloop
  endfacet
  facet normal 0 0 -1
    outer loop
      vertex 3.2 -1 0
      vertex 3.2 -0.5 0
      vertex 4 -2.9 0
    endloop
  endfacet
  facet normal 0 0 -1
    outer loop
      vertex 3.2 -0.5 0
      vertex 4 -0.5 0
      vertex 4 -2.9 0
    endloop
  endfacet
  facet normal 0 0 -1
    outer loop
      vertex 4 -2.9 0
      vertex 4 -0.5 0
      vertex 5 1.33023 0
    endloop
  endfacet
  facet normal 0 0 -1
    outer loop
      vertex 4 -0.5 0
      vertex 4 -0.3 0
      vertex 5 1.33023 0
    endloop
  endfacet
  facet normal 0 0 -1
    outer loop
      vertex 5 1.33023 0
      vertex 4 -0.3 0
      vertex 4.3 1.33023 0
    endloop
  endfacet
  facet normal 0 0 -1
    outer loop
      vertex 4 -0.3 0
      vertex 3 0.4 0
      vertex 4.3 1.33023 0
    endloop
  endfacet
  facet normal 0 0 -1
    outer loop
      vertex 4.3 1.33023 0
      vertex 3 0.4 0
      vertex 0.9 0.4 0
    endloop
  endfacet
  facet normal 0 0 -1
    outer loop
      vertex 0.2 -1 0
      vertex 1.04478 -1 0
      vertex 1.04478 -1.7 0
    endloop
  endfacet
  facet normal 0 0 -1
    outer loop
      vertex 0.2 -4.5 0
      vertex 0.2 -1 0
      vertex 1.2 -2.9 0
    endloop
  endfacet
  facet normal 0 0 -1
    outer loop
      vertex 0.2 -1 0
      vertex 1.04478 -1.7 0
      vertex 1.2 -2.9 0
    endloop
  endfacet
  facet normal 0 0 -1
    outer loop
      vertex 1.2 -2.9 0
      vertex 1.04478 -1.7 0
      vertex 2 -2.9 0
    endloop
  endfacet
  facet normal 0 0 -1
    outer loop
      vertex 1.04478 -1.7 0
      vertex 3.2 -2.9 0
      vertex 2 -2.9 0
    endloop
  endfacet
  facet normal 0 0 -1
    outer loop
      vertex 2 -2.9 0
      vertex 3.2 -2.9 0
      vertex 2 -5 0
    endloop
  endfacet
  facet normal 0 0 -1
    outer loop
      vertex 3.2 -2.9 0
      vertex 3.2 -5 0
      vertex 2 -5 0
    endloop
  endfacet
  facet normal 0 0 -1
    outer loop
      vertex 2 -5 0
      vertex 3.2 -5 0
      vertex 0.2 -5.5 0
    endloop
  endfacet
  facet normal 0 0 -1
    outer loop
      vertex 3.2 -5 0
      vertex 5 -5.5 0
      vertex 0.2 -5.5 0
    endloop
  endfacet
  facet normal 0 1 0
    outer loop
      vertex 3.2 -5 0.7
      vertex 5 -5 0.7
      vertex 3.2 -5 0
    endloop
  endfacet
  facet normal 0 1 0
    outer loop
      vertex 5 -5 0.7
      vertex 5 -5 0
      vertex 3.2 -5 0
    endloop
  endfacet
  facet normal -1 0 0
    outer loop
      vertex -3 -1.5 3
      vertex -3 -1.3 3
      vertex -3 -1.5 0
    endloop
  endfacet
  facet normal -1 0 0
    outer loop
      vertex -3 -1.3 3
      vertex -3 -1.3 0
      vertex -3 -1.5 0
    endloop
  endfacet
  facet normal 0 0 -1
    outer loop
      vertex 0.2 -0.5 2
      vertex 3.2 -0.5 2
      vertex 0.2 -1 2
    endloop
  endfacet
  facet normal 0 0 -1
    outer loop
      vertex 3.2 -0.5 2
      vertex 3.2 -1 2
      vertex 0.2 -1 2
    endloop
  endfacet
  facet normal 0 -1 0
    outer loop
      vertex 3 -5.5 1
      vertex 5 -5.5 0
      vertex 3 -5.5 2
    endloop
  endfacet
  facet normal 0 -1 0
    outer loop
      vertex 5 -5.5 0
      vertex 5 -5.5 3
      vertex 3 -5.5 2
    endloop
  endfacet
  facet normal 0 -1 0
    outer loop
      vertex 3 -5.5 2
      vertex 5 -5.5 3
      vertex 1 -5.5 2
    endloop
  endfacet
  facet normal 0 -1 0
    outer loop
      vertex 5 -5.5 3
      vertex 0.2 -5.5 3
      vertex 1 -5.5 2
    endloop
  endfacet
  facet normal 0 -1 0
    outer loop
      vertex 1 -5.5 2
      vertex 0.2 -5.5 3
      vertex 1 -5.5 1
    endloop
  endfacet
  facet normal 0 -1 0
    outer loop
      vertex 0.2 -5.5 3
      vertex 0.2 -5.5 0
      vertex 1 -5.5 1
    endloop
  endfacet
  facet normal 0 -1 0
    outer loop
      vertex 1 -5.5 1
      vertex 0.2 -5.5 0
      vertex 3 -5.5 1
    endloop
  endfacet
  facet normal 0 -1 0
    outer loop
      vertex 0.2 -5.5 0
      vertex 5 -5.5 0
      vertex 3 -5.5 1
    endloop
  endfacet
  facet normal -1 0 0
    outer loop
      vertex -5 4.6 0
      vertex -5 4.1 0
      vertex -5 4.6 2
    endloop
  endfacet
  facet normal -1 0 0
    outer loop
      vertex -5 4.1 0
      vertex -5 4.1 0.7
      vertex -5 4.6 2
    endloop
  endfacet
  facet normal -1 0 0
    outer loop
      vertex -5 5.5 3
      vertex -5 5.5 2
      vertex -5 4.6 2
    endloop
  endfacet
  facet normal -1 0 0
    outer loop
      vertex -5 4.1 0.7
      vertex -5 -1.3 0.7
      vertex -5 4.6 2
    endloop
  endfacet
  facet normal -1 0 0
    outer loop
      vertex -5 -1.3 0.7
      vertex -5 -1.3 3
      vertex -5 4.6 2
    endloop
  endfacet
  facet normal -1 0 0
    outer loop
      vertex -5 4.6 2
      vertex -5 -1.3 3
      vertex -5 5.5 3
    endloop
  endfacet
  facet normal 1 0 0
    outer loop
      vertex -3 5.3 2
      vertex -3 5.3 0
      vertex -3 5.5 2
    endloop
  endfacet
  facet normal 1 0 0
    outer loop
      vertex -3 5.3 0
      vertex -3 5.5 0
      vertex -3 5.5 2
    endloop
  endfacet
  facet normal -1 0 0
    outer loop
      vertex 4 -4.5 0.7
      vertex 4 -2.9 0.7
      vertex 4 -4.5 0
    endloop
  endfacet
  facet normal -1 0 0
    outer loop
      vertex 4 -2.9 0.7
      vertex 4 -2.9 0
      vertex 4 -4.5 0
    endloop
  endfacet
  facet normal 0 1 0
    outer loop
      vertex -5 -1.5 3
      vertex -3 -1.5 3
      vertex -5 -1.5 0
    endloop
  endfacet
  facet normal 0 1 0
    outer loop
      vertex -3 -1.5 3
      vertex -3 -1.5 0
      vertex -5 -1.5 0
    endloop
  endfacet
  facet normal 1 0 0
    outer loop
      vertex 1.04478 -1 0.7
      vertex 1.04478 -1.7 0.7
      vertex 1.04478 -1 0
    endloop
  endfacet
  facet normal 1 0 0
    outer loop
      vertex 1.04478 -1.7 0.7
      vertex 1.04478 -1.7 0
      vertex 1.04478 -1 0
    endloop
  endfacet
  facet normal -1 0 0
    outer loop
      vertex -5 -5 0
      vertex -5 -5.5 0
      vertex -5 -5 0.7
    endloop
  endfacet
  facet normal -1 0 0
    outer loop
      vertex -5 -5.5 0
      vertex -5 -5.5 3
      vertex -5 -5 0.7
    endloop
  endfacet
  facet normal -1 0 0
    outer loop
      vertex -5 -5 0.7
      vertex -5 -5.5 3
      vertex -5 -4.5 0.7
    endloop
  endfacet
  facet normal -1 0 0
    outer loop
      vertex -5 -5.5 3
      vertex -5 -1.5 3
      vertex -5 -4.5 0.7
    endloop
  endfacet
  facet normal -1 0 0
    outer loop
      vertex -5 -4.5 0.7
      vertex -5 -1.5 3
      vertex -5 -4.5 0
    endloop
  endfacet
  facet normal -1 0 0
    outer loop
      vertex -5 -1.5 3
      vertex -5 -1.5 0
      vertex -5 -4.5 0
    endloop
  endfacet
  facet normal 0 -1 0
    outer loop
      vertex -1 -5.5 1
      vertex 1.44329e-15 -5.5 0
      vertex -1 -5.5 2
    endloop
  endfacet
  facet normal 0 -1 0
    outer loop
      vertex 1.44329e-15 -5.5 0
      vertex 1.44329e-15 -5.5 3
      vertex -1 -5.5 2
    endloop
  endfacet
  facet normal 0 -1 0
    outer loop
      vertex -1 -5.5 2
      vertex 1.44329e-15 -5.5 3
      vertex -3 -5.5 2
    endloop
  endfacet
  facet normal 0 -1 0
    outer loop
      vertex 1.44329e-15 -5.5 3
      vertex -5 -5.5 3
      vertex -3 -5.5 2
    endloop
  endfacet
  facet normal 0 -1 0
    outer loop
      vertex -3 -5.5 2
      vertex -5 -5.5 3
      vertex -3 -5.5 1
    endloop
  endfacet
  facet normal 0 -1 0
    outer loop
      vertex -5 -5.5 3
      vertex -5 -5.5 0
      vertex -3 -5.5 1
    endloop
  endfacet
  facet normal 0 -1 0
    outer loop
      vertex -3 -5.5 1
      vertex -5 -5.5 0
      vertex -1 -5.5 1
    endloop
  endfacet
  facet normal 0 -1 0
    outer loop
      vertex -5 -5.5 0
      vertex 1.44329e-15 -5.5 0
      vertex -1 -5.5 1
    endloop
  endfacet
  facet normal 1 4.05395e-16 0
    outer loop
      vertex 1.44329e-15 -5.5 0
      vertex 1.24059e-15 -5 0
      vertex 1.24059e-15 -5 0.7
    endloop
  endfacet
  facet normal 1 2.05522e-16 0
    outer loop
      vertex 1.33227e-15 -4.5 0
      vertex 7.15703e-16 -1.5 0
      vertex 1.33227e-15 -4.5 0.7
    endloop
  endfacet
  facet normal 1 2.05522e-16 0
    outer loop
      vertex 7.15703e-16 -1.5 0
      vertex 7.15703e-16 -1.5 3
      vertex 1.33227e-15 -4.5 0.7
    endloop
  endfacet
  facet normal 1 -1.8335e-16 5.07224e-16
    outer loop
      vertex 1.33227e-15 -4.5 0.7
      vertex 7.15703e-16 -1.5 3
      vertex 1.24059e-15 -5 0.7
    endloop
  endfacet
  facet normal 1 1.81897e-16 -4.85865e-17
    outer loop
      vertex 7.15703e-16 -1.5 3
      vertex 1.44329e-15 -5.5 3
      vertex 1.24059e-15 -5 0.7
    endloop
  endfacet
  facet normal 1 4.05395e-16 0
    outer loop
      vertex 1.24059e-15 -5 0.7
      vertex 1.44329e-15 -5.5 3
      vertex 1.44329e-15 -5.5 0
    endloop
  endfacet
  facet normal 0 1 0
    outer loop
      vertex 1.04478 -1 0
      vertex 0.2 -1 0
      vertex 1.04478 -1 0.7
    endloop
  endfacet
  facet normal 0 1 0
    outer loop
      vertex 0.2 -1 0
      vertex 0.2 -1 2
      vertex 1.04478 -1 0.7
    endloop
  endfacet
  facet normal 0 1 0
    outer loop
      vertex 1.04478 -1 0.7
      vertex 0.2 -1 2
      vertex 2.44478 -1 0.7
    endloop
  endfacet
  facet normal 0 1 0
    outer loop
      vertex 0.2 -1 2
      vertex 3.2 -1 2
      vertex 2.44478 -1 0.7
    endloop
  endfacet
  facet normal 0 1 0
    outer loop
      vertex 2.44478 -1 0.7
      vertex 3.2 -1 2
      vertex 2.44478 -1 0
    endloop
  endfacet
  facet normal 0 1 0
    outer loop
      vertex 3.2 -1 2
      vertex 3.2 -1 0
      vertex 2.44478 -1 0
    endloop
  endfacet
  facet normal -1 0 0
    outer loop
      vertex 3.2 -1 2
      vertex 3.2 -0.5 2
      vertex 3.2 -1 0
    endloop
  endfacet
  facet normal -1 0 0
    outer loop
      vertex 3.2 -0.5 2
      vertex 3.2 -0.5 0
      vertex 3.2 -1 0
    endloop
  endfacet
  facet normal -1 0 0
    outer loop
      vertex 2.44478 -1.7 0.7
      vertex 2.44478 -1 0.7
      vertex 2.44478 -1.7 0
    endloop
  endfacet
  facet normal -1 0 0
    outer loop
      vertex 2.44478 -1 0.7
      vertex 2.44478 -1 0
      vertex 2.44478 -1.7 0
    endloop
  endfacet
  facet normal 1 0 0
    outer loop
      vertex -4 -2.9 0.7
      vertex -4 -4.5 0.7
      vertex -4 -2.9 0
    endloop
  endfacet
  facet normal 1 0 0
    outer loop
      vertex -4 -4.5 0.7
      vertex -4 -4.5 0
      vertex -4 -2.9 0
    endloop
  endfacet
  facet normal 0 -1 0
    outer loop
      vertex -4 -4.5 0.7
      vertex -5 -4.5 0.7
      vertex -4 -4.5 0
    endloop
  endfacet
  facet normal 0 -1 0
    outer loop
      vertex -5 -4.5 0.7
      vertex -5 -4.5 0
      vertex -4 -4.5 0
    endloop
  endfacet
  facet normal 0 1 0
    outer loop
      vertex -5 -5 0.7
      vertex -3.2 -5 0.7
      vertex -5 -5 0
    endloop
  endfacet
  facet normal 0 1 0
    outer loop
      vertex -3.2 -5 0.7
      vertex -3.2 -5 0
      vertex -5 -5 0
    endloop
  endfacet
  facet normal -1 0 0
    outer loop
      vertex -3.2 -5 0.7
      vertex -3.2 -2.9 0.7
      vertex -3.2 -5 0
    endloop
  endfacet
  facet normal -1 0 0
    outer loop
      vertex -3.2 -2.9 0.7
      vertex -3.2 -2.9 0
      vertex -3.2 -5 0
    endloop
  endfacet
  facet normal 0 -1 0
    outer loop
      vertex -3.2 -2.9 0.7
      vertex -4 -2.9 0.7
      vertex -3.2 -2.9 0
    endloop
  endfacet
  facet normal 0 -1 0
    outer loop
      vertex -4 -2.9 0.7
      vertex -4 -2.9 0
      vertex -3.2 -2.9 0
    endloop
  endfacet
  facet normal 0 0 -1
    outer loop
      vertex -4 -2.9 0.7
      vertex -3.2 -2.9 0.7
      vertex -4 -4.5 0.7
    endloop
  endfacet
  facet normal 0 0 -1
    outer loop
      vertex -3.2 -2.9 0.7
      vertex -3.2 -5 0.7
      vertex -4 -4.5 0.7
    endloop
  endfacet
  facet normal 0 0 -1
    outer loop
      vertex -4 -4.5 0.7
      vertex -3.2 -5 0.7
      vertex -5 -4.5 0.7
    endloop
  endfacet
  facet normal 0 0 -1
    outer loop
      vertex -3.2 -5 0.7
      vertex -5 -5 0.7
      vertex -5 -4.5 0.7
    endloop
  endfacet
  facet normal 1 0 0
    outer loop
      vertex -1.88265 -2.9 0.7
      vertex -1.88265 -5 0.7
      vertex -1.88265 -2.9 0
    endloop
  endfacet
  facet normal 1 0 0
    outer loop
      vertex -1.88265 -5 0.7
      vertex -1.88265 -5 0
      vertex -1.88265 -2.9 0
    endloop
  endfacet
  facet normal 0 1 0
    outer loop
      vertex -1.88265 -5 0.7
      vertex 1.24059e-15 -5 0.7
      vertex -1.88265 -5 0
    endloop
  endfacet
  facet normal 0 1 0
    outer loop
      vertex 1.24059e-15 -5 0.7
      vertex 1.24059e-15 -5 0
      vertex -1.88265 -5 0
    endloop
  endfacet
  facet normal 0 -1 0
    outer loop
      vertex 1.33227e-15 -4.5 0.7
      vertex -1.08265 -4.5 0.7
      vertex 1.33227e-15 -4.5 0
    endloop
  endfacet
  facet normal 0 -1 0
    outer loop
      vertex -1.08265 -4.5 0.7
      vertex -1.08265 -4.5 0
      vertex 1.33227e-15 -4.5 0
    endloop
  endfacet
  facet normal -1 0 0
    outer loop
      vertex -1.08265 -4.5 0.7
      vertex -1.08265 -2.9 0.7
      vertex -1.08265 -4.5 0
    endloop
  endfacet
  facet normal -1 0 0
    outer loop
      vertex -1.08265 -2.9 0.7
      vertex -1.08265 -2.9 0
      vertex -1.08265 -4.5 0
    endloop
  endfacet
  facet normal 0 -1 0
    outer loop
      vertex -1.08265 -2.9 0.7
      vertex -1.88265 -2.9 0.7
      vertex -1.08265 -2.9 0
    endloop
  endfacet
  facet normal 0 -1 0
    outer loop
      vertex -1.88265 -2.9 0.7
      vertex -1.88265 -2.9 0
      vertex -1.08265 -2.9 0
    endloop
  endfacet
  facet normal 0 0 -1
    outer loop
      vertex 1.33227e-15 -4.5 0.7
      vertex 1.24059e-15 -5 0.7
      vertex -1.08265 -4.5 0.7
    endloop
  endfacet
  facet normal 0 0 -1
    outer loop
      vertex 1.24059e-15 -5 0.7
      vertex -1.88265 -5 0.7
      vertex -1.08265 -4.5 0.7
    endloop
  endfacet
  facet normal 0 0 -1
    outer loop
      vertex -1.08265 -4.5 0.7
      vertex -1.88265 -5 0.7
      vertex -1.08265 -2.9 0.7
    endloop
  endfacet
  facet normal 0 0 -1
    outer loop
      vertex -1.88265 -5 0.7
      vertex -1.88265 -2.9 0.7
      vertex -1.08265 -2.9 0.7
    endloop
  endfacet
  facet normal 1 0 0
    outer loop
      vertex 4.3 4.13023 0.7
      vertex 4.3 1.33023 0.7
      vertex 4.3 4.13023 0
    endloop
  endfacet
  facet normal 1 0 0
    outer loop
      vertex 4.3 1.33023 0.7
      vertex 4.3 1.33023 0
      vertex 4.3 4.13023 0
    endloop
  endfacet
  facet normal 0 1 0
    outer loop
      vertex 4.3 1.33023 0.7
      vertex 5 1.33023 0.7
      vertex 4.3 1.33023 0
    endloop
  endfacet
  facet normal 0 1 0
    outer loop
      vertex 5 1.33023 0.7
      vertex 5 1.33023 0
      vertex 4.3 1.33023 0
    endloop
  endfacet
  facet normal 0 -1 0
    outer loop
      vertex 5 4.13023 0.7
      vertex 4.3 4.13023 0.7
      vertex 5 4.13023 0
    endloop
  endfacet
  facet normal 0 -1 0
    outer loop
      vertex 4.3 4.13023 0.7
      vertex 4.3 4.13023 0
      vertex 5 4.13023 0
    endloop
  endfacet
  facet normal 0 0 -1
    outer loop
      vertex 5 4.13023 0.7
      vertex 5 1.33023 0.7
      vertex 4.3 4.13023 0.7
    endloop
  endfacet
  facet normal 0 0 -1
    outer loop
      vertex 5 1.33023 0.7
      vertex 4.3 1.33023 0.7
      vertex 4.3 4.13023 0.7
    endloop
  endfacet
  facet normal 1 0 0
    outer loop
      vertex 0.2 3.2 0
      vertex 0.2 3.2 0.7
      vertex 0.2 2.9 0
    endloop
  endfacet
  facet normal 1 0 0
    outer loop
      vertex 0.2 3.2 0.7
      vertex 0.2 2.9 0.7
      vertex 0.2 2.9 0
    endloop
  endfacet
  facet normal -1 0 0
    outer loop
      vertex 3 -0.3 0.7
      vertex 3 0.4 0.7
      vertex 3 -0.3 0
    endloop
  endfacet
  facet normal -1 0 0
    outer loop
      vertex 3 0.4 0.7
      vertex 3 0.4 0
      vertex 3 -0.3 0
    endloop
  endfacet
  facet normal 0 -1 0
    outer loop
      vertex 3 0.4 0.7
      vertex 0.9 0.4 0.7
      vertex 3 0.4 0
    endloop
  endfacet
  facet normal 0 -1 0
    outer loop
      vertex 0.9 0.4 0.7
      vertex 0.9 0.4 0
      vertex 3 0.4 0
    endloop
  endfacet
  facet normal -1 0 0
    outer loop
      vertex 0.9 0.4 0.7
      vertex 0.9 3.2 0.7
      vertex 0.9 0.4 0
    endloop
  endfacet
  facet normal -1 0 0
    outer loop
      vertex 0.9 3.2 0.7
      vertex 0.9 3.2 0
      vertex 0.9 0.4 0
    endloop
  endfacet
  facet normal 0 -1 0
    outer loop
      vertex 0.9 3.2 0.7
      vertex 0.2 3.2 0.7
      vertex 0.9 3.2 0
    endloop
  endfacet
  facet normal 0 -1 0
    outer loop
      vertex 0.2 3.2 0.7
      vertex 0.2 3.2 0
      vertex 0.9 3.2 0
    endloop
  endfacet
  facet normal 0 0 -1
    outer loop
      vertex 3 0.4 0.7
      vertex 3 -0.3 0.7
      vertex 0.9 0.4 0.7
    endloop
  endfacet
  facet normal 0 0 -1
    outer loop
      vertex 3 -0.3 0.7
      vertex 0.2 -0.3 0.7
      vertex 0.9 0.4 0.7
    endloop
  endfacet
  facet normal 0 0 -1
    outer loop
      vertex 0.9 0.4 0.7
      vertex 0.2 -0.3 0.7
      vertex 0.9 3.2 0.7
    endloop
  endfacet
  facet normal 0 0 -1
    outer loop
      vertex 0.2 -0.3 0.7
      vertex 0.2 2.9 0.7
      vertex 0.9 3.2 0.7
    endloop
  endfacet
  facet normal 0 0 -1
    outer loop
      vertex 0.9 3.2 0.7
      vertex 0.2 2.9 0.7
      vertex 0.2 3.2 0.7
    endloop
  endfacet
  facet normal 1 0 0
    outer loop
      vertex 1.2 -2.9 0.7
      vertex 1.2 -4.5 0.7
      vertex 1.2 -2.9 0
    endloop
  endfacet
  facet normal 1 0 0
    outer loop
      vertex 1.2 -4.5 0.7
      vertex 1.2 -4.5 0
      vertex 1.2 -2.9 0
    endloop
  endfacet
  facet normal 0 -1 0
    outer loop
      vertex 1.2 -4.5 0.7
      vertex 0.2 -4.5 0.7
      vertex 1.2 -4.5 0
    endloop
  endfacet
  facet normal 0 -1 0
    outer loop
      vertex 0.2 -4.5 0.7
      vertex 0.2 -4.5 0
      vertex 1.2 -4.5 0
    endloop
  endfacet
  facet normal 0 1 0
    outer loop
      vertex 0.2 -5 0.7
      vertex 2 -5 0.7
      vertex 0.2 -5 0
    endloop
  endfacet
  facet normal 0 1 0
    outer loop
      vertex 2 -5 0.7
      vertex 2 -5 0
      vertex 0.2 -5 0
    endloop
  endfacet
  facet normal -1 0 0
    outer loop
      vertex 2 -5 0.7
      vertex 2 -2.9 0.7
      vertex 2 -5 0
    endloop
  endfacet
  facet normal -1 0 0
    outer loop
      vertex 2 -2.9 0.7
      vertex 2 -2.9 0
      vertex 2 -5 0
    endloop
  endfacet
  facet normal 0 -1 0
    outer loop
      vertex 2 -2.9 0.7
      vertex 1.2 -2.9 0.7
      vertex 2 -2.9 0
    endloop
  endfacet
  facet normal 0 -1 0
    outer loop
      vertex 1.2 -2.9 0.7
      vertex 1.2 -2.9 0
      vertex 2 -2.9 0
    endloop
  endfacet
  facet normal 0 0 -1
    outer loop
      vertex 1.2 -2.9 0.7
      vertex 2 -2.9 0.7
      vertex 1.2 -4.5 0.7
    endloop
  endfacet
  facet normal 0 0 -1
    outer loop
      vertex 2 -2.9 0.7
      vertex 2 -5 0.7
      vertex 1.2 -4.5 0.7
    endloop
  endfacet
  facet normal 0 0 -1
    outer loop
      vertex 1.2 -4.5 0.7
      vertex 2 -5 0.7
      vertex 0.2 -4.5 0.7
    endloop
  endfacet
  facet normal 0 0 -1
    outer loop
      vertex 2 -5 0.7
      vertex 0.2 -5 0.7
      vertex 0.2 -4.5 0.7
    endloop
  endfacet
  facet normal 1 0 0
    outer loop
      vertex -3 -5.3 1
      vertex -3 -5.3 2
      vertex -3 -5.5 1
    endloop
  endfacet
  facet normal 1 0 0
    outer loop
      vertex -3 -5.3 2
      vertex -3 -5.5 2
      vertex -3 -5.5 1
    endloop
  endfacet
  facet normal 0 0 1
    outer loop
      vertex -1 -5.3 1
      vertex -3 -5.3 1
      vertex -1 -5.5 1
    endloop
  endfacet
  facet normal 0 0 1
    outer loop
      vertex -3 -5.3 1
      vertex -3 -5.5 1
      vertex -1 -5.5 1
    endloop
  endfacet
  facet normal -1 0 0
    outer loop
      vertex -1 -5.3 2
      vertex -1 -5.3 1
      vertex -1 -5.5 2
    endloop
  endfacet
  facet normal -1 0 0
    outer loop
      vertex -1 -5.3 1
      vertex -1 -5.5 1
      vertex -1 -5.5 2
    endloop
  endfacet
  facet normal 0 0 -1
    outer loop
      vertex -3 -5.3 2
      vertex -1 -5.3 2
      vertex -3 -5.5 2
    endloop
  endfacet
  facet normal 0 0 -1
    outer loop
      vertex -1 -5.3 2
      vertex -1 -5.5 2
      vertex -3 -5.5 2
    endloop
  endfacet
  facet normal 0 -1 0
    outer loop
      vertex -1 -5.3 1
      vertex -1 -5.3 2
      vertex -3 -5.3 1
    endloop
  endfacet
  facet normal 0 -1 0
    outer loop
      vertex -1 -5.3 2
      vertex -3 -5.3 2
      vertex -3 -5.3 1
    endloop
  endfacet
  facet normal 1 0 0
    outer loop
      vertex 1 -5.3 1
      vertex 1 -5.3 2
      vertex 1 -5.5 1
    endloop
  endfacet
  facet normal 1 0 0
    outer loop
      vertex 1 -5.3 2
      vertex 1 -5.5 2
      vertex 1 -5.5 1
    endloop
  endfacet
  facet normal 0 0 1
    outer loop
      vertex 3 -5.3 1
      vertex 1 -5.3 1
      vertex 3 -5.5 1
    endloop
  endfacet
  facet normal 0 0 1
    outer loop
      vertex 1 -5.3 1
      vertex 1 -5.5 1
      vertex 3 -5.5 1
    endloop
  endfacet
endsolid Onshape
